<?xml version="1.0" encoding="UTF-8"?>
<svg id="Layer_1" data-name="Layer 1" xmlns="http://www.w3.org/2000/svg" viewBox="0 0 510.24 232.92">
  <defs>
    <style>
      .cls-1, .cls-2 {
        fill: #131718;
      }

      .cls-2 {
        fill-rule: evenodd;
      }

      .cls-3 {
        fill: #f26727;
      }
    </style>
  </defs>
  <path class="cls-3" d="M324.53,87.13l.04.04.2.07-.24-.11ZM80.81,200.53l-.93-.18-.89-.23-.88-.35-.76-.47-.83-.42-.71-.65-.65-.65-.52-.71-.48-.7-.41-.71-.35-.71-.29-.83-.35-1.06-.24-1.12-.29-1.12-.17-1.13-.12-1.12-.12-1.06-.06-1.17.06-1.18v-1.3l.12-.83.06-.76.06-.82v-.82l.11-.77.12-.76.12-.82.11-.76.12-.77.12-.82.18-.76.18-.83.12-.77.18-.76.18-.76.18-.77.23-.76.18-.82.23-.71.24-.77.18-.76.29-.76.24-.76.29-.76.18-.76.36-.71.23-.77.29-.76.3-.71.35-.76.23-.71.29-.76.47-.94.41-.88.41-1,.36-.88.47-.94.47-.95.41-.94.48-.88.47-.88.41-.95.53-.88.47-.88.48-.88.53-.94.53-.89.53-.82.46-.94.59-.83.53-.88.53-.88.54-.82.52-.89.59-.82.58-.82.59-.88.58-.77.59-.88.65-.76.58-.88.59-.76.65-.89.59-.76.71-.77.65-.88.59-.77.71-.82.65-.76.7-.83.65-.77.71-.76.71-.76.65-.77.76-.76.76-.71.65-.76.76-.76.76-.71.71-.71.83-.65.7-.77.77-.7.76-.71.83-.64.76-.71.76-.65.83-.65.82-.65.76-.66.88-.65.76-.65.88-.59.83-.59.82-.65.89-.59.95-.65.94-.59,1-.58,1-.59,1.06-.53,1-.59,1-.46,1-.53.83-.47.89-.36.82-.35.83-.42.88-.29.89-.29.88-.29.88-.24.88-.23.88-.18.95-.12.94-.23.89-.12.94-.06.95-.06.88-.06,1.12.06,1.18.06,1.12.11,1.05.18,1.07.24,1.12.29,1.06.3,1.07.41.59.23.59.24.58.23.53.3.59.29.59.29.53.29.53.24.59.41.53.3.53.35.53.35.47.35.53.41.53.36.48.41-1.65,3.65-.48,1.13-.46,1.05-.47,1.18-.48,1.06-.47,1.12-.53,1.06-.47,1.18-.54,1-.52,1.06-.53,1.12-.53,1.05-.53,1.12-.47,1.07-.54,1.12-.53,1.06-.53,1.07-.59,1.12-.48,1.06-.58,1.05-.53,1.07-.58,1.07-.48,1.05-.59,1.12-.59,1.07-.53,1.06-.58,1-.59,1.06-.59,1.06-.59,1.06-.59,1.06-.58,1-.59,1.06-.59,1.06-.59,1-.65,1.06-.58,1-.65,1.06-.65,1.06-.59,1-.58,1.06-.65,1-.65,1.07-.65,1-.59,1-.65,1-.71,1-.65,1-.65,1-.65,1-.71,1.05-.65,1-.65,1-.7.95-.71,1-.65.99-.65,1-.71.95-.7,1-.71,1-.71.94-.7,1-.65.94-.77,1-.7.95-2.3,2.77-.47.59-.53.65-.53.58-.53.65-.47.59-.53.53-.54.53-.52.59-.53.59-.53.59-.59.53-.58.53-.48.53-.59.59-.59.53-.53.53-.65.48-.58.52-.59.53-.58.53-.65.41-.59.53-.59.48-.65.52-.65.48-.59.47-.65.47-.59.41-.65.48-.71.41-.65.47-.65.42-.82.53-.83.41-.83.47-.88.42-.83.41-.94.35-.88.24-.83.41-.95.18-.93.24-.89.23-.94.18-1,.12-.94.12-.95.06h-2.06l-1.13-.12ZM374.9,200.59l-.95-.18-.88-.29-.88-.35-.82-.41-.83-.48-.71-.58-.65-.71-.65-.71-.41-.7-.41-.71-.35-.71-.29-.83-.29-1.06-.29-1.12-.24-1.12-.24-1.13-.11-1.12-.12-1.06v-3.65l.06-.83.06-.76.11-.82.12-.82.06-.77.11-.76.06-.82.18-.76.11-.77.18-.82.06-.76.18-.83.18-.77.18-.76.18-.76.18-.77.18-.76.23-.82.24-.71.18-.77.24-.76.23-.76.29-.76.18-.76.29-.76.29-.71.29-.77.24-.76.35-.71.29-.76.29-.71.35-.76.36-.94.41-.88.41-1,.48-.88.41-.94.41-.95.41-.94.47-.88.53-.88.47-.95.41-.88.47-.88.53-.88.53-.94.47-.89.53-.82.53-.94.52-.83.48-.88.59-.88.53-.82.59-.89.59-.82.58-.82.53-.88.59-.77.59-.88.59-.76.65-.88.65-.76.65-.89.65-.76.58-.77.65-.88.71-.77.65-.82.65-.76.7-.83.65-.77.71-.76.7-.76.71-.77.65-.76.76-.71.71-.76.71-.76.76-.65.76-.76.71-.65.77-.77.82-.7.77-.71.76-.64.76-.71.76-.65.83-.65.82-.65.83-.66.83-.65.82-.65.76-.59.88-.59.88-.65.77-.59,1.05-.65.94-.59.95-.58,1-.59,1-.53,1-.59,1-.46,1.07-.53.88-.47.76-.36.89-.35.88-.42.82-.29.94-.29.83-.29.88-.24,1-.23.82-.18.88-.12.94-.23.94-.12.88-.06.95-.06.94-.06,1.12.06,1.06.06,1.12.11,1.18.18,1.07.24,1.12.29,1,.3,1.12.41.59.23.59.24.59.23.53.3.59.29.53.29.53.29.59.24.47.41.53.3.59.35.53.35.53.35.48.41.52.36.53.41-1.71,3.65-.47,1.13-.47,1.05-.54,1.18-.41,1.06-.53,1.12-.47,1.06-.53,1.18-.47,1-.47,1.06-.54,1.12-.53,1.05-.47,1.12-.53,1.07-.53,1.12-.59,1.06-.53,1.07-.48,1.12-.59,1.06-.53,1.05-.59,1.07-.53,1.07-.53,1.05-.58,1.12-.59,1.07-.58,1.06-.53,1-.59,1.06-.59,1.06-.53,1.06-.59,1.06-.58,1-.65,1.06-.59,1.06-.65,1-.59,1.06-.58,1-.59,1.06-.59,1.06-.65,1-.65,1.06-.65,1-.59,1.07-.65,1-.65,1-.7,1-.59,1-.65,1-.71,1-.65,1-.65,1.05-.65,1-.71,1-.7.95-.65,1-.65.99-.71,1-.71.95-.7,1-.71,1-.71.94-.65,1-.7.94-.76,1-.65.95-2.36,2.77-.48.59-.46.65-.54.58-.52.65-.48.59-.53.53-.53.53-.59.59-.48.59-.53.59-.59.53-.59.53-.59.53-.53.59-.53.53-.65.53-.59.48-.53.52-.59.53-.65.53-.59.41-.65.53-.59.48-.58.52-.65.48-.59.47-.65.47-.65.41-.7.48-.59.41-.65.47-.7.42-.77.53-.82.41-.88.47-.88.42-.83.41-.82.35-1,.24-.82.41-.89.18-.94.24-.94.23-.94.18-.95.12-.88.12-1.06.06h-2.01l-1.06-.06ZM293.9,0l-.76.06-.89.06-.76.11-.88.18-.83.24-.88.24-.83.29-.82.35-.76.36-.76.47-.71.41-.71.48-.71.59-.65.53-.65.58-.59.59-.58.71-.53.71-.53.71-.47.76-.53.83-.48.77-.41.82-.41.82-.48.83-.36.88-.35.83-.41.88-.3.82-.29.89-.29.88-.23.88-.24.89-.23.94-.23.88-.18.71-.12.76-.18.77-.24.71-.12.76-.24.71-.17.76-.18.76-.23.71-.24.76-.18.71-.18.77-.17.7-.29.7-.18.77-.23.76-16.02,53.02h-14.79l-.88.06-.88.06-.83.06-.88.11-.88.18-.65.06-.58.18-.53.18-.59.17-.59.41-.58.35-.77.76-.59.88-.53.89-.29,1-2.65,7.89-.41,1.24.06-.24-.18.59v-.06l-.12.36.12-.18-.12.65v1.18l.18.71.41.94.71.71.65.41.71.17.88.18.88.12.88.06h16.79l-13.73,48.6-.17.76-.24.71-.18.76-.24.71-.23.83-.18.71-.23.71-.24.76-.24.71-.23.76-.24.77-.29.7-.23.71-.23.71-.24.76-.29.77-.18.65-.35.76-.23.77-.29.65-.24.76-.29.71-.24.76-.35.71-.24.65-.29.76-.35.71-.23.71-.36.71-.24.71-.35.71-.29.71-.47,1.06-.48,1-.52,1.07-.54.94-.53,1.06-.59,1-.59.94-.59,1.01-.65.87-.65,1.01-.65.94-.71.88-.71.88-.65.88-.76.88-.76.88-.47.41-.41.47-.48.47-.46.36-.41.41-.53.41-.47.41-.47.42-.65.46-.7.47-.71.48-.71.41-.76.53-.71.41-.7.42-.77.35-.71.36-.76.47-.76.35-.71.29-.82.41-.76.3-.76.29-.76.29-.83.23-.76.36-.83.18-.76.23-.83.3-.76.17-.88.18-.76.24-.88.12-.76.17-.83.12-.82.12-.83.11-.88.06-.83.11-.88.06-1.07-.06-.94-.06-.82-.11-.95-.06-.82-.12-.82-.12-.95-.12-.83-.11-.82-.12-.88-.18-.88-.18-.83-.18-.88-.11-.83-.24-.88-.18-.83-.18-.82-.29-.94-.18-.89-.35-.82-.41-.88-.41-.94-.71-.83-.76-.65-.89-.53-1.05-.29-.65-.23-.71-.24-.71-.18-.65-.06-.76-.06-.7-.06-.71v-1.59l.06-.77.06-.82.06-.89v-.7l.12-.76.11-.76.12-.71.12-.76.06-.83.18-.76.12-.71.11-.76.12-.76.18-.71.12-.76.18-.7.12-.77.18-.76.18-.76.17-.76.18-.71.18-.76.18-.76.18-.71.24-.76.18-.65.18-.76.18-.76.24-.76.23-.71.24-.7.24-.77.18-.71.29-.7.23-.77.18-.71.3-.65.18-.65.24-.7.18-.7.29-.59.18-.71.23-.71.24-.59.23-.7.24-.66.24-.7.23-.65.24-.65.23-.71.24-.65.24-.65.23-.7.24-.65.24-.71.23-.59.29-.7.18-.65.29-.71.24-.59.23-.7.29-.71.18-.65.29-.65.24-.65.29-.7.18-.65.29-.65.24-.65.29-.71.23-.65.3-.58.23-.65.29-.71.18-.65.35-.65.23-.65.29-.71.24-.65.29-.59.23-.7.3-.65.23-.71.35-.59.18-.65.36-.7.23-.65.29-.65.29-.65.24-.65.29-.65.29-.65.29-.65.24-.65.35-.65.18-.66.36-.7.23-.59.35-.65.36-.88.35-.76.36-.83.35-.89.35-.76.48-.88.35-.76.35-.88.36-.83.41-.76.36-.88.35-.76.41-.83.35-.83.41-.82.35-.83.41-.83.41-.82.35-.83.41-.76.41-.82.35-.83.41-.83.36-.82.47-.77.35-.88.41-.76.41-.82.47-.83.36-.83.41-.76.41-.82.48-.83.41-.82.41-.76.41-.83.36-.77.47-.88.35-.77.41-.82.36-.82.47-.83.35-.83.36-.82.41-.88.35-.76.35-.82.35-.89.47-1,.24-1.06v-.88l-.18-.89-.36-1.05-.53-1-.7-.88-.71-.83-.71-.53-.71-.53-.64-.59-.77-.46-.7-.48-.83-.41-.76-.35-.76-.36-.59-.23-.65-.3-.58-.23-.59-.18-.53-.24-.59-.23-.65-.18-.58-.18-.59-.18-.65-.23-.59-.12-.59-.18-.65-.18-.59-.11-.65-.12-.59-.11-.65-.18-.65-.06-.53-.06-.65-.11-.65-.12-.65-.06-.65-.06-.59-.12h-1.3l-.58-.06h-.65l-.59-.06h-2.01l-.58.06h-.59l-.58.06-.59.06-1,.24-1,.29-.95.47-.82.59-.83.94-.7,1-.41.77-.41.83-.36.83-.35.82-.35.83-.29.82-.35.88-.23.88-2.3,7.25-.76-.71-.83-.82-.76-.71-.89-.76-.82-.71-.88-.65-.95-.65-.83-.65-.94-.65-1-.59-.94-.53-.95-.53-1-.53-1-.53-1-.47-1-.41-1.12-.35-1.06-.36-1.12-.41-1.18-.29-1.12-.36-1.12-.24-1.12-.23-1.18-.18-1.18-.24-1.12-.12-1.24-.12-1.12-.11-1.12-.06-1.18-.06-1.18-.06-1.24.06h-.65l-.65.06h-1.41l-.65.06-.71.06-.7.06h-.65l-.65.06-.71.06-.71.06-.65.06-.65.12-.71.12-.65.12h-.7l-.65.11-.71.18-.65.12-.65.12-.71.06-.65.18-.65.18-.65.12-.71.12-.65.17-.65.24-.65.06-.65.18-.71.23-.65.18-.58.18-.71.23-.65.18-.65.24-.58.16-.66.24-.7.24-.65.23-.65.24-.53.23-.65.29-.66.18-.64.29-.65.24-.59.3-.65.29-.59.23-.65.3-.59.36-.65.23-.53.36-.59.29-.65.3-.58.35-.65.3-.59.29-.59.41-.59.29-.58.41-.54.29-.58.36-.59.36-.65.41-.65.41-.65.48-.65.41-.7.47-.65.48-.66.46-.65.48-.65.47-.65.48-.71.46-.58.47-.65.47-.65.48-.65.46-.59.53-.59.53-.65.53-.66.47-.65.54-.58.53-.59.53-.58.53-.59.53-.65.53-.58.53-.59.53-.58.58-.59.53-.59.53-.59.53-.53.53-.59.58-.53.54-.59.58-.59.59-.53.58-.59.59-.53.59-.53.59-.59.59-.48.59-.58.59-.53.59-.53.65-.53.59-.48.59-.52.65-.53.65-.48.58-.53.65-.47.59-.53.65-.46.65-.48.59-.53.65-.53.65-.41.71-.47.65-.48.59-.47.65-.46.71-.41.65-.48.65-.47.65-.65.94-.59,1.01-.65.88-.58.95-.65.93-.59.95-.58,1-.53.95-.59.93-.59.95-.53.94-.59,1.06-.53.95-.53,1-.53,1-.53.93-.53,1-.47,1-.53,1-.48,1-.47,1.06-.53,1-.41,1.01-.47,1.05-.48,1-.41,1.01-.47,1.06-.41,1-.41,1.06-.41,1.06-.41,1-.36,1.06-.41.88-.29.95-.35.89-.3.88-.29.88-.29.94-.23.89-.3.93-.23.89-.29.93-.18.89-.29.94-.24.95-.18.88-.24.95-.11.94-.24.94-.12.89-.18.94-.11,1-.18.89-.12.93-.11.95-.12.94-.12,1-.05.89-.06.94-.12.95-.06.94v1.94l-.06.94v2.01l.06,1v2l.06,1,.12,1,.06,1,.11.83.12.94.06.82.11.95.12.88.18.89.11.88.12.88-.71.47-.83.36-.7.41-.76.36-.89.35-.7.3-.83.41-.82.29-.76.36-.83.24-.82.35-.83.23-.83.24-.83.23-.82.24-.88.18-1,.29-.94.18-1,.18-1,.3-1,.12-1,.18-1,.23-1,.12-1.05.12-1.01.11-1,.12-1,.12-1,.06-1,.12-1.06.05-1,.06L-.47,227.83v.03H.34l.71-.12h.82l.76-.06h1.47l.82-.06.83-.06.71-.06.83-.06.76-.06.76-.06.71-.12.82-.06.77-.06.76-.11.76-.06.76-.12.82-.12.71-.06.77-.06.76-.18.76-.11.76-.12.76-.12.77-.12.76-.18.76-.17.76-.06.76-.18.71-.17.83-.12.58-.18.59-.12.59-.18.59-.06.65-.23.58-.18.65-.12.59-.18.59-.24.59-.12.58-.18.59-.24.58-.18.59-.18.58-.23.59-.24.58-.18.59-.17.59-.3.53-.23.59-.18.58-.3.59-.23.53-.24.59-.23.58-.29.53-.29.58-.23.59-.24.53-.35.53-.24.59-.35.53.7.59.65.53.59.59.64.65.6.65.53.65.47.65.53.7.48.77.47.65.35.76.41.83.42.7.35.83.24.76.35,1,.29,1.01.41,1,.18,1,.29,1.01.23,1,.24,1.01.18,1,.24,1,.12,1.06.11,1.07.12,1,.06,1.06.06,1,.12h2.71l.65-.12h.65l.65-.06h.59l.65-.06.65-.06.66-.06h.65l.58-.11.59-.06.65-.11.65-.18.65-.06.58-.06.59-.11.58-.18.65-.12.66-.11.58-.18.65-.18.59-.06.58-.18.59-.23.65-.12.58-.18.59-.3.59-.11.65-.24.52-.29.59-.12.58-.24.59-.18.58-.29.59-.23.59-.29.58-.24.53-.24.59-.29.59-.29.48-.29.58-.3.53-.23.53-.36.59-.24.53-.36.53-.35.59-.29.53-.35.53-.36.46-.29.59-.41.53-.3.47-.41.53-.36.48-.41.52-.35.48-.41.53-.41.53-.35.47-.41.53-.41.41-.42.53-.47.48-.35.47-.41.47-.48.41-.41.53-.41.48-.35.46-.47.47-.48.59-.53.53-.58.59-.59.52-.58.59-.65.53-.59.59-.58.53-.65.59-.53.53-.65.53-.59.59-.58.53-.65.53-.65.53-.59.53-.59.53-.65.53-.65.53-.66.53-.65.53-.58.48-.65.52-.65.48-.59.53-.65.53-.65.47-.65.53-.65.53-.65.48-.65.53-.66.47-.7.47-.65.48-.65.46-.65.48-.7.41-.65.54-.65.41-.7.53-.71.47-.65.41-.65.41-.71.48-.71.46-.65.41-.71.48-.7.41-.7.41-.65.41-.71.47-.71.47-.65.41-.76.35-.71.48-.65.41-.82.41-.71.36-.65.41-.77.41-.7.41-.65.36-.76.41-.71.41-.76-.24.71-.29.58-.18.71-.24.65-.23.71-.24.65-.23.65-.18.71-.29.65-.12.65-.24.65-.23.71-.18.65-.29.65-.11.71-.24.65-.18.71-.24.65-.23.65-.12.71-.23.65-.24.64-.11.71-.23.71-.18.59-.18.71-.18.7-.18.71-.18.59-.23.7-.12.71-.17.71-.24.82-.18.83-.23.88-.18.88-.12.83-.17.94-.18.89-.11.83-.06.88-.12.95-.12.82-.06.95-.12.88-.06.83v3.59l.06.82.12.89.11,1.18.24,1.18.29,1.18.35,1.18.41,1.05.52,1.07.59,1,.65,1,.7.88.71.88.88.89.82.76.95.77,1,.71,1,.53,1.06.59,1,.47,1,.46,1,.42,1.01.35,1.05.35,1,.3,1.12.23,1.06.35.88.18.83.11.82.24.94.12.82.12.83.12.94.23.82.12.88.06.89.12.82.12.88.11.88.12.88.06.88.12.88.06.82.12.88.06.88.06.83.06h1.76l.88.06.89.12h1.77l.88.06h3.53l.88-.06h2.88l.83-.12.88-.06h.77l.88-.06.82-.06.88-.11.77-.12.82-.12.83-.11.83-.11.82-.12.83-.18.82-.12.83-.24.83-.17.76-.12.82-.18.82-.29.83-.12.83-.24.76-.23.76-.24.83-.24.82-.23.71-.29.88-.29.76-.18.76-.29.76-.29.82-.35.77-.3.76-.35.83-.29.71-.29.82-.42.77-.29.76-.42.77-.35.82-.41.71-.29.76-.48.76-.41.76-.35.77-.41.71-.36.7-.53.76-.41.71-.41.76-.47.71-.48.7-.41.71-.48.65-.59.71-.41.7-.53.71-.46.65-.54.71-.47.71-.53.65-.53.65-.58.71-.53.65-.54.65-.53.59.95.7.94.76.83.71.88.47.47.47.53.53.41.47.47.53.47.53.41.53.47.53.42.53.46.53.41.59.36.53.41.53.47.58.36.59.35.52.36.65.41.59.29.59.36.58.29.65.36.53.29.65.35.65.29.65.18.58.36.65.23.59.3.7.17.65.24.65.24.65.23,1.06.29,1.12.41,1.18.24,1.12.29,1.12.36,1.12.29,1.12.24,1.12.29,1.12.23,1.12.18,1.12.29,1.18.24,1.17.12,1.12.29,1.12.18,1.12.12,1.17.12,1.18.18,1.12.11,1.18.12,1.12.12,1.18.11,1.12.06,1.18.06,1.18.06h1.18l1.12.12,1.12.06h3.54l1.12-.06h4.83l.83-.12h.76l.76-.06h1.59l.76-.06.71-.06.83-.06.76-.06.76-.06.76-.06.82-.12.71-.06.76-.06.77-.11.82-.06.77-.12.71-.12.82-.06.71-.06.82-.18.71-.11.83-.12.71-.12.76-.12.83-.18.71-.17.83-.06.71-.18.82-.17.71-.12.59-.18.59-.12.65-.18.59-.06.65-.23.59-.18.53-.12.65-.18.58-.24.59-.12.59-.18.65-.24.59-.18.53-.18.59-.23.58-.24.59-.18.58-.17.59-.3.59-.23.59-.18.53-.3.58-.23.59-.24.53-.23.59-.29.53-.29.53-.23.59-.24.58-.35.53-.24.59-.35.53.7.52.65.65.59.59.64.65.54.59.59.65.47.7.53.71.48.71.47.71.35.71.41.82.42.83.35.7.24.83.35,1,.29.94.41,1,.18,1,.29,1,.23,1.01.24,1,.18,1.06.24,1,.12,1.06.11,1,.12,1.07.06,1,.06,1.06.12h2.71l.65-.12h.59l.65-.06h.65l.65-.06.59-.06.58-.06h.65l.65-.11.65-.06.65-.11.53-.18.65-.06.65-.06.65-.11.64-.18.59-.12.59-.11.59-.18.65-.18.65-.06.59-.18.65-.23.53-.12.58-.18.59-.3.59-.11.65-.24.59-.29.59-.12.58-.24.53-.18.65-.29.53-.23.59-.29.59-.24.53-.24.53-.29.59-.29.58-.29.59-.3.53-.23.59-.36.46-.24.59-.36.53-.35.59-.29.53-.35.47-.36.53-.29.53-.41.59-.3.41-.41.53-.36.53-.41.53-.35.53-.41.41-.41.53-.35.47-.41.47-.41.47-.42.53-.47.53-.35.41-.41.53-.48.47-.41.41-.41.48-.35.47-.47.41-.48.58-.53.59-.58.58-.59.59-.58.59-.65.53-.59.52-.58.59-.65.58-.53.54-.65.58-.59.47-.58.59-.65.53-.65.53-.59.59-.59.48-.65.53-.65.53-.66.53-.65.47-.58.53-.65.53-.65.53-.59.47-.65.53-.65.47-.65.53-.65.41-.65.53-.65.47-.66.53-.7.41-.65.53-.65.48-.65.47-.7.46-.65.53-.65.48-.7.41-.71.48-.65.35-.65.53-.71.47-.71.48-.65.41-.71.41-.7.41-.7.47-.65.47-.71.36-.71.47-.65.41-.76.41-.71.41-.65.41-.82.41-.71.41-.65.41-.77.41-.7.29-.65.47-.76.41-.71.36-.76-.24.71-.24.58-.23.71-.18.65-.29.71-.18.65-.24.65-.23.71-.24.65-.18.65-.23.65-.24.71-.18.65-.18.65-.29.71-.12.65-.23.71-.24.65-.17.65-.18.71-.23.65-.18.64-.18.71-.18.71-.23.59-.18.71-.12.7-.29.71-.18.59-.11.7-.18.71-.24.71-.18.82-.18.83-.17.88-.18.88-.18.83-.18.94-.06.89-.23.83-.12.88-.06.95-.06.82-.06.95-.12.88-.06.83v.94l-.06.82v.95l.06.88.06.82.12.89.06,1.18.23,1.18.29,1.18.41,1.18.41,1.05.53,1.07.59,1,.65,1,.65.88.76.88.76.89.94.76.95.77.88.71,1.07.53,1.06.59,1,.47,1,.46,1.06.42,1,.35,1.06.35,1.01.3,1.12.23,1,.35.88.18.82.11.88.24.83.12.88.12.88.12.83.23.95.12.82.06.88.12.88.12.88.11.82.12.88.06.88.12.88.06.88.12.83.06.88.06.88.06h1.83l.82.06.83.12h1.82l.83.06h3.54l.88-.06h2.95l6.36-21.92-1.12-.11-.95-.12-.82-.05-.88-.12-.95-.06-.82-.12-.83-.12-.95-.17-.88-.12-.83-.18-.89-.12-.88-.18-.88-.12-.82-.3-.83-.18-.93-.18-.83-.18-.88-.29-1-.35-.82-.41-.83-.41-1-.71-.77-.7-.65-.88-.58-.94-.23-.71-.24-.65-.24-.83-.18-.71-.12-.71-.06-.76-.06-.71v-1.59l.06-.77v-.82l.11-.89.06-.7.11-.76.12-.76.05-.71.12-.76.11-.83.12-.76.11-.71.12-.76.18-.76.18-.71.06-.76.17-.7.12-.77.18-.76.18-.76.18-.76.18-.71.18-.76.17-.76.24-.71.17-.76.18-.65.18-.76.29-.76.18-.76.18-.71.24-.7.23-.77.24-.71.17-.7.29-.77.24-.71.18-.65.29-.65.18-.7.29-.7.18-.59.17-.71.24-.71.24-.59.24-.7.17-.66.29-.7.24-.65.29-.65.23-.71.18-.65.29-.65.18-.7.24-.65.23-.71.29-.59.18-.7.29-.65.18-.71.29-.59.29-.7.18-.71.35-.65.18-.65.29-.65.23-.7.24-.65.24-.65.29-.65.23-.71.3-.65.23-.58.23-.65.3-.71.23-.65.29-.65.29-.65.18-.71.35-.65.23-.59.24-.7.29-.65.29-.71.24-.59.29-.65.3-.7.29-.65.24-.65.29-.65.23-.65.36-.65.24-.65.23-.65.35-.65.24-.65.35-.66.23-.7.36-.59.23-.65.36-.88.36-.76.41-.83.29-.89.47-.76.29-.83.36-.82.41-.88.35-.83.36-.76.41-.88.41-.76.36-.83.35-.83.41-.82.41-.83.35-.83.41-.82.41-.83.36-.76.41-.82.41-.83.41-.83.41-.82.35-.77.41-.88.41-.76.41-.82.35-.83.41-.83.47-.76.41-.82.41-.76.41-.82.36-.76.47-.83.35-.77.41-.76.35-.83.41-.83.41-.77.29-.82.47-.76.29-.82.41-.77.35-.82.41-.83.29-.83.3-.58.17-.59.18-.58.24-.65v-.82l-.18-.83-.35-1.12-.53-1-.65-.94-.83-.83-.65-.53-.71-.53-.7-.59-.71-.46-.76-.48-.76-.41-.83-.35-.76-.36-.59-.23-.53-.3-.58-.23-.65-.18-.59-.24-.58-.23-.65-.18-.59-.18-.59-.18-.59-.23-.59-.12-.65-.18-.59-.18-.65-.11-.59-.12-.64-.11-.59-.18-.65-.06-.65-.06-.65-.11-.59-.12-.65-.06-.65-.06-.59-.12h-1.24l-.65-.06h-.65l-.65-.06h-1.89l-.58.06h-.65l-.59.06-.65.06-.95.24-.94.29-1,.47-.83.59-.83.94-.65,1-.47.77-.41.83-.36.83-.41.82-.24.83-.41.82-.24.88-.23.88-2.3,7.25-.82-.71-.76-.82-.83-.71-.88-.76-.88-.71-.83-.65-.82-.65-.94-.65-.95-.65-.94-.59-.94-.53-.94-.53-1.01-.53-1-.53-1.06-.47-1-.41-1.12-.35-1.12-.36-1.06-.41-1.12-.29-1.18-.36-1.05-.24-1.18-.23-1.18-.18-1.12-.24-1.12-.12-1.24-.12-1.18-.11-1.12-.06-1.23-.06-1.12-.06-1.12.06h-.71l-.71.06h-1.35l-.77.06-.65.06-.59.06h-.71l-.76.06-.65.06-.71.06-.59.06-.71.12-.71.12-.7.12h-.59l-.71.11-.71.18-.58.12-.71.12-.59.06-.7.18-.71.18-.65.12-.65.12-.65.17-.65.24-.71.06-.65.18-.65.23-.65.18-.65.18-.65.23-.65.18-.65.24-.65.16-.65.24-.65.24-.65.23-.65.24-.65.23-.65.29-.58.18-.65.29-.59.24-.58.3-.65.29-.65.23-.58.3-.59.36-.65.23-.65.36-.59.29-.65.3-.53.35-.53.3-.65.29-.58.41-.59.29-.65.41-.58.29-.59.36-.52.36-.59.41-.65.41-.65.48-.71.41-.71.47-.58.48-.7.46-.65.48-.65.47-.59.48-.71.46-.65.47-.65.47-.65.48-.59.46-.65.53-.65.53-.65.53-.58.47-.53.54-.65.53-.65.53-.59.53-.65.53-.58.53-.59.53-.53.53-.59.58-.58.53-.59.53-.58.53-.59.53-.59.58-.59.54-.53.58-.59.59-.53.58-.53.59-.59.59-.53.59-.53.59-.53.59-.54.59-.52.59-.59.65-.47.59-.53.59-.53.65-.53.65-.48.58-.53.65-.47.59-.53.65-.48.65-.47.59-.46.65-.48.65-.53.71-.41.65-.47.59-.53.65-.47.71-.47.65-.41.65-.41.65-.65.94-.65,1.01-.65.88-.59.95-.59.93-.59.95-.59,1-.59.95-.59.93-.58.95-.53.94-.59,1.06-.53.95-.53,1-.53,1-.53.93-.53,1-.47,1-.48,1-.53,1-.47,1.06-.47,1-.47,1.01-.42,1.05-.46,1-.47,1.01-.41,1.06-.41,1-.48,1.06-.35,1.06-.47,1-.36,1.06-.35.88-.35.95-.29.89-.29.88-.29.88-.29.94-.29.89-.29.93-.24.89-.23.93-.29.89-.18.94-.24.95-.24.88-.18.95-.18.94-.18.94-.18.89-.18.94-.18,1-.06.89-.18.93-.12.95-.11.94-.06,1-.06.89-.12.94-.06.95-.06.94-.06,1-.06.95v3.95l.12,1.05v.95l.06,1,.12,1,.06,1,.06.83.11.94.12.82.12.95.12.88.11.89.18.88.12.88-.77.47-.71.36-.82.41-.77.36-.82.35-.76.3-.83.41-.76.29-.83.36-.76.24-.89.35-.76.23-.88.24-.83.23-.82.24-.83.18-1,.29-1,.18-1,.18-1,.3-1,.12-1,.18-1,.23-1,.12-1,.12-1,.11-1,.12-1,.12-1.05.06-1.01.12-1,.05-1.18.06-1-.06-.71-.05-.76-.06-.71-.06-.76-.06-.76-.06-.71-.06-.71-.12-.7-.06-.77-.11-.76-.12h-.7l-.77-.18-.7-.12-.71-.12-.76-.11-.95-.11-.94-.24-.95-.18-1-.18-.88-.29-.94-.23-.88-.29-1-.29-.82-.29-.95-.35-.88-.29-.89-.48-.88-.35-.88-.41-.88-.41-.76-.42-.65-.47-.59-.29-.59-.42-.53-.41-.76-.53-.71-.65-.7-.71-.65-.71-.59-.76-.53-.77-.53-.76-.47-.83-.36-.82-.35-.88-.29-.95-.24-.88-.18-.95-.12-.88-.11-1.01v-1.65l.06-.65.06-.65.06-.71.06-.65.06-.65.06-.71.06-.65.12-.71.06-.59.12-.65.11-.7.12-.65.12-.65.18-.65.12-.59.23-1,.18-.93.23-1.01.24-1,.23-.95.18-.93.3-.95.23-.94.29-1,.24-.94.29-.94.23-.95.35-.94.24-1,.29-.94.29-.95,16.09-52.84h26.33l.76-.06.71-.06.77-.12.76-.06.71-.12.83-.11.76-.18.83-.3.76-.29.65-.36.59-.41.53-.53.46-.47.41-.59.41-.65.29-.71.24-.7,2.77-7.89.17-.65.12-.59.06-.82v-.77l-.12-.82-.35-.76-.53-.66-.37-.37-.1-.04h.06l-.23-.11.18.11-.65-.41-.47-.12-1-.29-.88-.12-.94-.06h-28.45l18.79-55.31.35-1.01.41-1,.35-1,.36-1,.41-1,.35-.95.36-1,.35-.95.29-.59.23-.59.24-.65.23-.53.23-.65.24-.59.18-.59.24-.59.23-.59.18-.65.18-.59.18-.65.18-.59.24-.58.11-.59.18-.65.17-.76.12-.65.06-.83.06-.71v-.65l-.12-.65-.06-.59-.23-.59-.24-.65-.35-.53-.36-.53-.35-.53-.48-.41-.53-.41-.47-.41-.59-.41-.53-.41-.53-.29-.59-.36-.59-.17-1.07-.48-1.12-.41-.94-.24-.88-.23-.89-.18-.88-.24-.95-.11-.93-.18-.89-.18-.94-.12-.94-.12-.89-.05-.93-.06-.89-.06-.93-.06h-3.6Z"/>
  <polygon class="cls-1" points="499.4 77.19 499.69 77.49 500.11 78.02 500.4 78.55 500.75 79.08 500.99 79.61 501.16 80.26 501.34 80.85 501.4 81.49 501.46 82.14 501.16 82.97 500.87 83.85 500.51 84.74 500.16 85.56 499.75 86.44 499.4 87.26 498.98 88.1 498.57 88.97 498.16 89.8 497.75 90.69 497.39 91.51 496.98 92.33 496.57 93.22 496.16 94.05 495.69 94.93 495.33 95.75 494.86 96.58 494.39 97.4 493.97 98.16 493.57 98.99 493.15 99.76 492.74 100.64 492.33 101.41 491.97 102.23 491.56 103.05 491.21 103.88 490.74 104.65 490.33 105.53 489.97 106.3 489.56 107.12 489.15 107.94 488.73 108.77 488.38 109.59 488.03 110.36 487.55 111.25 487.2 112.01 486.85 112.9 486.43 113.66 486.08 114.48 485.67 115.31 485.32 116.13 484.9 116.96 484.55 117.78 484.19 118.66 483.84 119.43 483.44 120.26 483.14 121.08 482.73 121.96 482.31 122.79 482.02 123.61 481.72 124.21 481.43 124.85 481.14 125.56 480.84 126.21 480.55 126.79 480.25 127.5 480.02 128.15 479.72 128.8 479.43 129.45 479.13 130.04 478.9 130.74 478.6 131.39 478.36 132.04 478.01 132.69 477.78 133.33 477.48 133.98 477.25 134.69 476.89 135.28 476.66 135.99 476.42 136.63 476.13 137.28 475.89 137.93 475.66 138.58 475.3 139.28 475.12 139.93 474.77 140.59 474.6 141.23 474.3 141.88 474.06 142.52 473.77 143.18 473.54 143.82 473.24 144.53 473.07 145.18 472.71 145.82 472.53 146.47 472.3 147.18 472.01 147.83 471.77 148.54 471.53 149.18 471.24 149.83 471 150.54 470.77 151.19 470.53 151.83 470.3 152.48 470 153.19 469.83 153.83 469.59 154.49 469.36 155.19 469.12 155.84 468.88 156.49 468.59 157.19 468.35 157.84 468.11 158.55 467.88 159.14 467.7 159.85 467.41 160.49 467.23 161.2 467 161.85 466.82 162.5 466.58 163.21 466.35 163.85 466.11 164.5 465.88 165.21 465.7 165.91 465.53 166.56 465.23 167.15 465.11 167.79 464.94 168.44 464.7 169.04 464.52 169.68 464.35 170.27 464.17 170.92 463.99 171.57 463.81 172.22 463.64 172.87 463.52 173.45 463.28 174.1 463.11 174.75 462.99 175.4 462.87 176.04 462.52 177.05 462.28 178.11 461.99 179.17 461.81 180.23 461.58 181.29 461.34 182.29 461.16 183.4 460.99 184.41 460.87 185.53 460.75 186.53 460.57 187.65 460.45 188.71 460.4 189.77 460.34 190.89 460.28 191.89 460.22 193.01 460.22 194.07 460.34 195.07 460.45 196.13 460.75 197.07 460.99 197.84 461.22 198.55 461.58 199.25 461.99 199.9 462.52 200.49 463.05 201.08 463.64 201.61 464.28 202.08 463.93 201.79 464.64 202.26 465.05 202.49 465.7 202.68 466.29 202.96 466.94 203.15 467.64 203.32 468.29 203.62 468.94 203.73 469.59 203.85 470.3 203.97 470 203.26 469.77 202.56 469.53 201.85 469.36 201.08 469.24 200.37 469.12 199.6 469.06 198.9 469.06 198.02 469.06 197.25 469.12 196.43 469.18 195.66 469.24 194.84 469.29 194.07 469.41 193.24 469.53 192.54 469.65 191.77 469.71 191.01 469.83 190.3 470 189.47 470.06 188.76 470.24 188.01 470.36 187.24 470.53 186.47 470.59 185.71 470.77 185 471 184.24 471.06 183.53 471.24 182.76 471.42 181.99 471.59 181.29 471.77 180.52 471.94 179.76 472.12 178.99 472.36 178.28 472.6 177.57 472.71 176.81 473 176.04 473.19 175.34 473.36 174.63 473.66 173.92 473.83 173.16 474.06 172.45 474.3 171.74 474.53 170.98 474.72 170.27 475.01 169.62 475.24 168.91 475.42 168.26 475.71 167.62 475.89 166.91 476.13 166.26 476.36 165.56 476.54 164.9 476.77 164.26 477.07 163.56 477.3 162.91 477.48 162.26 477.78 161.61 477.95 160.9 478.19 160.2 478.48 159.61 478.66 158.9 478.9 158.25 479.19 157.55 479.43 156.9 479.61 156.25 479.9 155.54 480.13 154.9 480.43 154.25 480.6 153.6 480.84 152.89 481.14 152.25 481.37 151.6 481.67 150.95 481.9 150.25 482.14 149.59 482.43 148.94 482.67 148.3 482.9 147.59 483.2 146.94 483.44 146.29 483.67 145.65 483.96 145 484.26 144.29 484.5 143.7 484.78 142.99 484.97 142.35 485.32 141.7 485.55 141.06 485.85 140.4 486.08 139.7 486.38 139.05 486.67 138.46 486.91 137.75 487.2 137.1 487.5 136.46 487.73 135.81 488.03 135.22 488.26 134.51 488.56 133.87 488.85 133.22 489.15 132.57 489.44 131.92 489.68 131.27 490.03 130.57 490.27 129.97 490.62 129.33 490.85 128.68 491.21 127.8 491.62 126.97 491.97 126.21 492.27 125.32 492.74 124.56 493.03 123.67 493.45 122.85 493.8 122.02 494.21 121.2 494.56 120.43 494.92 119.55 495.33 118.78 495.69 117.9 496.1 117.13 496.45 116.26 496.86 115.49 497.27 114.6 497.57 113.84 498.04 112.95 498.39 112.19 498.81 111.42 499.16 110.54 499.63 109.77 500.04 108.95 500.4 108.18 500.81 107.29 501.22 106.53 501.64 105.64 502.05 104.88 502.4 104.06 502.87 103.29 503.28 102.46 503.7 101.64 504.11 100.88 504.46 100.11 504.93 99.28 505.29 98.52 505.7 97.69 506.05 96.92 506.47 96.1 506.88 95.34 507.23 94.52 507.58 93.75 508 92.92 508.35 92.1 508.71 91.27 509.11 90.51 509.47 89.68 509.7 89.1 509.88 88.5 510.06 87.92 510.24 87.26 510.24 86.44 510.18 85.61 509.77 84.5 509.23 83.49 508.59 82.55 507.77 81.73 507.11 81.2 506.41 80.61 505.7 80.08 504.93 79.55 504.23 79.14 503.46 78.73 502.69 78.31 501.81 78.02 501.16 77.66 500.46 77.43 499.75 77.08 499.1 76.84 498.75 76.49 499.4 77.19"/>
  <polygon class="cls-2" points="427.18 200.24 426.65 200.95 426.18 201.54 425.71 202.19 425.24 202.83 424.7 203.48 424.18 204.07 423.64 204.71 423.17 205.36 422.64 206.02 422.11 206.54 421.58 207.19 421.05 207.84 420.58 208.42 419.99 209.01 419.46 209.6 418.87 210.19 418.4 210.84 417.81 211.37 417.22 211.96 416.69 212.55 416.16 213.14 415.58 213.73 414.99 214.26 414.4 214.84 413.81 215.38 413.22 215.97 412.63 216.5 412.04 217.03 411.39 217.62 410.86 218.15 410.22 218.62 409.63 219.15 409.09 219.62 408.68 220.03 408.21 220.44 407.68 220.86 407.21 221.21 406.68 221.62 406.21 222.03 405.68 222.45 405.21 222.8 404.67 223.21 404.15 223.56 403.68 223.86 403.09 224.21 402.55 224.57 402.03 224.92 401.49 225.28 400.97 225.63 400.44 225.92 399.85 226.22 399.31 226.51 398.79 226.81 398.25 227.1 397.66 227.46 397.08 227.75 396.49 227.98 396.02 228.28 395.43 228.51 394.84 228.75 394.25 228.99 393.72 229.28 393.13 229.51 392.48 229.75 391.89 229.99 391.36 230.22 390.77 230.4 390.12 230.64 389.53 230.81 389.01 230.99 388.36 231.17 387.77 231.34 387.12 231.52 386.59 231.7 385.94 231.87 385.35 231.99 384.71 232.17 384.12 232.28 383.47 232.46 382.88 232.58 382.23 232.7 381.64 232.82 380.99 232.94 380.34 232.99 379.75 233.11 379.16 233.17 378.52 233.29 377.87 233.34 377.23 233.34 376.64 233.41 375.99 233.46 375.34 233.46 374.69 233.52 374.1 233.52 373.4 233.58 372.81 233.58 371.74 233.58 370.75 233.58 369.69 233.52 368.63 233.46 367.62 233.41 366.62 233.34 365.56 233.23 364.56 233.05 363.5 232.87 362.5 232.64 361.49 232.46 360.49 232.17 359.49 231.93 358.49 231.64 357.49 231.28 356.55 230.93 355.42 230.57 354.31 230.05 353.25 229.51 352.19 228.92 351.13 228.34 350.18 227.63 349.24 226.92 348.3 226.1 349.24 226.45 350.18 226.69 351.13 226.99 352.13 227.22 353.07 227.46 354.07 227.69 355.02 227.87 356.01 228.04 357.02 228.17 357.96 228.28 358.96 228.4 359.96 228.45 360.9 228.45 361.97 228.51 362.91 228.51 363.91 228.51 364.56 228.51 365.2 228.45 365.8 228.45 366.44 228.45 367.09 228.45 367.74 228.4 368.33 228.34 368.98 228.28 369.62 228.22 370.27 228.1 370.86 228.04 371.51 227.93 372.1 227.81 372.75 227.75 373.4 227.63 373.98 227.51 374.63 227.34 375.22 227.22 375.87 227.1 376.46 226.92 377.05 226.75 377.7 226.63 378.29 226.45 378.93 226.28 379.47 226.1 380.05 225.98 380.7 225.75 381.29 225.57 381.88 225.34 382.47 225.1 383.06 224.92 383.65 224.68 384.23 224.45 384.82 224.16 385.41 223.92 386 223.68 386.53 223.45 387.06 223.21 387.65 222.92 388.24 222.62 388.83 222.33 389.36 222.03 389.89 221.74 390.47 221.45 391.01 221.15 391.6 220.86 392.07 220.51 392.66 220.2 393.19 219.85 393.72 219.5 394.19 219.15 394.72 218.79 395.31 218.5 395.78 218.09 396.31 217.73 396.78 217.33 397.31 216.97 397.84 216.56 398.31 216.2 398.84 215.79 399.26 215.38 399.79 214.97 400.26 214.55 400.79 214.08 401.32 213.67 401.79 213.2 402.32 212.67 402.85 212.19 403.38 211.67 403.85 211.25 404.38 210.73 404.91 210.19 405.44 209.72 405.97 209.19 406.44 208.72 406.97 208.19 407.44 207.67 407.97 207.13 408.5 206.6 408.92 206.19 409.45 205.6 409.92 205.07 410.45 204.54 410.92 204.01 411.39 203.54 411.86 203.01 412.33 202.42 412.8 201.89 413.34 201.42 413.74 200.83 414.22 200.3 414.69 199.7 415.16 199.18 415.63 198.65 416.1 198.12 416.52 197.52 416.93 197 417.4 196.47 417.87 195.87 418.34 195.29 418.7 194.76 419.17 194.17 419.58 193.64 420.05 193.05 420.46 192.46 420.94 191.87 421.29 191.35 421.7 190.75 422.11 190.17 422.58 189.57 423 188.99 423.41 188.4 423.76 187.81 424.18 187.22 424.58 186.63 425 186.04 425.35 185.45 425.76 184.8 426.12 184.28 426.53 183.62 426.88 183.04 427.3 182.39 427.65 181.86 428.06 181.21 428.41 180.56 428.77 179.91 429.12 179.38 429.47 178.73 429.89 178.09 430.3 177.44 430.65 176.85 431.01 176.26 431.36 175.61 431.77 174.97 432.13 174.38 432.54 173.73 432.89 173.08 433.3 172.43 433.6 171.84 434.01 171.19 434.37 170.55 434.72 169.9 435.07 169.31 435.49 168.6 435.25 169.31 435.02 169.96 434.78 170.61 434.55 171.26 434.31 171.96 434.07 172.61 433.84 173.26 433.6 173.96 433.37 174.55 433.25 175.26 433.01 175.91 432.78 176.62 432.54 177.26 432.36 177.91 432.13 178.62 431.95 179.27 431.72 179.91 431.54 180.62 431.3 181.27 431.13 181.92 430.89 182.63 430.77 183.27 430.6 183.98 430.36 184.63 430.18 185.27 430.01 185.98 429.83 186.68 429.59 187.34 429.42 187.99 429.24 188.69 429.07 189.34 428.88 190.04 428.71 190.69 428.6 191.35 428.48 191.93 428.36 192.58 428.24 193.23 428.13 193.87 428.01 194.46 427.89 195.12 427.77 195.76 427.65 196.41 427.59 197 427.47 197.7 427.35 198.35 427.3 199 427.24 199.59 427.18 200.24"/>
  <polygon class="cls-2" points="452.03 106.44 450.97 106.09 449.97 105.79 448.85 105.49 447.85 105.32 446.79 105.14 445.73 105.02 444.61 104.96 443.49 104.9 442.61 104.96 441.66 105.02 440.78 105.14 439.84 105.26 438.9 105.38 438.01 105.55 437.13 105.79 436.19 106.02 435.36 106.26 434.42 106.49 433.59 106.79 432.71 107.15 431.83 107.5 431.01 107.85 430.18 108.26 429.29 108.68 428.29 109.15 427.29 109.73 426.29 110.27 425.29 110.8 424.23 111.38 423.29 111.98 422.28 112.62 421.34 113.27 420.52 113.86 419.63 114.45 418.87 115.04 417.98 115.68 417.16 116.27 416.39 116.93 415.51 117.57 414.69 118.22 413.92 118.86 413.15 119.57 412.33 120.22 411.56 120.93 410.79 121.64 410.03 122.34 409.21 122.99 408.5 123.7 407.73 124.47 406.96 125.17 406.32 125.93 405.55 126.64 404.79 127.35 404.14 128.17 403.43 128.88 402.73 129.7 402.02 130.41 401.37 131.24 400.66 132 399.96 132.82 399.31 133.59 398.66 134.42 398.01 135.24 397.37 136.01 396.78 136.83 396.12 137.66 395.48 138.48 394.89 139.31 394.3 140.13 393.71 140.9 393.06 141.78 392.48 142.61 391.89 143.43 391.36 144.32 390.83 145.14 390.24 146.02 389.65 146.91 389.18 147.73 388.65 148.62 388.12 149.5 387.59 150.38 387.05 151.27 386.58 152.15 386.11 153.04 385.58 153.92 385.11 154.86 384.64 155.74 384.23 156.68 383.76 157.57 383.29 158.51 382.81 159.4 382.4 160.34 382.04 161.28 381.64 162.23 381.17 163.17 380.81 164.11 380.46 164.81 380.11 165.58 379.81 166.29 379.57 167.05 379.28 167.82 378.98 168.53 378.69 169.3 378.46 170.06 378.16 170.77 377.93 171.53 377.69 172.3 377.45 173.06 377.22 173.83 377.04 174.59 376.87 175.36 376.63 176.13 376.45 176.95 376.28 177.65 376.1 178.48 375.92 179.25 375.74 180.07 375.63 180.78 375.51 181.61 375.39 182.43 375.27 183.14 375.15 183.97 375.04 184.79 374.92 185.55 374.86 186.32 374.74 187.14 374.74 187.91 374.68 188.73 374.63 190.03 374.63 191.21 374.68 192.32 374.74 193.5 374.92 194.62 375.1 195.75 375.33 196.86 375.63 197.98 375.92 199.04 376.28 199.87 376.69 200.69 375.86 200.69 375.1 200.57 374.27 200.46 373.51 200.22 372.74 199.98 372.03 199.69 371.32 199.34 370.62 198.92 370.03 198.45 369.5 197.98 369.03 197.39 368.56 196.86 368.15 196.15 367.73 195.45 367.38 194.74 367.09 193.97 366.79 193.21 366.55 192.45 366.38 191.68 366.2 190.85 366.14 190.09 366.03 189.44 365.97 188.67 365.91 187.91 365.85 187.2 365.79 186.49 365.79 185.73 365.79 184.96 365.79 184.26 365.85 183.43 365.91 182.66 365.97 181.96 366.03 181.14 366.08 180.37 366.14 179.66 366.26 178.83 366.38 178.07 366.5 177.37 366.62 176.6 366.73 175.83 366.85 175.06 367.03 174.31 367.2 173.53 367.32 172.77 367.5 172.06 367.68 171.3 367.85 170.53 368.09 169.82 368.26 169.06 368.5 168.35 368.68 167.59 368.91 166.88 369.15 166.11 369.44 165.4 369.68 164.7 369.91 163.93 370.21 163.22 370.5 162.51 370.8 161.76 371.09 161.1 371.91 159.04 372.33 158.04 372.74 157.15 373.15 156.21 373.56 155.27 373.98 154.33 374.45 153.39 374.86 152.5 375.33 151.62 375.8 150.68 376.28 149.74 376.75 148.85 377.16 147.97 377.69 147.09 378.22 146.2 378.75 145.31 379.28 144.43 379.75 143.55 380.28 142.67 380.81 141.84 381.4 140.9 381.93 140.08 382.46 139.25 383.05 138.37 383.64 137.54 384.23 136.72 384.76 135.89 385.4 135.01 385.99 134.24 386.64 133.42 387.23 132.59 387.88 131.77 388.53 131 389.18 130.17 389.77 129.35 390.47 128.52 391.12 127.7 391.83 126.94 392.48 126.12 393.13 125.34 393.83 124.58 394.54 123.82 395.25 123.05 395.95 122.34 396.71 121.58 397.37 120.81 398.13 120.1 398.9 119.4 399.6 118.69 400.37 117.92 401.13 117.21 401.9 116.51 402.67 115.86 403.49 115.16 404.2 114.51 405.03 113.8 405.85 113.16 406.61 112.5 407.44 111.85 408.32 111.27 409.09 110.62 409.91 109.97 410.79 109.38 411.62 108.79 412.51 108.15 413.45 107.55 414.39 106.91 415.39 106.32 416.39 105.67 417.33 105.14 418.39 104.61 419.4 104.08 420.45 103.61 421.46 103.14 422.52 102.66 423.64 102.26 424.64 101.84 425.76 101.49 426.82 101.13 427.94 100.78 429 100.49 429.71 100.31 430.47 100.25 431.18 100.14 431.83 100.01 432.53 99.96 433.24 99.9 433.95 99.84 434.65 99.84 435.83 99.9 436.89 99.96 438.01 100.07 439.13 100.31 440.25 100.49 441.31 100.78 442.37 101.08 443.43 101.49 444.02 101.66 444.61 101.96 445.14 102.19 445.73 102.49 446.26 102.78 446.79 103.01 447.38 103.32 447.91 103.67 448.38 103.96 448.97 104.26 449.5 104.61 450.03 104.96 450.56 105.32 450.97 105.67 451.5 106.02 452.03 106.44"/>
  <polygon class="cls-1" points="336.2 218.49 335.68 218.79 335.09 219.08 334.5 219.31 333.97 219.55 333.38 219.84 332.85 220.14 332.26 220.37 331.73 220.61 331.14 220.84 330.61 221.14 330.02 221.38 329.43 221.55 328.84 221.85 328.25 222.02 327.66 222.2 327.08 222.49 326.49 222.67 325.9 222.85 325.36 223.02 324.72 223.26 324.13 223.44 323.54 223.56 322.95 223.8 322.3 223.97 321.71 224.08 321.12 224.27 320.53 224.5 319.95 224.62 319.3 224.74 318.71 224.85 318.12 225.02 317.23 225.21 316.36 225.38 315.47 225.56 314.64 225.68 313.76 225.91 312.88 226.03 312.05 226.2 311.11 226.27 310.28 226.5 309.4 226.62 308.46 226.74 307.63 226.8 306.75 226.91 305.87 226.97 304.98 227.09 303.98 227.21 303.22 227.27 302.56 227.33 301.92 227.38 301.27 227.44 300.62 227.44 299.92 227.5 299.33 227.56 298.68 227.62 297.97 227.68 297.32 227.68 296.68 227.74 296.03 227.74 295.38 227.8 294.73 227.8 294.08 227.85 293.44 227.85 289.43 227.85 288.25 227.91 287.13 227.91 285.96 227.91 284.78 227.91 283.66 227.85 282.42 227.85 281.3 227.8 280.18 227.74 279 227.62 277.88 227.56 276.71 227.44 275.53 227.33 274.47 227.21 273.23 227.09 272.11 226.91 270.93 226.8 269.81 226.67 268.64 226.5 267.58 226.2 266.4 226.09 265.22 225.85 264.1 225.62 262.98 225.38 261.8 225.14 260.68 224.85 259.62 224.62 258.5 224.32 257.38 224.03 256.27 223.67 255.09 223.44 253.97 223.02 252.91 222.73 252.32 222.49 251.73 222.32 251.14 222.08 250.61 221.91 250.02 221.61 249.49 221.38 248.9 221.2 248.31 220.84 249.08 221.44 249.9 221.97 250.67 222.49 251.49 223.02 252.26 223.5 253.08 223.97 253.91 224.38 254.79 224.85 255.61 225.26 256.5 225.68 257.38 226.09 258.21 226.5 259.09 226.8 259.97 227.21 260.86 227.5 261.74 227.8 262.86 228.15 263.98 228.45 265.1 228.8 266.22 229.09 267.34 229.39 268.46 229.68 269.58 229.92 270.75 230.21 271.81 230.39 272.94 230.68 274.11 230.92 275.23 231.1 276.41 231.39 277.53 231.51 278.65 231.68 279.83 231.92 280.95 232.04 282.13 232.15 283.3 232.28 284.42 232.39 285.6 232.51 286.72 232.63 287.84 232.75 289.02 232.8 290.19 232.86 291.37 232.92 292.5 232.92 293.61 232.98 294.85 232.98 295.97 232.98 297.15 232.98 298.33 232.92 302.33 232.92 303.1 232.92 303.92 232.92 304.69 232.86 305.45 232.86 306.28 232.8 307.05 232.75 307.81 232.69 308.58 232.63 309.34 232.57 310.11 232.51 310.87 232.45 311.64 232.39 312.46 232.33 313.17 232.22 313.94 232.15 314.7 232.04 315.53 232.04 316.29 231.92 317.06 231.74 317.82 231.68 318.59 231.57 319.36 231.51 320.12 231.39 320.89 231.27 321.65 231.04 322.42 230.97 323.19 230.86 323.89 230.68 324.72 230.57 325.43 230.39 326.25 230.27 326.96 230.1 328.02 229.86 329.13 229.56 330.25 229.33 331.31 228.98 332.37 228.68 333.44 228.32 334.5 228.03 335.56 227.62 336.67 227.27 337.68 226.86 338.74 226.5 339.8 226.09 340.8 225.62 341.8 225.14 342.86 224.67 343.92 224.14 342.86 223.56 341.86 222.97 340.92 222.26 339.98 221.55 339.09 220.79 338.27 219.97 337.56 219.14 336.79 218.19 336.2 218.49"/>
  <polygon class="cls-2" points="325.9 91.16 328.43 91.16 329.37 91.16 330.32 91.28 331.26 91.4 332.14 91.63 332.68 91.81 333.62 92.34 333.21 92.04 333.86 92.58 334.38 93.22 334.68 93.99 334.8 94.81 334.8 95.64 334.74 96.41 334.62 97.05 334.5 97.7 331.67 105.6 331.44 106.3 331.14 106.95 330.79 107.6 330.38 108.19 329.85 108.72 329.32 109.19 328.73 109.6 328.08 110.01 327.32 110.31 326.55 110.54 325.78 110.78 324.96 110.89 324.2 110.95 323.42 111.08 322.66 111.13 321.96 111.19 321.19 111.25 320.42 111.25 319.71 111.31 318.89 111.31 294.86 111.31 278.83 164.15 278.48 165.1 278.19 166.04 277.95 166.98 277.65 167.92 277.36 168.86 277.06 169.8 276.83 170.81 276.59 171.75 276.3 172.69 276.06 173.64 275.83 174.63 275.59 175.64 275.36 176.52 275.12 177.52 274.95 178.46 274.71 179.47 274.59 180.11 274.41 180.76 274.36 181.41 274.18 182.06 274.12 182.76 274 183.35 273.89 184.06 273.77 184.71 273.71 185.42 273.65 186 273.59 186.71 273.53 187.36 273.47 188.07 273.41 188.66 273.41 189.36 273.35 190.07 273.41 190.84 273.41 191.72 273.53 192.6 273.71 193.37 273.89 194.25 274.12 195.08 274.36 195.78 274.71 196.61 275.06 197.38 275.47 198.08 275.89 198.79 276.42 199.5 276.89 200.2 277.48 200.79 278.07 201.44 278.71 202.03 278.01 201.74 277.3 201.5 276.65 201.14 276.01 200.85 275.36 200.56 274.65 200.26 274.06 199.91 273.41 199.56 272.82 199.2 272.23 198.85 271.7 198.44 271.12 198.02 270.65 197.67 270.11 197.2 269.59 196.73 269.12 196.25 268.64 195.78 268.23 195.31 267.82 194.78 267.4 194.2 266.99 193.66 266.7 193.08 266.34 192.49 265.99 191.9 265.64 191.08 265.34 190.25 265.11 189.36 264.87 188.48 264.7 187.65 264.58 186.71 264.52 185.83 264.52 184.94 264.52 184.29 264.58 183.58 264.58 183 264.63 182.29 264.7 181.59 264.75 180.94 264.81 180.29 264.93 179.64 264.99 178.93 265.11 178.29 265.23 177.7 265.34 176.99 265.46 176.34 265.58 175.7 265.76 175.05 265.87 174.4 266.05 173.4 266.29 172.46 266.52 171.45 266.76 170.51 266.99 169.57 267.17 168.57 267.47 167.62 267.7 166.68 267.94 165.74 268.23 164.8 268.46 163.79 268.76 162.85 269.05 161.91 269.35 160.97 269.64 160.03 269.94 159.08 285.96 106.18 310.05 106.18 311 106.24 311.88 106.18 312.77 106.18 313.71 106.07 314.59 106 315.53 105.89 316.42 105.77 317.3 105.6 318.3 105.3 319.24 104.95 319.83 104.59 320.42 104.12 321.01 103.65 321.48 103.12 321.89 102.53 322.25 101.89 322.55 101.23 322.78 100.53 325.61 92.63 325.78 91.93 325.9 91.16"/>
  <polygon class="cls-1" points="316.91 7.31 317.26 8.25 317.55 9.26 317.61 10.32 317.55 10.91 317.5 11.56 317.43 12.15 317.26 12.74 317.14 13.38 316.96 13.97 316.79 14.68 316.61 15.33 316.37 15.97 316.2 16.62 315.96 17.21 315.78 17.86 315.55 18.57 315.37 19.16 315.08 19.8 314.84 20.4 314.61 21.04 314.37 21.69 314.14 22.28 313.84 22.92 313.43 23.87 313.08 24.87 312.72 25.81 312.37 26.81 311.95 27.75 311.6 28.82 311.25 29.82 310.84 30.82 292.11 86.07 302.65 86.07 319.79 35.83 320.15 34.89 320.44 33.88 320.85 32.89 321.21 31.88 321.56 30.94 321.92 29.88 322.33 28.93 322.74 27.93 322.97 27.41 323.21 26.75 323.51 26.17 323.68 25.63 323.92 25.05 324.1 24.4 324.33 23.81 324.57 23.16 324.74 22.57 324.97 21.98 325.16 21.39 325.33 20.81 325.56 20.16 325.68 19.57 325.86 18.92 326.03 18.33 326.22 17.62 326.33 16.86 326.39 16.15 326.45 15.39 326.45 14.74 326.33 14.15 326.22 13.5 326.03 12.91 325.75 12.32 325.51 11.73 325.09 11.26 324.68 10.79 324.21 10.2 323.74 9.79 323.27 9.38 322.74 9.03 322.21 8.67 321.62 8.32 321.03 8.02 320.44 7.73 319.44 7.31 318.44 7.02 317.43 6.67 316.44 6.43 316.91 7.31"/>
  <path class="cls-1" d="M235.95,106.3l-.06.42v.47l.06.76.12.71.41,1,.7.71.59.41.76.18.88.17.94.12.83.06h6.54l1.41-5.13-13.2.12ZM235.95,106.3l.12-.47-.12.47Z"/>
  <polygon class="cls-1" points="230.96 208.26 230.31 208.79 229.67 209.32 228.96 209.9 228.31 210.44 227.6 210.97 226.96 211.44 226.25 211.97 225.54 212.44 224.83 212.97 224.19 213.38 223.48 213.91 222.78 214.38 222.07 214.86 221.36 215.33 220.65 215.8 219.89 216.21 219.12 216.62 218.47 217.03 217.71 217.51 216.94 217.92 216.17 218.27 215.41 218.69 214.7 219.09 213.94 219.45 213.17 219.87 212.34 220.16 211.64 220.63 210.81 220.92 210.05 221.28 209.28 221.63 208.46 221.92 207.57 222.28 206.63 222.69 205.69 222.99 204.75 223.4 203.86 223.7 202.92 224.04 201.98 224.34 201.03 224.64 200.04 224.93 199.09 225.22 198.15 225.46 197.2 225.63 196.26 225.93 195.2 226.1 194.32 226.34 193.26 226.57 192.55 226.69 191.9 226.81 191.2 226.93 190.55 227.04 189.9 227.17 189.26 227.23 188.6 227.34 187.9 227.4 187.25 227.52 186.6 227.58 185.9 227.58 185.25 227.64 184.6 227.7 183.89 227.75 183.24 227.87 182.54 227.87 179.65 227.87 178.77 227.93 177.88 227.93 177 227.93 176.06 227.93 175.17 227.93 174.35 227.87 173.41 227.87 172.52 227.87 171.7 227.75 170.82 227.7 169.87 227.7 169.05 227.64 168.17 227.58 167.28 227.58 166.4 227.46 165.51 227.4 164.63 227.34 163.75 227.23 162.86 227.04 161.98 227.04 161.09 226.93 160.21 226.81 159.33 226.69 158.5 226.57 157.62 226.4 156.74 226.29 155.91 226.1 154.97 225.99 154.14 225.87 153.26 225.63 152.37 225.46 151.55 225.34 150.55 224.99 149.55 224.81 148.55 224.45 147.49 224.17 148.07 224.64 148.66 225.16 149.2 225.58 149.84 225.99 150.43 226.4 151.08 226.81 151.67 227.17 152.32 227.52 153.08 227.87 153.85 228.17 154.61 228.58 155.38 228.82 156.15 229.11 156.91 229.4 157.62 229.64 158.5 229.87 159.21 230.11 160.04 230.29 160.8 230.58 161.63 230.76 162.39 230.87 163.28 231 164.04 231.17 164.86 231.29 165.57 231.41 166.34 231.52 167.04 231.65 167.75 231.7 168.52 231.82 169.23 231.94 169.99 232 170.76 232.12 171.46 232.18 172.23 232.23 172.94 232.35 173.7 232.41 174.47 232.41 175.12 232.47 175.88 232.59 176.59 232.65 177.41 232.7 178.12 232.7 178.82 232.76 179.59 232.82 180.36 232.82 181.12 232.88 181.83 232.88 182.54 232.88 183.31 232.88 184.07 232.88 184.78 232.94 185.54 232.94 186.25 232.94 187.02 232.94 187.78 232.94 188.48 232.88 191.43 232.88 192.2 232.88 193.08 232.88 193.91 232.76 194.73 232.7 195.56 232.65 196.38 232.47 197.27 232.41 198.09 232.29 198.92 232.18 199.74 232.05 200.51 231.94 201.33 231.76 202.16 231.65 202.98 231.47 203.81 231.29 204.63 231.11 205.45 230.87 206.28 230.76 207.05 230.47 207.87 230.23 208.64 230.05 209.46 229.76 210.29 229.58 211.11 229.35 211.82 229.05 212.64 228.82 213.4 228.58 214.29 228.22 215 227.99 215.82 227.58 216.53 227.34 217.35 226.99 218 226.69 218.71 226.4 219.42 226.1 220.12 225.87 220.77 225.46 221.48 225.22 222.19 224.87 222.83 224.52 223.54 224.17 224.19 223.87 224.83 223.46 225.48 223.16 226.19 222.81 226.84 222.34 227.48 222.04 228.14 221.63 228.78 221.21 229.43 220.86 230.08 220.51 230.67 220.1 231.31 219.63 231.97 219.21 232.61 218.8 233.26 218.39 233.85 217.98 234.44 217.51 235.03 217.09 235.68 216.62 236.27 216.15 236.86 215.73 237.5 215.26 238.09 214.79 237.09 213.97 236.27 213.2 235.44 212.38 234.56 211.44 233.79 210.61 233.03 209.61 232.32 208.67 231.61 207.72 230.96 208.26"/>
  <polygon class="cls-1" points="205.46 77.19 205.75 77.49 206.17 78.02 206.46 78.55 206.76 79.08 207 79.61 207.23 80.26 207.28 80.85 207.4 81.49 207.4 82.14 207.23 82.97 206.88 83.85 206.52 84.74 206.17 85.56 205.75 86.44 205.4 87.26 204.99 88.1 204.63 88.97 204.16 89.8 203.81 90.69 203.4 91.51 202.98 92.33 202.58 93.22 202.16 94.05 201.75 94.93 201.28 95.75 200.86 96.58 200.39 97.4 199.98 98.16 199.57 98.99 199.22 99.76 198.8 100.64 198.33 101.41 197.92 102.23 197.57 103.05 197.15 103.88 196.74 104.65 196.33 105.53 195.97 106.3 195.56 107.12 195.15 107.94 194.8 108.77 194.38 109.59 194.03 110.36 193.62 111.25 193.2 112.01 192.85 112.9 192.44 113.66 192.09 114.48 191.74 115.31 191.38 116.13 190.97 116.96 190.56 117.78 190.26 118.66 189.79 119.43 189.44 120.26 189.08 121.08 188.73 121.96 188.38 122.79 188.02 123.61 187.73 124.21 187.43 124.85 187.14 125.56 186.9 126.21 186.61 126.79 186.31 127.5 186.02 128.15 185.73 128.8 185.43 129.45 185.19 130.04 184.9 130.74 184.6 131.39 184.37 132.04 184.01 132.69 183.78 133.33 183.49 133.98 183.25 134.69 182.95 135.28 182.72 135.99 182.37 136.63 182.19 137.28 181.89 137.93 181.66 138.58 181.31 139.28 181.13 139.93 180.84 140.59 180.6 141.23 180.31 141.88 180.07 142.52 179.78 143.18 179.54 143.82 179.25 144.53 179.01 145.18 178.77 145.82 178.54 146.47 178.25 147.18 178.01 147.83 177.77 148.54 177.54 149.18 177.3 149.83 177.07 150.54 176.83 151.19 176.53 151.83 176.3 152.48 176.06 153.19 175.83 153.83 175.59 154.49 175.36 155.19 175.12 155.84 174.89 156.49 174.65 157.19 174.42 157.84 174.18 158.55 173.95 159.14 173.71 159.85 173.47 160.49 173.29 161.2 173.06 161.85 172.82 162.5 172.59 163.21 172.35 163.85 172.17 164.5 171.88 165.21 171.7 165.91 171.47 166.56 171.29 167.15 171.11 167.79 170.94 168.44 170.7 169.04 170.59 169.68 170.35 170.27 170.17 170.92 170.05 171.57 169.82 172.22 169.7 172.87 169.53 173.45 169.34 174.1 169.11 174.75 168.99 175.4 168.82 176.04 168.59 177.05 168.28 178.11 168.05 179.17 167.81 180.23 167.58 181.29 167.41 182.29 167.17 183.4 166.99 184.41 166.87 185.53 166.75 186.53 166.58 187.65 166.52 188.71 166.4 189.77 166.34 190.89 166.28 191.89 166.23 193.01 166.23 194.07 166.34 195.07 166.52 196.13 166.7 197.07 166.99 197.84 167.23 198.55 167.58 199.25 168.05 199.9 168.52 200.49 169.06 201.08 169.7 201.61 170.29 202.08 169.93 201.79 170.7 202.26 171.06 202.49 171.7 202.68 172.35 202.96 173 203.15 173.59 203.32 174.3 203.62 174.94 203.73 175.59 203.85 176.3 203.97 176 203.26 175.77 202.56 175.53 201.85 175.36 201.08 175.24 200.37 175.12 199.6 175.06 198.9 175.06 198.02 175.12 197.25 175.12 196.43 175.18 195.66 175.24 194.84 175.3 194.07 175.42 193.24 175.53 192.54 175.59 191.77 175.77 191.01 175.89 190.3 176 189.47 176.06 188.76 176.24 188.01 176.36 187.24 176.53 186.47 176.59 185.71 176.83 185 176.95 184.24 177.07 183.53 177.24 182.76 177.48 181.99 177.59 181.29 177.77 180.52 178.01 179.76 178.13 178.99 178.36 178.28 178.6 177.57 178.77 176.81 178.95 176.04 179.19 175.34 179.42 174.63 179.66 173.92 179.83 173.16 180.13 172.45 180.31 171.74 180.54 170.98 180.78 170.27 181.01 169.62 181.25 168.91 181.42 168.26 181.66 167.62 181.89 166.91 182.13 166.26 182.37 165.56 182.6 164.9 182.84 164.26 183.02 163.56 183.31 162.91 183.49 162.26 183.72 161.61 183.96 160.9 184.25 160.2 184.49 159.61 184.67 158.9 184.96 158.25 185.19 157.55 185.43 156.9 185.66 156.25 185.9 155.54 186.14 154.9 186.43 154.25 186.61 153.6 186.9 152.89 187.14 152.25 187.37 151.6 187.67 150.95 187.91 150.25 188.2 149.59 188.38 148.94 188.67 148.3 188.91 147.59 189.2 146.94 189.44 146.29 189.73 145.65 189.97 145 190.26 144.29 190.5 143.7 190.79 142.99 191.03 142.35 191.32 141.7 191.56 141.06 191.85 140.4 192.09 139.7 192.38 139.05 192.68 138.46 192.97 137.75 193.2 137.1 193.5 136.46 193.74 135.81 194.03 135.22 194.33 134.51 194.56 133.87 194.85 133.22 195.15 132.57 195.44 131.92 195.74 131.27 196.03 130.57 196.33 129.97 196.62 129.33 196.86 128.68 197.21 127.8 197.62 126.97 197.98 126.21 198.33 125.32 198.75 124.56 199.1 123.67 199.45 122.85 199.86 122.02 200.22 121.2 200.57 120.43 200.92 119.55 201.34 118.78 201.75 117.9 202.1 117.13 202.51 116.26 202.86 115.49 203.22 114.6 203.64 113.84 204.04 112.95 204.46 112.19 204.81 111.42 205.22 110.54 205.64 109.77 205.99 108.95 206.41 108.18 206.81 107.29 207.28 106.53 207.64 105.64 208.06 104.88 208.41 104.06 208.93 103.29 209.29 102.46 209.7 101.64 210.06 100.88 210.53 100.11 210.94 99.28 211.29 98.52 211.7 97.69 212.06 96.92 212.47 96.1 212.88 95.34 213.24 94.52 213.65 93.75 214 92.92 214.36 92.1 214.77 91.27 215.12 90.51 215.48 89.68 215.71 89.1 215.95 88.5 216.12 87.92 216.3 87.26 216.3 86.44 216.18 85.61 215.77 84.5 215.24 83.49 214.59 82.55 213.77 81.73 213.12 81.2 212.41 80.61 211.7 80.08 211 79.55 210.23 79.14 209.47 78.73 208.7 78.31 207.87 78.02 207.23 77.66 206.52 77.43 205.81 77.08 205.17 76.84 204.75 76.49 205.46 77.19"/>
  <polygon class="cls-1" points="42.21 218.49 41.69 218.79 41.15 219.08 40.57 219.31 39.98 219.55 39.44 219.84 38.85 220.14 38.27 220.37 37.74 220.61 37.21 220.84 36.62 221.14 36.03 221.38 35.44 221.55 34.85 221.85 34.26 222.02 33.68 222.2 33.09 222.49 32.5 222.67 31.91 222.85 31.32 223.02 30.79 223.26 30.14 223.44 29.55 223.56 28.96 223.8 28.37 223.97 27.72 224.08 27.13 224.27 26.54 224.5 25.95 224.62 25.36 224.74 24.72 224.85 24.13 225.02 23.24 225.21 22.36 225.38 21.54 225.56 20.65 225.68 19.77 225.91 18.89 226.03 18.06 226.2 17.12 226.27 16.29 226.5 15.41 226.62 14.53 226.74 13.65 226.8 12.82 226.91 11.88 226.97 11.05 227.09 10.11 227.21 8.4 232.92 9.16 232.92 9.93 232.92 10.7 232.86 11.52 232.86 12.29 232.8 13.06 232.75 13.82 232.69 14.59 232.63 15.35 232.57 16.12 232.51 16.94 232.45 17.65 232.39 18.47 232.33 19.18 232.22 20.01 232.15 20.71 232.04 21.54 232.04 22.3 231.92 23.07 231.74 23.83 231.68 24.6 231.57 25.36 231.51 26.13 231.39 26.9 231.27 27.66 231.04 28.43 230.97 29.19 230.86 29.96 230.68 30.73 230.57 31.44 230.39 32.26 230.27 32.97 230.1 34.08 229.86 35.14 229.56 36.26 229.33 37.32 228.98 38.44 228.68 39.51 228.32 40.57 228.03 41.63 227.62 42.68 227.27 43.69 226.86 44.75 226.5 45.81 226.09 46.87 225.62 47.87 225.14 48.87 224.67 49.87 224.14 48.87 223.56 47.87 222.97 46.93 222.26 46.04 221.55 45.16 220.79 44.34 219.97 43.51 219.14 42.8 218.19 42.21 218.49"/>
  <polygon class="cls-1" points="141.09 169.29 140.74 169.94 140.39 170.59 140.03 171.17 139.68 171.82 139.27 172.47 138.91 173.12 138.56 173.77 138.21 174.29 137.8 174.94 137.44 175.59 137.03 176.24 136.62 176.83 136.26 177.47 135.91 178.07 135.56 178.71 135.14 179.36 134.79 179.95 134.44 180.6 134.02 181.19 133.67 181.83 133.32 182.37 132.91 183.01 132.56 183.6 132.2 184.25 131.79 184.84 131.38 185.43 130.96 186.02 130.61 186.61 130.2 187.26 129.78 187.79 129.37 188.37 128.96 188.96 128.61 189.61 128.14 190.2 127.72 190.73 127.31 191.32 126.9 191.85 126.49 192.44 126.01 193.03 125.6 193.62 125.19 194.2 124.78 194.79 124.36 195.27 123.89 195.85 123.42 196.45 123.01 197.03 122.54 197.56 122.07 198.15 121.65 198.62 121.18 199.21 120.71 199.75 120.24 200.28 119.77 200.8 119.3 201.33 118.83 201.86 118.36 202.4 117.94 202.98 117.42 203.51 116.94 203.98 116.41 204.52 115.94 205.05 115.47 205.63 114.94 206.11 114.47 206.64 114 207.17 113.52 207.69 113 208.16 112.53 208.7 111.99 209.23 111.47 209.76 111 210.17 110.46 210.7 109.93 211.23 109.46 211.7 108.87 212.17 108.34 212.64 107.87 213.17 107.28 213.64 106.81 214.06 106.28 214.59 105.87 215 105.34 215.36 104.81 215.77 104.34 216.18 103.81 216.6 103.34 216.95 102.8 217.3 102.33 217.77 101.8 218.06 101.33 218.48 100.8 218.83 100.21 219.19 99.74 219.47 99.21 219.89 98.68 220.18 98.09 220.48 97.56 220.83 97.03 221.19 96.44 221.48 95.91 221.78 95.38 222.01 94.79 222.3 94.26 222.6 93.67 222.9 93.14 223.19 92.55 223.43 92.02 223.66 91.43 223.95 90.84 224.13 90.26 224.48 89.67 224.66 89.08 224.9 88.49 225.08 87.9 225.31 87.31 225.55 86.72 225.72 86.13 225.96 85.54 226.13 84.9 226.26 84.31 226.49 83.66 226.66 83.07 226.84 82.48 226.9 81.89 227.08 81.24 227.25 80.59 227.31 80.01 227.49 79.36 227.61 78.83 227.72 78.18 227.78 77.53 227.91 76.88 228.02 76.29 228.08 75.65 228.19 75.06 228.26 74.41 228.31 73.76 228.38 73.11 228.38 72.47 228.38 71.88 228.43 71.23 228.43 70.58 228.55 69.93 228.55 68.93 228.55 67.93 228.55 66.99 228.43 65.98 228.38 64.98 228.38 63.98 228.26 62.98 228.14 62.04 228.02 61.04 227.84 60.1 227.67 59.15 227.44 58.15 227.25 57.15 226.96 56.21 226.73 55.26 226.49 54.32 226.13 55.26 226.9 56.21 227.61 57.15 228.31 58.21 228.9 59.21 229.49 60.27 230.02 61.45 230.56 62.57 230.97 63.51 231.32 64.51 231.61 65.51 231.97 66.57 232.14 67.51 232.44 68.58 232.68 69.58 232.85 70.58 233.03 71.58 233.15 72.59 233.32 73.65 233.44 74.64 233.5 75.7 233.56 76.7 233.62 77.76 233.62 78.83 233.62 79.42 233.62 80.06 233.56 80.71 233.56 81.36 233.5 82.01 233.5 82.6 233.44 83.25 233.38 83.9 233.32 84.54 233.27 85.19 233.15 85.78 233.09 86.37 232.97 87.02 232.91 87.66 232.79 88.31 232.68 88.84 232.61 89.49 232.44 90.08 232.26 90.73 232.14 91.37 232.02 91.96 231.91 92.55 231.67 93.14 231.55 93.73 231.38 94.38 231.14 94.97 231.03 95.62 230.79 96.21 230.61 96.8 230.38 97.39 230.2 97.91 229.96 98.5 229.73 99.09 229.49 99.68 229.32 100.27 228.96 100.86 228.78 101.45 228.55 102.04 228.26 102.57 227.96 103.16 227.72 103.69 227.44 104.22 227.08 104.75 226.84 105.34 226.55 105.87 226.26 106.46 225.9 106.98 225.61 107.52 225.25 108.04 224.9 108.58 224.61 109.1 224.19 109.64 223.9 110.17 223.54 110.64 223.19 111.17 222.78 111.7 222.48 112.23 222.01 112.7 221.6 113.23 221.25 113.7 220.83 114.23 220.42 114.7 220.01 115.17 219.6 115.65 219.19 116.24 218.65 116.88 218.12 117.47 217.59 118.06 217.07 118.65 216.53 119.24 215.94 119.83 215.36 120.42 214.82 121.01 214.24 121.54 213.71 122.12 213.11 122.71 212.53 123.25 211.94 123.84 211.41 124.42 210.82 124.9 210.17 125.42 209.64 126.01 209.05 126.54 208.4 127.08 207.81 127.6 207.17 128.14 206.58 128.61 205.99 129.2 205.34 129.73 204.69 130.26 204.05 130.73 203.45 131.26 202.87 131.73 202.22 132.2 201.57 132.67 200.92 133.2 200.28 133.26 199.63 133.32 198.97 133.43 198.33 133.5 197.68 133.55 197.03 133.67 196.39 133.79 195.74 133.91 195.09 133.97 194.44 134.14 193.85 134.26 193.21 134.38 192.55 134.49 191.91 134.61 191.32 134.79 190.73 134.97 190.08 135.08 189.38 135.26 188.67 135.5 188.02 135.62 187.37 135.85 186.66 136.03 185.95 136.2 185.31 136.38 184.66 136.62 183.95 136.74 183.31 136.97 182.66 137.15 181.95 137.33 181.25 137.56 180.66 137.74 179.95 137.97 179.25 138.21 178.6 138.33 177.95 138.62 177.3 138.74 176.59 139.03 175.89 139.27 175.3 139.39 174.59 139.68 173.94 139.86 173.23 140.09 172.64 140.27 171.94 140.57 171.23 140.8 170.59 140.98 169.94 141.27 169.29 141.45 168.58 141.09 169.29"/>
  <polyline class="cls-2" points="484.47 232.47 480.94 232.94 480.05 233.06 479.05 233.12 478.17 233.18 477.23 233.23 476.22 233.29 475.35 233.29 474.34 233.29 473.4 233.29 472.46 233.23 471.46 233.23 470.57 233.12 469.87 233.12 469.1 233.06 468.45 233.06 467.74 233 467.04 232.94 466.27 232.88 465.62 232.82 464.91 232.7 464.21 232.65 463.56 232.52 462.86 232.41 462.15 232.29 461.38 232.17 460.73 232.05 460.03 231.88 459.32 231.76 458.67 231.58 457.97 231.46 457.26 231.29 456.61 231.11 455.96 230.94 455.25 230.76 454.55 230.58 453.9 230.4 453.25 230.17 452.55 230 451.84 229.76 451.19 229.53 450.55 229.29 449.84 229.05 449.19 228.82 448.54 228.52 447.95 228.29 447.42 228.11 446.83 227.82 446.36 227.52 445.71 227.17 445 226.81 444.41 226.4 443.83 225.99 443.24 225.63 442.65 225.16 442.06 224.63 441.53 224.16 442.12 224.34 442.71 224.52 443.35 224.69 444 224.86 444.53 225.04 445.18 225.22 445.83 225.34 446.42 225.52 447.01 225.63 447.66 225.75 448.24 225.87 448.9 225.99 449.48 226.1 450.13 226.22 450.78 226.34 451.37 226.46 451.96 226.57 452.61 226.69 453.25 226.75 453.9 226.87 454.49 226.93 455.14 227.04 455.79 227.11 456.38 227.17 456.96 227.22 457.61 227.28 458.26 227.35 458.85 227.4 459.5 227.4 460.14 227.46 460.8 227.52 461.38 227.52 462.21 227.58 462.98 227.64 463.74 227.64 464.44 227.69 465.21 227.69 466.04 227.75 466.74 227.75 467.51 227.82 468.27 227.82 469.04 227.82 469.81 227.87 470.57 227.87 471.28 227.87 472.1 227.87 472.87 227.87 473.58 227.87 476.58 227.87 481.82 209.73 482.89 209.85 483.95 210.02 485.01 210.14 486.01 210.26 487.07 210.38 488.13 210.49 489.19 210.55 490.25 210.68"/>
  <polygon class="cls-2" points="158.03 106.44 156.97 106.09 155.97 105.79 154.91 105.49 153.85 105.32 152.79 105.14 151.73 105.02 150.67 104.96 149.55 104.9 148.6 104.96 147.72 105.02 146.78 105.14 145.84 105.26 144.95 105.38 144.07 105.55 143.13 105.79 142.24 106.02 141.36 106.26 140.48 106.49 139.59 106.79 138.71 107.15 137.88 107.5 137 107.85 136.18 108.26 135.35 108.68 134.29 109.15 133.29 109.73 132.29 110.27 131.29 110.8 130.28 111.38 129.28 111.98 128.34 112.62 127.34 113.27 126.52 113.86 125.69 114.45 124.86 115.04 123.98 115.68 123.16 116.27 122.39 116.93 121.51 117.57 120.74 118.22 119.98 118.86 119.15 119.57 118.39 120.22 117.56 120.93 116.79 121.64 116.03 122.34 115.26 122.99 114.5 123.7 113.79 124.47 113.03 125.17 112.32 125.93 111.55 126.64 110.84 127.35 110.14 128.17 109.43 128.88 108.73 129.7 108.02 130.41 107.37 131.24 106.66 132 106.01 132.82 105.31 133.59 104.66 134.42 104.01 135.24 103.42 136.01 102.78 136.83 102.12 137.66 101.53 138.48 100.89 139.31 100.3 140.13 99.71 140.9 99.12 141.78 98.53 142.61 97.94 143.43 97.35 144.32 96.83 145.14 96.29 146.02 95.7 146.91 95.17 147.73 94.64 148.62 94.11 149.5 93.59 150.38 93.11 151.27 92.58 152.15 92.11 153.04 91.64 153.92 91.11 154.86 90.64 155.74 90.23 156.68 89.76 157.57 89.28 158.51 88.87 159.4 88.46 160.34 88.04 161.28 87.64 162.23 87.22 163.17 86.81 164.11 86.46 164.81 86.16 165.58 85.87 166.29 85.57 167.05 85.28 167.82 84.98 168.53 84.69 169.3 84.45 170.06 84.22 170.77 83.98 171.53 83.75 172.3 83.51 173.06 83.27 173.83 83.04 174.59 82.86 175.36 82.63 176.13 82.45 176.95 82.27 177.65 82.09 178.48 81.92 179.25 81.8 180.07 81.68 180.78 81.51 181.61 81.39 182.43 81.27 183.14 81.15 183.97 81.03 184.79 80.98 185.55 80.86 186.32 80.8 187.14 80.74 187.91 80.68 188.73 80.68 190.03 80.68 191.21 80.68 192.32 80.74 193.5 80.92 194.62 81.09 195.75 81.33 196.86 81.62 197.98 81.92 199.04 82.27 199.87 82.68 200.69 81.92 200.69 81.09 200.57 80.33 200.46 79.56 200.28 78.85 199.98 78.09 199.69 77.39 199.39 76.73 198.98 76.09 198.51 75.56 197.98 75.03 197.45 74.56 196.86 74.15 196.15 73.73 195.45 73.38 194.74 73.09 193.97 72.85 193.21 72.61 192.45 72.38 191.68 72.26 190.85 72.14 190.09 72.08 189.44 71.96 188.67 71.91 187.91 71.84 187.2 71.84 186.49 71.79 185.73 71.79 184.96 71.84 184.26 71.84 183.43 71.91 182.66 71.96 181.96 72.02 181.14 72.14 180.37 72.2 179.66 72.26 178.83 72.38 178.07 72.5 177.37 72.61 176.6 72.73 175.83 72.91 175.06 73.02 174.31 73.2 173.53 73.38 172.77 73.5 172.06 73.67 171.3 73.91 170.53 74.09 169.82 74.32 169.06 74.5 168.35 74.73 167.59 74.97 166.88 75.2 166.11 75.44 165.4 75.74 164.7 75.97 163.93 76.21 163.22 76.5 162.51 76.8 161.76 77.09 161.1 77.91 159.04 78.33 158.04 78.74 157.15 79.15 156.21 79.56 155.27 79.98 154.33 80.45 153.39 80.86 152.5 81.33 151.62 81.8 150.68 82.27 149.74 82.75 148.85 83.22 147.97 83.75 147.09 84.22 146.2 84.75 145.31 85.28 144.43 85.75 143.55 86.34 142.67 86.87 141.78 87.4 140.9 87.92 140.08 88.51 139.25 89.1 138.37 89.64 137.54 90.23 136.72 90.81 135.89 91.46 135.01 92.05 134.24 92.64 133.42 93.23 132.59 93.88 131.77 94.53 131 95.17 130.17 95.82 129.35 96.47 128.52 97.12 127.7 97.83 126.94 98.48 126.12 99.12 125.34 99.89 124.58 100.54 123.82 101.25 123.05 101.95 122.34 102.71 121.58 103.42 120.81 104.13 120.1 104.89 119.4 105.66 118.69 106.42 117.92 107.13 117.21 107.9 116.51 108.73 115.86 109.49 115.16 110.25 114.51 111.08 113.8 111.85 113.16 112.67 112.5 113.5 111.85 114.32 111.27 115.14 110.62 115.97 109.97 116.79 109.38 117.62 108.79 118.5 108.15 119.45 107.55 120.39 106.91 121.39 106.32 122.39 105.67 123.39 105.14 124.39 104.61 125.39 104.08 126.45 103.61 127.46 103.14 128.58 102.66 129.64 102.26 130.7 101.84 131.76 101.49 132.88 101.13 133.94 100.78 135.06 100.49 135.76 100.31 136.47 100.25 137.17 100.14 137.88 100.01 138.53 99.96 139.3 99.9 139.95 99.84 140.71 99.84 141.83 99.9 142.95 99.96 144.07 100.07 145.13 100.31 146.25 100.49 147.31 100.78 148.37 101.08 149.43 101.49 150.02 101.66 150.61 101.96 151.14 102.19 151.73 102.49 152.26 102.78 152.85 103.01 153.38 103.32 153.91 103.67 154.44 103.96 154.97 104.26 155.5 104.61 156.03 104.96 156.56 105.32 157.03 105.67 157.56 106.02 158.03 106.44"/>
</svg>