<?xml version="1.0" encoding="UTF-8"?>
<svg id="Layer_1" data-name="Layer 1" xmlns="http://www.w3.org/2000/svg" viewBox="0 0 510.2 289.3">
  <defs>
    <style>
      .cls-1 {
        fill: #fff;
      }

      .cls-2 {
        fill: none;
      }

      .cls-3 {
        fill-rule: evenodd;
      }

      .cls-3, .cls-4 {
        fill: #121617;
      }

      .cls-5 {
        fill: #f05c22;
      }
    </style>
  </defs>
  <path class="cls-1" d="M284.2,250.4h-.1.1ZM183.1,272.8h6.1v-23.4h-6.1v23.4ZM225.9,249.4v5.1h10.9l-.8.8-.8.9-.8.9-.8.8-8.7,10v4.9h20.8v-5.4h-11.9l-.8.2,3.1-3.4,8.9-10.3v-4.4h-19.2l.1-.1ZM353.4,249.4l-5.5,16.6-5.5-16.6h-6.6l8.9,23.4-.2.8-.5.8-.4.8-.5.8.3-.5-.7.8-.5.5-1.1.3-1.2.2h-1.3l-1.3-.2.6,4.8h.8l.9.3h3.4l.8-.2.8-.2,1.2-.4,1.1-.7,1-.8.8-.8.5-.8.5-.8.3-.8.3-.7,1.4-4.1,8.3-22.4h-6.4l-.2-.1ZM286.5,265.3l.2-.4.5-.8.8-.6.8-.3.8-.2.8-.2.8-.2,1-.2,1-.2.9-.3.9-.2v3.2-.5,1l-.2.5-.5,1.1-.9.9-.8.5-.7.3-.8.2h-.9l-1.3-.1-1.1-.8-.7-1-.2-1v-.2.2-.7h-.4ZM290.9,249h-1.4l-1.4.2-1.1.2-1,.4-.9.4-.8.4h.2-.3l-.4.4-.4.2-.8.9-.7,1.1-.6,1.2-.5,1.2,5.6,1-.2.5.4-1.1.2-.5.5-.8.8-.5,1.2-.4,1.1-.2h1.1l.9.2.8.2h0l.4.3-.3-.2.7.5.2.5.2.8v.8l-.2.8-1.4.4-1.4.4-1.4.2-1.4.3h-.7c0,.1-1.1.4-1.1.4l-1,.3-1.1.3-.9.5-.8.4-.7.6-.6.6-.5.8-.5.9-.3.8-.2.8v2.4l.4,1.3.7,1.1.7.8-.2-.2.5.4-.2-.2.7.7.5.4,1.1.5,1.1.3,1.2.2,1.3.2.9-.2h1c0-.1.9-.3.9-.3l1-.4,1-.5.8-.5.8-.5.8-.8-.2-.3.2.3.2.3v.5c.1,0,.3.9.3.9l.4.9h6.1l-.4-.8-.3-.8-.2-.8-.2-.8-.2-1.1v-1.1l-.2-1.2v-10.2l-.1-.9-.2-1.1-.2-.9-.5-.9-.6-.6-.6-.6-.7-.6-.5-.2h.2c0,.1-.6-.2-.6-.2l.4.2-1-.5-.5-.2-1.2-.3h-1.2l-1.3-.2h-1.3l.1.3ZM408,249.1h-1.1l-.8.3-.8.3-.8.4-.7.4-.8.6-.6.6-.6.5-.5.8v-3.5h-5.7v23.4h6.1v-13.2l.1-.8v-.9l.3-1,.7-1.3,1.1-1.1,1.4-.7,1.5-.2,1.1.2,1,.5.8.8.5.9v-.4.4h0l.2.5v.4l.2,1.1v1l.2,1.1v12.9h6.1v-15.8l-.2-1v-.9l-.3-1-.4-1.4-.8-1.2-.5-.6-.7-.5-.6-.4-.7-.4-.9-.3-1-.2h-.9l-1-.2h-1l.1-.1ZM125.2,246h7.3l1,.2.8.2.8.4.8.5.7.5.6.8.5.8.4.9.4.8.2,1.4.2,1.4v4.9l-.2,1.3-.2,1.3-.2.9.2-.4-.2.8v-.4l-.3,1.1v.7c-.1,0-.8.9-.8.9l-.7.8-.7.5-.6.5-.8.3-.8.2-.9.2h-7.7v-21.4l.2-.1ZM130.6,240.6h-11.8v32.2h14.3l1.2-.2,1.2-.2,1.2-.3,1.3-.4,1.2-.6,1.1-.8,1.1-.8.5-.6.5-.7.5-.7.5-.7.4-.8.4-.8.3-.7.3-.8.2-.8.2-.8.2-.8v-.8l.2-.9v-.9l.1-.8v-3.8l-.2-1v-1c-.1,0-.4-1-.4-1l-.2-.8-.2-1-.5-1.4-.8-1.3-.8-1.3-1-1.1-1.1-1.1-1.2-.8-1.3-.7-1.4-.5-1.5-.2-1.4-.2h-2.9l-.2-.1ZM183.1,246.3h6.1v-5.8h-6.1v5.8Z"/>
  <path class="cls-5" d="M325,87.16l.04.04.2.07-.24-.11ZM81.28,200.56l-.93-.18-.89-.23-.88-.35-.76-.47-.83-.42-.71-.65-.65-.65-.52-.71-.48-.7-.41-.71-.35-.71-.29-.83-.35-1.06-.24-1.12-.29-1.12-.17-1.13-.12-1.12-.12-1.06-.06-1.17.06-1.18v-1.3l.12-.83.06-.76.06-.82v-.82l.11-.77.12-.76.12-.82.11-.76.12-.77.12-.82.18-.76.18-.83.12-.77.18-.76.18-.76.18-.77.23-.76.18-.82.23-.71.24-.77.18-.76.29-.76.24-.76.29-.76.18-.76.36-.71.23-.77.29-.76.3-.71.35-.76.23-.71.29-.76.47-.94.41-.88.41-1,.36-.88.47-.94.47-.95.41-.94.48-.88.47-.88.41-.95.53-.88.47-.88.48-.88.53-.94.53-.89.53-.82.46-.94.59-.83.53-.88.53-.88.54-.82.52-.89.59-.82.58-.82.59-.88.58-.77.59-.88.65-.76.58-.88.59-.76.65-.89.59-.76.71-.77.65-.88.59-.77.71-.82.65-.76.7-.83.65-.77.71-.76.71-.76.65-.77.76-.76.76-.71.65-.76.76-.76.76-.71.71-.71.83-.65.7-.77.77-.7.76-.71.83-.64.76-.71.76-.65.83-.65.82-.65.76-.66.88-.65.76-.65.88-.59.83-.59.82-.65.89-.59.95-.65.94-.59,1-.58,1-.59,1.06-.53,1-.59,1-.46,1-.53.83-.47.89-.36.82-.35.83-.42.88-.29.89-.29.88-.29.88-.24.88-.23.88-.18.95-.12.94-.23.89-.12.94-.06.95-.06.88-.06,1.12.06,1.18.06,1.12.11,1.05.18,1.07.24,1.12.29,1.06.3,1.07.41.59.23.59.24.58.23.53.3.59.29.59.29.53.29.53.24.59.41.53.3.53.35.53.35.47.35.53.41.53.36.48.41-1.65,3.65-.48,1.13-.46,1.05-.47,1.18-.48,1.06-.47,1.12-.53,1.06-.47,1.18-.54,1-.52,1.06-.53,1.12-.53,1.05-.53,1.12-.47,1.07-.54,1.12-.53,1.06-.53,1.07-.59,1.12-.48,1.06-.58,1.05-.53,1.07-.58,1.07-.48,1.05-.59,1.12-.59,1.07-.53,1.06-.58,1-.59,1.06-.59,1.06-.59,1.06-.59,1.06-.58,1-.59,1.06-.59,1.06-.59,1-.65,1.06-.58,1-.65,1.06-.65,1.06-.59,1-.58,1.06-.65,1-.65,1.07-.65,1-.59,1-.65,1-.71,1-.65,1-.65,1-.65,1-.71,1.05-.65,1-.65,1-.7.95-.71,1-.65.99-.65,1-.71.95-.7,1-.71,1-.71.94-.7,1-.65.94-.77,1-.7.95-2.3,2.77-.47.59-.53.65-.53.58-.53.65-.47.59-.53.53-.54.53-.52.59-.53.59-.53.59-.59.53-.58.53-.48.53-.59.59-.59.53-.53.53-.65.48-.58.52-.59.53-.58.53-.65.41-.59.53-.59.48-.65.52-.65.48-.59.47-.65.47-.59.41-.65.48-.71.41-.65.47-.65.42-.82.53-.83.41-.83.47-.88.42-.83.41-.94.35-.88.24-.83.41-.95.18-.93.24-.89.23-.94.18-1,.12-.94.12-.95.06h-2.06l-1.13-.12ZM375.37,200.62l-.95-.18-.88-.29-.88-.35-.82-.41-.83-.48-.71-.58-.65-.71-.65-.71-.41-.7-.41-.71-.35-.71-.29-.83-.29-1.06-.29-1.12-.24-1.12-.24-1.13-.11-1.12-.12-1.06v-3.65l.06-.83.06-.76.11-.82.12-.82.06-.77.11-.76.06-.82.18-.76.11-.77.18-.82.06-.76.18-.83.18-.77.18-.76.18-.76.18-.77.18-.76.23-.82.24-.71.18-.77.24-.76.23-.76.29-.76.18-.76.29-.76.29-.71.29-.77.24-.76.35-.71.29-.76.29-.71.35-.76.36-.94.41-.88.41-1,.48-.88.41-.94.41-.95.41-.94.47-.88.53-.88.47-.95.41-.88.47-.88.53-.88.53-.94.47-.89.53-.82.53-.94.52-.83.48-.88.59-.88.53-.82.59-.89.59-.82.58-.82.53-.88.59-.77.59-.88.59-.76.65-.88.65-.76.65-.89.65-.76.58-.77.65-.88.71-.77.65-.82.65-.76.7-.83.65-.77.71-.76.7-.76.71-.77.65-.76.76-.71.71-.76.71-.76.76-.65.76-.76.71-.65.77-.77.82-.7.77-.71.76-.64.76-.71.76-.65.83-.65.82-.65.83-.66.83-.65.82-.65.76-.59.88-.59.88-.65.77-.59,1.05-.65.94-.59.95-.58,1-.59,1-.53,1-.59,1-.46,1.07-.53.88-.47.76-.36.89-.35.88-.42.82-.29.94-.29.83-.29.88-.24,1-.23.82-.18.88-.12.94-.23.94-.12.88-.06.95-.06.94-.06,1.12.06,1.06.06,1.12.11,1.18.18,1.07.24,1.12.29,1,.3,1.12.41.59.23.59.24.59.23.53.3.59.29.53.29.53.29.59.24.47.41.53.3.59.35.53.35.53.35.48.41.52.36.53.41-1.71,3.65-.47,1.13-.47,1.05-.54,1.18-.41,1.06-.53,1.12-.47,1.06-.53,1.18-.47,1-.47,1.06-.54,1.12-.53,1.05-.47,1.12-.53,1.07-.53,1.12-.59,1.06-.53,1.07-.48,1.12-.59,1.06-.53,1.05-.59,1.07-.53,1.07-.53,1.05-.58,1.12-.59,1.07-.58,1.06-.53,1-.59,1.06-.59,1.06-.53,1.06-.59,1.06-.58,1-.65,1.06-.59,1.06-.65,1-.59,1.06-.58,1-.59,1.06-.59,1.06-.65,1-.65,1.06-.65,1-.59,1.07-.65,1-.65,1-.7,1-.59,1-.65,1-.71,1-.65,1-.65,1.05-.65,1-.71,1-.7.95-.65,1-.65.99-.71,1-.71.95-.7,1-.71,1-.71.94-.65,1-.7.94-.76,1-.65.95-2.36,2.77-.48.59-.46.65-.54.58-.52.65-.48.59-.53.53-.53.53-.59.59-.48.59-.53.59-.59.53-.59.53-.59.53-.53.59-.53.53-.65.53-.59.48-.53.52-.59.53-.65.53-.59.41-.65.53-.59.48-.58.52-.65.48-.59.47-.65.47-.65.41-.7.48-.59.41-.65.47-.7.42-.77.53-.82.41-.88.47-.88.42-.83.41-.82.35-1,.24-.82.41-.89.18-.94.24-.94.23-.94.18-.95.12-.88.12-1.06.06h-2.01l-1.06-.06ZM294.36.03l-.76.06-.89.06-.76.11-.88.18-.83.24-.88.24-.83.29-.82.35-.76.36-.76.47-.71.41-.71.48-.71.59-.65.53-.65.58-.59.59-.58.71-.53.71-.53.71-.47.76-.53.83-.48.77-.41.82-.41.82-.48.83-.36.88-.35.83-.41.88-.3.82-.29.89-.29.88-.23.88-.24.89-.23.94-.23.88-.18.71-.12.76-.18.77-.24.71-.12.76-.24.71-.17.76-.18.76-.23.71-.24.76-.18.71-.18.77-.17.7-.29.7-.18.77-.23.76-16.02,53.02h-14.79l-.88.06-.88.06-.83.06-.88.11-.88.18-.65.06-.58.18-.53.18-.59.17-.59.41-.58.35-.77.76-.59.88-.53.89-.29,1-2.65,7.89-.41,1.24.06-.24-.18.59v-.06l-.12.36.12-.18-.12.65v1.18l.18.71.41.94.71.71.65.41.71.17.88.18.88.12.88.06h16.79l-13.73,48.6-.17.76-.24.71-.18.76-.24.71-.23.83-.18.71-.23.71-.24.76-.24.71-.23.76-.24.77-.29.7-.23.71-.23.71-.24.76-.29.77-.18.65-.35.76-.23.77-.29.65-.24.76-.29.71-.24.76-.35.71-.24.65-.29.76-.35.71-.23.71-.36.71-.24.71-.35.71-.29.71-.47,1.06-.48,1-.52,1.07-.54.94-.53,1.06-.59,1-.59.94-.59,1.01-.65.87-.65,1.01-.65.94-.71.88-.71.88-.65.88-.76.88-.76.88-.47.41-.41.47-.48.47-.46.36-.41.41-.53.41-.47.41-.47.42-.65.46-.7.47-.71.48-.71.41-.76.53-.71.41-.7.42-.77.35-.71.36-.76.47-.76.35-.71.29-.82.41-.76.3-.76.29-.76.29-.83.23-.76.36-.83.18-.76.23-.83.3-.76.17-.88.18-.76.24-.88.12-.76.17-.83.12-.82.12-.83.11-.88.06-.83.11-.88.06-1.07-.06-.94-.06-.82-.11-.95-.06-.82-.12-.82-.12-.95-.12-.83-.11-.82-.12-.88-.18-.88-.18-.83-.18-.88-.11-.83-.24-.88-.18-.83-.18-.82-.29-.94-.18-.89-.35-.82-.41-.88-.41-.94-.71-.83-.76-.65-.89-.53-1.05-.29-.65-.23-.71-.24-.71-.18-.65-.06-.76-.06-.7-.06-.71v-1.59l.06-.77.06-.82.06-.89v-.7l.12-.76.11-.76.12-.71.12-.76.06-.83.18-.76.12-.71.11-.76.12-.76.18-.71.12-.76.18-.7.12-.77.18-.76.18-.76.17-.76.18-.71.18-.76.18-.76.18-.71.24-.76.18-.65.18-.76.18-.76.24-.76.23-.71.24-.7.24-.77.18-.71.29-.7.23-.77.18-.71.3-.65.18-.65.24-.7.18-.7.29-.59.18-.71.23-.71.24-.59.23-.7.24-.66.24-.7.23-.65.24-.65.23-.71.24-.65.24-.65.23-.7.24-.65.24-.71.23-.59.29-.7.18-.65.29-.71.24-.59.23-.7.29-.71.18-.65.29-.65.24-.65.29-.7.18-.65.29-.65.24-.65.29-.71.23-.65.3-.58.23-.65.29-.71.18-.65.35-.65.23-.65.29-.71.24-.65.29-.59.23-.7.3-.65.23-.71.35-.59.18-.65.36-.7.23-.65.29-.65.29-.65.24-.65.29-.65.29-.65.29-.65.24-.65.35-.65.18-.66.36-.7.23-.59.35-.65.36-.88.35-.76.36-.83.35-.89.35-.76.48-.88.35-.76.35-.88.36-.83.41-.76.36-.88.35-.76.41-.83.35-.83.41-.82.35-.83.41-.83.41-.82.35-.83.41-.76.41-.82.35-.83.41-.83.36-.82.47-.77.35-.88.41-.76.41-.82.47-.83.36-.83.41-.76.41-.82.48-.83.41-.82.41-.76.41-.83.36-.77.47-.88.35-.77.41-.82.36-.82.47-.83.35-.83.36-.82.41-.88.35-.76.35-.82.35-.89.47-1,.24-1.06v-.88l-.18-.89-.36-1.05-.53-1-.7-.88-.71-.83-.71-.53-.71-.53-.64-.59-.77-.46-.7-.48-.83-.41-.76-.35-.76-.36-.59-.23-.65-.3-.58-.23-.59-.18-.53-.24-.59-.23-.65-.18-.58-.18-.59-.18-.65-.23-.59-.12-.59-.18-.65-.18-.59-.11-.65-.12-.59-.11-.65-.18-.65-.06-.53-.06-.65-.11-.65-.12-.65-.06-.65-.06-.59-.12h-1.3l-.58-.06h-.65l-.59-.06h-2.01l-.58.06h-.59l-.58.06-.59.06-1,.24-1,.29-.95.47-.82.59-.83.94-.7,1-.41.77-.41.83-.36.83-.35.82-.35.83-.29.82-.35.88-.23.88-2.3,7.25-.76-.71-.83-.82-.76-.71-.89-.76-.82-.71-.88-.65-.95-.65-.83-.65-.94-.65-1-.59-.94-.53-.95-.53-1-.53-1-.53-1-.47-1-.41-1.12-.35-1.06-.36-1.12-.41-1.18-.29-1.12-.36-1.12-.24-1.12-.23-1.18-.18-1.18-.24-1.12-.12-1.24-.12-1.12-.11-1.12-.06-1.18-.06-1.18-.06-1.24.06h-.65l-.65.06h-1.41l-.65.06-.71.06-.7.06h-.65l-.65.06-.71.06-.71.06-.65.06-.65.12-.71.12-.65.12h-.7l-.65.11-.71.18-.65.12-.65.12-.71.06-.65.18-.65.18-.65.12-.71.12-.65.17-.65.24-.65.06-.65.18-.71.23-.65.18-.58.18-.71.23-.65.18-.65.24-.58.16-.66.24-.7.24-.65.23-.65.24-.53.23-.65.29-.66.18-.64.29-.65.24-.59.3-.65.29-.59.23-.65.3-.59.36-.65.23-.53.36-.59.29-.65.3-.58.35-.65.3-.59.29-.59.41-.59.29-.58.41-.54.29-.58.36-.59.36-.65.41-.65.41-.65.48-.65.41-.7.47-.65.48-.66.46-.65.48-.65.47-.65.48-.71.46-.58.47-.65.47-.65.48-.65.46-.59.53-.59.53-.65.53-.66.47-.65.54-.58.53-.59.53-.58.53-.59.53-.65.53-.58.53-.59.53-.58.58-.59.53-.59.53-.59.53-.53.53-.59.58-.53.54-.59.58-.59.59-.53.58-.59.59-.53.59-.53.59-.59.59-.48.59-.58.59-.53.59-.53.65-.53.59-.48.59-.52.65-.53.65-.48.58-.53.65-.47.59-.53.65-.46.65-.48.59-.53.65-.53.65-.41.71-.47.65-.48.59-.47.65-.46.71-.41.65-.48.65-.47.65-.65.94-.59,1.01-.65.88-.58.95-.65.93-.59.95-.58,1-.53.95-.59.93-.59.95-.53.94-.59,1.06-.53.95-.53,1-.53,1-.53.93-.53,1-.47,1-.53,1-.48,1-.47,1.06-.53,1-.41,1.01-.47,1.05-.48,1-.41,1.01-.47,1.06-.41,1-.41,1.06-.41,1.06-.41,1-.36,1.06-.41.88-.29.95-.35.89-.3.88-.29.88-.29.94-.23.89-.3.93-.23.89-.29.93-.18.89-.29.94-.24.95-.18.88-.24.95-.11.94-.24.94-.12.89-.18.94-.11,1-.18.89-.12.93-.11.95-.12.94-.12,1-.05.89-.06.94-.12.95-.06.94v1.94l-.06.94v2.01l.06,1v2l.06,1,.12,1,.06,1,.11.83.12.94.06.82.11.95.12.88.18.89.11.88.12.88-.71.47-.83.36-.7.41-.76.36-.89.35-.7.3-.83.41-.82.29-.76.36-.83.24-.82.35-.83.23-.83.24-.83.23-.82.24-.88.18-1,.29-.94.18-1,.18-1,.3-1,.12-1,.18-1,.23-1,.12-1.05.12-1.01.11-1,.12-1,.12-1,.06-1,.12-1.06.05-1,.06-6.59,22.06v.03h.81l.71-.12h.82l.76-.06h1.47l.82-.06.83-.06.71-.06.83-.06.76-.06.76-.06.71-.12.82-.06.77-.06.76-.11.76-.06.76-.12.82-.12.71-.06.77-.06.76-.18.76-.11.76-.12.76-.12.77-.12.76-.18.76-.17.76-.06.76-.18.71-.17.83-.12.58-.18.59-.12.59-.18.59-.06.65-.23.58-.18.65-.12.59-.18.59-.24.59-.12.58-.18.59-.24.58-.18.59-.18.58-.23.59-.24.58-.18.59-.17.59-.3.53-.23.59-.18.58-.3.59-.23.53-.24.59-.23.58-.29.53-.29.58-.23.59-.24.53-.35.53-.24.59-.35.53.7.59.65.53.59.59.64.65.6.65.53.65.47.65.53.7.48.77.47.65.35.76.41.83.42.7.35.83.24.76.35,1,.29,1.01.41,1,.18,1,.29,1.01.23,1,.24,1.01.18,1,.24,1,.12,1.06.11,1.07.12,1,.06,1.06.06,1,.12h2.71l.65-.12h.65l.65-.06h.59l.65-.06.65-.06.66-.06h.65l.58-.11.59-.06.65-.11.65-.18.65-.06.58-.06.59-.11.58-.18.65-.12.66-.11.58-.18.65-.18.59-.06.58-.18.59-.23.65-.12.58-.18.59-.3.59-.11.65-.24.52-.29.59-.12.58-.24.59-.18.58-.29.59-.23.59-.29.58-.24.53-.24.59-.29.59-.29.48-.29.58-.3.53-.23.53-.36.59-.24.53-.36.53-.35.59-.29.53-.35.53-.36.46-.29.59-.41.53-.3.47-.41.53-.36.48-.41.52-.35.48-.41.53-.41.53-.35.47-.41.53-.41.41-.42.53-.47.48-.35.47-.41.47-.48.41-.41.53-.41.48-.35.46-.47.47-.48.59-.53.53-.58.59-.59.52-.58.59-.65.53-.59.59-.58.53-.65.59-.53.53-.65.53-.59.59-.58.53-.65.53-.65.53-.59.53-.59.53-.65.53-.65.53-.66.53-.65.53-.58.48-.65.52-.65.48-.59.53-.65.53-.65.47-.65.53-.65.53-.65.48-.65.53-.66.47-.7.47-.65.48-.65.46-.65.48-.7.41-.65.54-.65.41-.7.53-.71.47-.65.41-.65.41-.71.48-.71.46-.65.41-.71.48-.7.41-.7.41-.65.41-.71.47-.71.47-.65.41-.76.35-.71.48-.65.41-.82.41-.71.36-.65.41-.77.41-.7.41-.65.36-.76.41-.71.41-.76-.24.71-.29.58-.18.71-.24.65-.23.71-.24.65-.23.65-.18.71-.29.65-.12.65-.24.65-.23.71-.18.65-.29.65-.11.71-.24.65-.18.71-.24.65-.23.65-.12.71-.23.65-.24.64-.11.71-.23.71-.18.59-.18.71-.18.7-.18.71-.18.59-.23.7-.12.71-.17.71-.24.82-.18.83-.23.88-.18.88-.12.83-.17.94-.18.89-.11.83-.06.88-.12.95-.12.82-.06.95-.12.88-.06.83v3.59l.06.82.12.89.11,1.18.24,1.18.29,1.18.35,1.18.41,1.05.52,1.07.59,1,.65,1,.7.88.71.88.88.89.82.76.95.77,1,.71,1,.53,1.06.59,1,.47,1,.46,1,.42,1.01.35,1.05.35,1,.3,1.12.23,1.06.35.88.18.83.11.82.24.94.12.82.12.83.12.94.23.82.12.88.06.89.12.82.12.88.11.88.12.88.06.88.12.88.06.82.12.88.06.88.06.83.06h1.76l.88.06.89.12h1.77l.88.06h3.53l.88-.06h2.88l.83-.12.88-.06h.77l.88-.06.82-.06.88-.11.77-.12.82-.12.83-.11.83-.11.82-.12.83-.18.82-.12.83-.24.83-.17.76-.12.82-.18.82-.29.83-.12.83-.24.76-.23.76-.24.83-.24.82-.23.71-.29.88-.29.76-.18.76-.29.76-.29.82-.35.77-.3.76-.35.83-.29.71-.29.82-.42.77-.29.76-.42.77-.35.82-.41.71-.29.76-.48.76-.41.76-.35.77-.41.71-.36.7-.53.76-.41.71-.41.76-.47.71-.48.7-.41.71-.48.65-.59.71-.41.7-.53.71-.46.65-.54.71-.47.71-.53.65-.53.65-.58.71-.53.65-.54.65-.53.59.95.7.94.76.83.71.88.47.47.47.53.53.41.47.47.53.47.53.41.53.47.53.42.53.46.53.41.59.36.53.41.53.47.58.36.59.35.52.36.65.41.59.29.59.36.58.29.65.36.53.29.65.35.65.29.65.18.58.36.65.23.59.3.7.17.65.24.65.24.65.23,1.06.29,1.12.41,1.18.24,1.12.29,1.12.36,1.12.29,1.12.24,1.12.29,1.12.23,1.12.18,1.12.29,1.18.24,1.17.12,1.12.29,1.12.18,1.12.12,1.17.12,1.18.18,1.12.11,1.18.12,1.12.12,1.18.11,1.12.06,1.18.06,1.18.06h1.18l1.12.12,1.12.06h3.54l1.12-.06h4.83l.83-.12h.76l.76-.06h1.59l.76-.06.71-.06.83-.06.76-.06.76-.06.76-.06.82-.12.71-.06.76-.06.77-.11.82-.06.77-.12.71-.12.82-.06.71-.06.82-.18.71-.11.83-.12.71-.12.76-.12.83-.18.71-.17.83-.06.71-.18.82-.17.71-.12.59-.18.59-.12.65-.18.59-.06.65-.23.59-.18.53-.12.65-.18.58-.24.59-.12.59-.18.65-.24.59-.18.53-.18.59-.23.58-.24.59-.18.58-.17.59-.3.59-.23.59-.18.53-.3.58-.23.59-.24.53-.23.59-.29.53-.29.53-.23.59-.24.58-.35.53-.24.59-.35.53.7.52.65.65.59.59.64.65.54.59.59.65.47.7.53.71.48.71.47.71.35.71.41.82.42.83.35.7.24.83.35,1,.29.94.41,1,.18,1,.29,1,.23,1.01.24,1,.18,1.06.24,1,.12,1.06.11,1,.12,1.07.06,1,.06,1.06.12h2.71l.65-.12h.59l.65-.06h.65l.65-.06.59-.06.58-.06h.65l.65-.11.65-.06.65-.11.53-.18.65-.06.65-.06.65-.11.64-.18.59-.12.59-.11.59-.18.65-.18.65-.06.59-.18.65-.23.53-.12.58-.18.59-.3.59-.11.65-.24.59-.29.59-.12.58-.24.53-.18.65-.29.53-.23.59-.29.59-.24.53-.24.53-.29.59-.29.58-.29.59-.3.53-.23.59-.36.46-.24.59-.36.53-.35.59-.29.53-.35.47-.36.53-.29.53-.41.59-.3.41-.41.53-.36.53-.41.53-.35.53-.41.41-.41.53-.35.47-.41.47-.41.47-.42.53-.47.53-.35.41-.41.53-.48.47-.41.41-.41.48-.35.47-.47.41-.48.58-.53.59-.58.58-.59.59-.58.59-.65.53-.59.52-.58.59-.65.58-.53.54-.65.58-.59.47-.58.59-.65.53-.65.53-.59.59-.59.48-.65.53-.65.53-.66.53-.65.47-.58.53-.65.53-.65.53-.59.47-.65.53-.65.47-.65.53-.65.41-.65.53-.65.47-.66.53-.7.41-.65.53-.65.48-.65.47-.7.46-.65.53-.65.48-.7.41-.71.48-.65.35-.65.53-.71.47-.71.48-.65.41-.71.41-.7.41-.7.47-.65.47-.71.36-.71.47-.65.41-.76.41-.71.41-.65.41-.82.41-.71.41-.65.41-.77.41-.7.29-.65.47-.76.41-.71.36-.76-.24.71-.24.58-.23.71-.18.65-.29.71-.18.65-.24.65-.23.71-.24.65-.18.65-.23.65-.24.71-.18.65-.18.65-.29.71-.12.65-.23.71-.24.65-.17.65-.18.71-.23.65-.18.64-.18.71-.18.71-.23.59-.18.71-.12.7-.29.71-.18.59-.11.7-.18.71-.24.71-.18.82-.18.83-.17.88-.18.88-.18.83-.18.94-.06.89-.23.83-.12.88-.06.95-.06.82-.06.95-.12.88-.06.83v.94l-.06.82v.95l.06.88.06.82.12.89.06,1.18.23,1.18.29,1.18.41,1.18.41,1.05.53,1.07.59,1,.65,1,.65.88.76.88.76.89.94.76.95.77.88.71,1.07.53,1.06.59,1,.47,1,.46,1.06.42,1,.35,1.06.35,1.01.3,1.12.23,1,.35.88.18.82.11.88.24.83.12.88.12.88.12.83.23.95.12.82.06.88.12.88.12.88.11.82.12.88.06.88.12.88.06.88.12.83.06.88.06.88.06h1.83l.82.06.83.12h1.82l.83.06h3.54l.88-.06h2.95l6.36-21.92-1.12-.11-.95-.12-.82-.05-.88-.12-.95-.06-.82-.12-.83-.12-.95-.17-.88-.12-.83-.18-.89-.12-.88-.18-.88-.12-.82-.3-.83-.18-.93-.18-.83-.18-.88-.29-1-.35-.82-.41-.83-.41-1-.71-.77-.7-.65-.88-.58-.94-.23-.71-.24-.65-.24-.83-.18-.71-.12-.71-.06-.76-.06-.71v-1.59l.06-.77v-.82l.11-.89.06-.7.11-.76.12-.76.05-.71.12-.76.11-.83.12-.76.11-.71.12-.76.18-.76.18-.71.06-.76.17-.7.12-.77.18-.76.18-.76.18-.76.18-.71.18-.76.17-.76.24-.71.17-.76.18-.65.18-.76.29-.76.18-.76.18-.71.24-.7.23-.77.24-.71.17-.7.29-.77.24-.71.18-.65.29-.65.18-.7.29-.7.18-.59.17-.71.24-.71.24-.59.24-.7.17-.66.29-.7.24-.65.29-.65.23-.71.18-.65.29-.65.18-.7.24-.65.23-.71.29-.59.18-.7.29-.65.18-.71.29-.59.29-.7.18-.71.35-.65.18-.65.29-.65.23-.7.24-.65.24-.65.29-.65.23-.71.3-.65.23-.58.23-.65.3-.71.23-.65.29-.65.29-.65.18-.71.35-.65.23-.59.24-.7.29-.65.29-.71.24-.59.29-.65.3-.7.29-.65.24-.65.29-.65.23-.65.36-.65.24-.65.23-.65.35-.65.24-.65.35-.66.23-.7.36-.59.23-.65.36-.88.36-.76.41-.83.29-.89.47-.76.29-.83.36-.82.41-.88.35-.83.36-.76.41-.88.41-.76.36-.83.35-.83.41-.82.41-.83.35-.83.41-.82.41-.83.36-.76.41-.82.41-.83.41-.83.41-.82.35-.77.41-.88.41-.76.41-.82.35-.83.41-.83.47-.76.41-.82.41-.76.41-.82.36-.76.47-.83.35-.77.41-.76.35-.83.41-.83.41-.77.29-.82.47-.76.29-.82.41-.77.35-.82.41-.83.29-.83.3-.58.17-.59.18-.58.24-.65v-.82l-.18-.83-.35-1.12-.53-1-.65-.94-.83-.83-.65-.53-.71-.53-.7-.59-.71-.46-.76-.48-.76-.41-.83-.35-.76-.36-.59-.23-.53-.3-.58-.23-.65-.18-.59-.24-.58-.23-.65-.18-.59-.18-.59-.18-.59-.23-.59-.12-.65-.18-.59-.18-.65-.11-.59-.12-.64-.11-.59-.18-.65-.06-.65-.06-.65-.11-.59-.12-.65-.06-.65-.06-.59-.12h-1.24l-.65-.06h-.65l-.65-.06h-1.89l-.58.06h-.65l-.59.06-.65.06-.95.24-.94.29-1,.47-.83.59-.83.94-.65,1-.47.77-.41.83-.36.83-.41.82-.24.83-.41.82-.24.88-.23.88-2.3,7.25-.82-.71-.76-.82-.83-.71-.88-.76-.88-.71-.83-.65-.82-.65-.94-.65-.95-.65-.94-.59-.94-.53-.94-.53-1.01-.53-1-.53-1.06-.47-1-.41-1.12-.35-1.12-.36-1.06-.41-1.12-.29-1.18-.36-1.05-.24-1.18-.23-1.18-.18-1.12-.24-1.12-.12-1.24-.12-1.18-.11-1.12-.06-1.23-.06-1.12-.06-1.12.06h-.71l-.71.06h-1.35l-.77.06-.65.06-.59.06h-.71l-.76.06-.65.06-.71.06-.59.06-.71.12-.71.12-.7.12h-.59l-.71.11-.71.18-.58.12-.71.12-.59.06-.7.18-.71.18-.65.12-.65.12-.65.17-.65.24-.71.06-.65.18-.65.23-.65.18-.65.18-.65.23-.65.18-.65.24-.65.16-.65.24-.65.24-.65.23-.65.24-.65.23-.65.29-.58.18-.65.29-.59.24-.58.3-.65.29-.65.23-.58.3-.59.36-.65.23-.65.36-.59.29-.65.3-.53.35-.53.3-.65.29-.58.41-.59.29-.65.41-.58.29-.59.36-.52.36-.59.41-.65.41-.65.48-.71.41-.71.47-.58.48-.7.46-.65.48-.65.47-.59.48-.71.46-.65.47-.65.47-.65.48-.59.46-.65.53-.65.53-.65.53-.58.47-.53.54-.65.53-.65.53-.59.53-.65.53-.58.53-.59.53-.53.53-.59.58-.58.53-.59.53-.58.53-.59.53-.59.58-.59.54-.53.58-.59.59-.53.58-.53.59-.59.59-.53.59-.53.59-.53.59-.54.59-.52.59-.59.65-.47.59-.53.59-.53.65-.53.65-.48.58-.53.65-.47.59-.53.65-.48.65-.47.59-.46.65-.48.65-.53.71-.41.65-.47.59-.53.65-.47.71-.47.65-.41.65-.41.65-.65.94-.65,1.01-.65.88-.59.95-.59.93-.59.95-.59,1-.59.95-.59.93-.58.95-.53.94-.59,1.06-.53.95-.53,1-.53,1-.53.93-.53,1-.47,1-.48,1-.53,1-.47,1.06-.47,1-.47,1.01-.42,1.05-.46,1-.47,1.01-.41,1.06-.41,1-.48,1.06-.35,1.06-.47,1-.36,1.06-.35.88-.35.95-.29.89-.29.88-.29.88-.29.94-.29.89-.29.93-.24.89-.23.93-.29.89-.18.94-.24.95-.24.88-.18.95-.18.94-.18.94-.18.89-.18.94-.18,1-.06.89-.18.93-.12.95-.11.94-.06,1-.06.89-.12.94-.06.95-.06.94-.06,1-.06.95v3.95l.12,1.05v.95l.06,1,.12,1,.06,1,.06.83.11.94.12.82.12.95.12.88.11.89.18.88.12.88-.77.47-.71.36-.82.41-.77.36-.82.35-.76.3-.83.41-.76.29-.83.36-.76.24-.89.35-.76.23-.88.24-.83.23-.82.24-.83.18-1,.29-1,.18-1,.18-1,.3-1,.12-1,.18-1,.23-1,.12-1,.12-1,.11-1,.12-1,.12-1.05.06-1.01.12-1,.05-1.18.06-1-.06-.71-.05-.76-.06-.71-.06-.76-.06-.76-.06-.71-.06-.71-.12-.7-.06-.77-.11-.76-.12h-.7l-.77-.18-.7-.12-.71-.12-.76-.11-.95-.11-.94-.24-.95-.18-1-.18-.88-.29-.94-.23-.88-.29-1-.29-.82-.29-.95-.35-.88-.29-.89-.48-.88-.35-.88-.41-.88-.41-.76-.42-.65-.47-.59-.29-.59-.42-.53-.41-.76-.53-.71-.65-.7-.71-.65-.71-.59-.76-.53-.77-.53-.76-.47-.83-.36-.82-.35-.88-.29-.95-.24-.88-.18-.95-.12-.88-.11-1.01v-1.65l.06-.65.06-.65.06-.71.06-.65.06-.65.06-.71.06-.65.12-.71.06-.59.12-.65.11-.7.12-.65.12-.65.18-.65.12-.59.23-1,.18-.93.23-1.01.24-1,.23-.95.18-.93.3-.95.23-.94.29-1,.24-.94.29-.94.23-.95.35-.94.24-1,.29-.94.29-.95,16.09-52.84h26.33l.76-.06.71-.06.77-.12.76-.06.71-.12.83-.11.76-.18.83-.3.76-.29.65-.36.59-.41.53-.53.46-.47.41-.59.41-.65.29-.71.24-.7,2.77-7.89.17-.65.12-.59.06-.82v-.77l-.12-.82-.35-.76-.53-.66-.37-.37-.1-.04h.06l-.23-.11.18.11-.65-.41-.47-.12-1-.29-.88-.12-.94-.06h-28.45l18.79-55.31.35-1.01.41-1,.35-1,.36-1,.41-1,.35-.95.36-1,.35-.95.29-.59.23-.59.24-.65.23-.53.23-.65.24-.59.18-.59.24-.59.23-.59.18-.65.18-.59.18-.65.18-.59.24-.58.11-.59.18-.65.17-.76.12-.65.06-.83.06-.71v-.65l-.12-.65-.06-.59-.23-.59-.24-.65-.35-.53-.36-.53-.35-.53-.48-.41-.53-.41-.47-.41-.59-.41-.53-.41-.53-.29-.59-.36-.59-.17-1.07-.48-1.12-.41-.94-.24-.88-.23-.89-.18-.88-.24-.95-.11-.93-.18-.89-.18-.94-.12-.94-.12-.89-.05-.93-.06-.89-.06-.93-.06h-3.6Z"/>
  <polygon class="cls-4" points="499.86 77.22 500.16 77.52 500.57 78.05 500.87 78.58 501.22 79.11 501.46 79.64 501.63 80.29 501.81 80.88 501.87 81.52 501.93 82.17 501.63 83 501.34 83.88 500.98 84.76 500.63 85.59 500.22 86.47 499.86 87.29 499.45 88.12 499.04 89 498.63 89.83 498.22 90.71 497.86 91.53 497.45 92.36 497.04 93.25 496.62 94.07 496.15 94.96 495.8 95.78 495.33 96.61 494.86 97.43 494.44 98.19 494.03 99.02 493.62 99.78 493.21 100.67 492.79 101.43 492.44 102.26 492.03 103.08 491.68 103.91 491.21 104.67 490.79 105.56 490.44 106.32 490.03 107.15 489.61 107.97 489.2 108.79 488.85 109.62 488.49 110.39 488.02 111.28 487.67 112.04 487.32 112.92 486.9 113.69 486.55 114.51 486.14 115.34 485.78 116.16 485.37 116.99 485.02 117.81 484.66 118.69 484.31 119.46 483.9 120.28 483.6 121.11 483.2 121.99 482.78 122.82 482.49 123.64 482.19 124.23 481.9 124.88 481.6 125.59 481.31 126.23 481.01 126.82 480.72 127.53 480.49 128.18 480.19 128.82 479.9 129.48 479.6 130.06 479.36 130.77 479.07 131.42 478.83 132.07 478.48 132.72 478.24 133.36 477.95 134.01 477.72 134.72 477.36 135.31 477.13 136.01 476.89 136.66 476.59 137.31 476.36 137.96 476.12 138.61 475.77 139.31 475.59 139.96 475.24 140.61 475.06 141.26 474.77 141.91 474.53 142.55 474.24 143.2 474 143.85 473.71 144.56 473.53 145.2 473.18 145.85 473 146.5 472.76 147.21 472.47 147.86 472.24 148.56 472 149.21 471.7 149.86 471.47 150.56 471.23 151.22 471 151.86 470.76 152.51 470.47 153.22 470.29 153.86 470.06 154.51 469.82 155.22 469.59 155.87 469.35 156.51 469.06 157.22 468.82 157.87 468.58 158.58 468.35 159.17 468.17 159.87 467.87 160.52 467.7 161.23 467.47 161.87 467.28 162.53 467.05 163.23 466.81 163.88 466.58 164.53 466.34 165.23 466.17 165.94 465.99 166.59 465.7 167.18 465.58 167.82 465.4 168.47 465.17 169.06 464.99 169.71 464.81 170.3 464.64 170.95 464.46 171.6 464.28 172.25 464.11 172.89 463.99 173.48 463.75 174.13 463.57 174.78 463.46 175.43 463.34 176.07 462.99 177.08 462.75 178.14 462.46 179.19 462.28 180.26 462.04 181.31 461.81 182.32 461.63 183.43 461.45 184.44 461.34 185.56 461.22 186.56 461.04 187.68 460.92 188.74 460.87 189.8 460.81 190.92 460.75 191.92 460.69 193.04 460.69 194.1 460.81 195.1 460.92 196.16 461.22 197.1 461.45 197.87 461.69 198.58 462.04 199.28 462.46 199.93 462.99 200.52 463.52 201.11 464.11 201.64 464.75 202.11 464.4 201.81 465.11 202.28 465.52 202.52 466.17 202.7 466.76 202.99 467.4 203.17 468.11 203.35 468.76 203.64 469.41 203.76 470.06 203.88 470.76 204 470.47 203.29 470.24 202.58 470 201.88 469.82 201.11 469.7 200.4 469.59 199.63 469.53 198.92 469.53 198.05 469.53 197.28 469.59 196.45 469.65 195.69 469.7 194.87 469.76 194.1 469.88 193.27 470 192.57 470.12 191.8 470.17 191.04 470.29 190.33 470.47 189.5 470.53 188.79 470.71 188.03 470.83 187.27 471 186.5 471.06 185.73 471.23 185.03 471.47 184.27 471.53 183.56 471.7 182.79 471.89 182.02 472.06 181.31 472.24 180.55 472.41 179.78 472.59 179.02 472.83 178.31 473.06 177.6 473.18 176.84 473.47 176.07 473.65 175.36 473.82 174.66 474.12 173.95 474.3 173.19 474.53 172.48 474.77 171.77 475 171.01 475.18 170.3 475.48 169.65 475.71 168.94 475.89 168.29 476.18 167.65 476.36 166.94 476.59 166.29 476.83 165.59 477.01 164.93 477.24 164.29 477.54 163.58 477.77 162.94 477.95 162.29 478.24 161.64 478.42 160.93 478.66 160.22 478.95 159.64 479.13 158.93 479.36 158.28 479.66 157.58 479.9 156.93 480.07 156.28 480.37 155.57 480.6 154.93 480.89 154.28 481.07 153.62 481.31 152.92 481.6 152.28 481.84 151.62 482.14 150.98 482.37 150.28 482.61 149.62 482.9 148.97 483.13 148.33 483.37 147.62 483.67 146.97 483.9 146.32 484.14 145.67 484.43 145.03 484.72 144.32 484.96 143.73 485.25 143.02 485.43 142.38 485.78 141.73 486.02 141.08 486.32 140.43 486.55 139.72 486.84 139.08 487.14 138.49 487.38 137.78 487.67 137.13 487.97 136.48 488.2 135.84 488.49 135.25 488.73 134.54 489.03 133.89 489.32 133.25 489.61 132.6 489.91 131.95 490.15 131.3 490.5 130.6 490.74 130 491.09 129.36 491.32 128.71 491.68 127.83 492.09 127 492.44 126.23 492.74 125.35 493.21 124.59 493.5 123.7 493.92 122.88 494.27 122.05 494.68 121.23 495.03 120.46 495.39 119.58 495.8 118.81 496.15 117.93 496.57 117.16 496.92 116.28 497.33 115.51 497.74 114.63 498.04 113.87 498.51 112.98 498.86 112.22 499.28 111.45 499.63 110.57 500.1 109.8 500.51 108.98 500.87 108.21 501.28 107.32 501.69 106.56 502.1 105.67 502.52 104.91 502.87 104.09 503.34 103.31 503.75 102.49 504.17 101.67 504.58 100.91 504.93 100.14 505.4 99.31 505.76 98.55 506.17 97.72 506.52 96.95 506.94 96.13 507.34 95.37 507.7 94.54 508.05 93.78 508.47 92.95 508.82 92.12 509.17 91.3 509.58 90.54 509.94 89.71 510.17 89.13 510.35 88.53 510.53 87.95 510.7 87.29 510.7 86.47 510.65 85.64 510.23 84.53 509.7 83.52 509.06 82.58 508.23 81.76 507.58 81.23 506.87 80.64 506.17 80.11 505.4 79.58 504.7 79.17 503.93 78.76 503.16 78.34 502.28 78.05 501.63 77.69 500.92 77.46 500.22 77.1 499.57 76.87 499.22 76.51 499.86 77.22"/>
  <polygon class="cls-3" points="427.65 200.27 427.11 200.97 426.64 201.56 426.17 202.22 425.7 202.86 425.17 203.51 424.64 204.1 424.11 204.74 423.64 205.39 423.11 206.05 422.58 206.57 422.05 207.22 421.52 207.87 421.05 208.45 420.46 209.04 419.93 209.63 419.34 210.22 418.87 210.87 418.28 211.4 417.69 211.99 417.16 212.58 416.63 213.17 416.04 213.76 415.45 214.29 414.86 214.87 414.28 215.41 413.69 215.99 413.1 216.53 412.51 217.05 411.86 217.64 411.33 218.18 410.68 218.65 410.09 219.18 409.56 219.65 409.15 220.06 408.68 220.47 408.15 220.88 407.68 221.24 407.15 221.65 406.68 222.06 406.14 222.48 405.67 222.83 405.14 223.24 404.61 223.59 404.14 223.89 403.55 224.24 403.02 224.6 402.5 224.95 401.96 225.3 401.44 225.66 400.9 225.95 400.31 226.24 399.78 226.54 399.25 226.83 398.72 227.13 398.13 227.49 397.54 227.77 396.95 228.01 396.48 228.31 395.89 228.54 395.31 228.78 394.72 229.02 394.19 229.31 393.6 229.54 392.95 229.78 392.36 230.02 391.83 230.25 391.24 230.43 390.59 230.66 390 230.84 389.47 231.02 388.82 231.2 388.23 231.37 387.59 231.55 387.06 231.72 386.41 231.9 385.82 232.02 385.17 232.2 384.58 232.31 383.94 232.49 383.35 232.61 382.7 232.73 382.11 232.85 381.46 232.96 380.81 233.02 380.22 233.14 379.63 233.2 378.99 233.32 378.34 233.37 377.69 233.37 377.11 233.44 376.45 233.49 375.81 233.49 375.16 233.55 374.57 233.55 373.86 233.61 373.28 233.61 372.21 233.61 371.21 233.61 370.15 233.55 369.09 233.49 368.09 233.44 367.09 233.37 366.03 233.25 365.03 233.08 363.97 232.9 362.96 232.67 361.96 232.49 360.96 232.2 359.96 231.96 358.96 231.67 357.95 231.31 357.01 230.96 355.89 230.6 354.78 230.08 353.72 229.54 352.66 228.95 351.6 228.37 350.65 227.66 349.71 226.95 348.77 226.13 349.71 226.48 350.65 226.72 351.6 227.02 352.59 227.25 353.54 227.49 354.54 227.72 355.48 227.89 356.48 228.07 357.48 228.19 358.43 228.31 359.43 228.43 360.43 228.48 361.37 228.48 362.44 228.54 363.38 228.54 364.37 228.54 365.03 228.54 365.67 228.48 366.27 228.48 366.91 228.48 367.56 228.48 368.2 228.43 368.79 228.37 369.44 228.31 370.09 228.24 370.74 228.13 371.33 228.07 371.98 227.96 372.57 227.84 373.21 227.77 373.86 227.66 374.45 227.54 375.1 227.37 375.69 227.25 376.33 227.13 376.92 226.95 377.51 226.78 378.17 226.66 378.75 226.48 379.4 226.31 379.93 226.13 380.52 226.01 381.17 225.77 381.76 225.6 382.35 225.37 382.94 225.13 383.53 224.95 384.11 224.71 384.7 224.48 385.29 224.19 385.88 223.95 386.47 223.71 387 223.48 387.53 223.24 388.11 222.95 388.7 222.65 389.29 222.36 389.83 222.06 390.36 221.77 390.94 221.47 391.47 221.18 392.06 220.88 392.53 220.53 393.12 220.23 393.66 219.88 394.19 219.53 394.66 219.18 395.19 218.82 395.78 218.53 396.25 218.11 396.78 217.76 397.25 217.35 397.78 217 398.31 216.58 398.78 216.23 399.31 215.82 399.72 215.41 400.26 215 400.73 214.58 401.25 214.11 401.79 213.7 402.26 213.22 402.78 212.7 403.32 212.22 403.85 211.7 404.32 211.28 404.85 210.75 405.38 210.22 405.91 209.75 406.44 209.22 406.91 208.75 407.44 208.22 407.91 207.69 408.44 207.16 408.97 206.63 409.39 206.22 409.92 205.63 410.39 205.1 410.92 204.57 411.39 204.04 411.86 203.56 412.33 203.04 412.8 202.45 413.27 201.91 413.8 201.44 414.21 200.86 414.69 200.33 415.16 199.73 415.63 199.21 416.1 198.68 416.57 198.15 416.98 197.55 417.4 197.03 417.87 196.5 418.34 195.9 418.81 195.32 419.16 194.79 419.64 194.2 420.05 193.67 420.52 193.08 420.93 192.49 421.4 191.9 421.75 191.38 422.17 190.78 422.58 190.2 423.05 189.6 423.47 189.02 423.87 188.42 424.23 187.84 424.64 187.25 425.05 186.66 425.47 186.07 425.82 185.48 426.23 184.83 426.59 184.3 427 183.65 427.35 183.06 427.77 182.42 428.12 181.89 428.53 181.24 428.88 180.59 429.24 179.94 429.59 179.41 429.94 178.76 430.36 178.12 430.77 177.47 431.12 176.88 431.48 176.29 431.83 175.64 432.24 175 432.6 174.41 433.01 173.75 433.36 173.11 433.77 172.46 434.07 171.87 434.48 171.22 434.84 170.58 435.19 169.93 435.54 169.34 435.95 168.63 435.72 169.34 435.48 169.99 435.25 170.64 435.01 171.28 434.78 171.99 434.54 172.64 434.3 173.28 434.07 173.99 433.83 174.58 433.72 175.29 433.48 175.94 433.25 176.64 433.01 177.29 432.83 177.94 432.6 178.65 432.42 179.3 432.19 179.94 432.01 180.65 431.77 181.3 431.6 181.95 431.36 182.66 431.24 183.3 431.06 184.01 430.83 184.66 430.65 185.3 430.47 186.01 430.3 186.71 430.06 187.37 429.89 188.02 429.71 188.72 429.53 189.37 429.35 190.07 429.18 190.72 429.06 191.38 428.94 191.96 428.83 192.61 428.71 193.26 428.59 193.9 428.47 194.49 428.36 195.14 428.24 195.79 428.12 196.44 428.06 197.03 427.94 197.73 427.82 198.38 427.77 199.03 427.7 199.62 427.65 200.27"/>
  <polygon class="cls-3" points="452.5 106.47 451.44 106.11 450.44 105.82 449.32 105.52 448.32 105.35 447.26 105.17 446.2 105.05 445.08 104.99 443.96 104.93 443.08 104.99 442.13 105.05 441.25 105.17 440.31 105.29 439.37 105.41 438.48 105.58 437.6 105.82 436.66 106.05 435.83 106.29 434.89 106.52 434.06 106.82 433.18 107.17 432.29 107.53 431.47 107.88 430.65 108.29 429.76 108.7 428.76 109.18 427.76 109.76 426.76 110.3 425.76 110.83 424.7 111.41 423.76 112.01 422.75 112.65 421.81 113.3 420.98 113.89 420.1 114.48 419.34 115.07 418.45 115.71 417.62 116.3 416.86 116.95 415.98 117.6 415.15 118.25 414.38 118.89 413.62 119.6 412.8 120.25 412.03 120.96 411.26 121.67 410.5 122.37 409.68 123.02 408.97 123.72 408.2 124.5 407.43 125.2 406.79 125.96 406.02 126.67 405.26 127.37 404.6 128.2 403.9 128.91 403.19 129.73 402.49 130.44 401.84 131.27 401.13 132.03 400.43 132.85 399.78 133.62 399.13 134.44 398.48 135.27 397.83 136.04 397.24 136.86 396.59 137.69 395.95 138.51 395.36 139.34 394.77 140.16 394.18 140.93 393.53 141.81 392.94 142.64 392.35 143.46 391.83 144.34 391.29 145.17 390.71 146.05 390.12 146.94 389.65 147.76 389.11 148.64 388.59 149.53 388.05 150.41 387.52 151.3 387.05 152.17 386.58 153.06 386.05 153.95 385.58 154.89 385.11 155.77 384.69 156.71 384.22 157.6 383.75 158.54 383.28 159.43 382.87 160.37 382.51 161.31 382.1 162.25 381.63 163.19 381.28 164.14 380.93 164.84 380.57 165.61 380.27 166.32 380.04 167.08 379.75 167.85 379.45 168.55 379.16 169.33 378.93 170.09 378.63 170.8 378.39 171.56 378.15 172.33 377.92 173.09 377.68 173.86 377.51 174.62 377.33 175.39 377.1 176.16 376.92 176.98 376.74 177.68 376.57 178.51 376.39 179.28 376.21 180.1 376.1 180.81 375.98 181.64 375.86 182.46 375.74 183.17 375.62 183.99 375.51 184.82 375.39 185.58 375.33 186.35 375.21 187.17 375.21 187.94 375.15 188.76 375.1 190.06 375.1 191.24 375.15 192.35 375.21 193.53 375.39 194.65 375.57 195.77 375.8 196.89 376.1 198.01 376.39 199.07 376.74 199.89 377.16 200.72 376.33 200.72 375.57 200.6 374.74 200.49 373.97 200.25 373.21 200.01 372.5 199.72 371.79 199.37 371.09 198.95 370.5 198.48 369.97 198.01 369.5 197.42 369.03 196.89 368.61 196.18 368.2 195.48 367.85 194.77 367.55 194 367.26 193.24 367.02 192.48 366.85 191.71 366.67 190.88 366.61 190.12 366.49 189.47 366.44 188.7 366.38 187.94 366.32 187.23 366.26 186.52 366.26 185.76 366.26 184.99 366.26 184.28 366.32 183.46 366.38 182.69 366.44 181.99 366.49 181.17 366.55 180.4 366.61 179.69 366.73 178.86 366.85 178.1 366.96 177.39 367.08 176.63 367.2 175.86 367.32 175.09 367.5 174.33 367.67 173.56 367.79 172.8 367.97 172.09 368.14 171.33 368.32 170.56 368.56 169.85 368.73 169.09 368.96 168.38 369.15 167.61 369.38 166.91 369.62 166.14 369.91 165.43 370.14 164.72 370.38 163.96 370.68 163.25 370.97 162.54 371.26 161.78 371.56 161.13 372.38 159.07 372.79 158.07 373.21 157.18 373.62 156.24 374.03 155.3 374.44 154.36 374.92 153.41 375.33 152.53 375.8 151.65 376.27 150.71 376.74 149.77 377.21 148.88 377.63 148 378.15 147.11 378.69 146.23 379.21 145.34 379.75 144.46 380.22 143.58 380.75 142.69 381.28 141.87 381.87 140.93 382.4 140.11 382.93 139.28 383.52 138.39 384.1 137.57 384.69 136.75 385.23 135.92 385.87 135.03 386.46 134.27 387.11 133.45 387.7 132.62 388.35 131.8 388.99 131.03 389.65 130.2 390.23 129.38 390.94 128.55 391.59 127.73 392.3 126.97 392.94 126.14 393.59 125.37 394.3 124.61 395.01 123.84 395.71 123.08 396.42 122.37 397.18 121.61 397.83 120.84 398.6 120.13 399.36 119.42 400.07 118.72 400.84 117.95 401.6 117.24 402.37 116.53 403.14 115.89 403.96 115.19 404.67 114.53 405.49 113.83 406.32 113.19 407.08 112.53 407.91 111.88 408.79 111.3 409.56 110.65 410.38 110 411.26 109.41 412.09 108.82 412.97 108.18 413.91 107.58 414.85 106.94 415.86 106.35 416.86 105.7 417.8 105.17 418.86 104.64 419.86 104.11 420.92 103.64 421.93 103.17 422.99 102.69 424.11 102.28 425.11 101.86 426.23 101.52 427.29 101.16 428.41 100.81 429.47 100.52 430.18 100.34 430.94 100.28 431.65 100.16 432.29 100.04 433 99.98 433.71 99.93 434.42 99.86 435.12 99.86 436.3 99.93 437.36 99.98 438.48 100.1 439.6 100.34 440.72 100.52 441.78 100.81 442.84 101.11 443.9 101.52 444.49 101.69 445.08 101.99 445.61 102.22 446.2 102.52 446.73 102.81 447.26 103.04 447.85 103.34 448.37 103.69 448.85 103.99 449.43 104.28 449.97 104.64 450.49 104.99 451.03 105.35 451.44 105.7 451.97 106.05 452.5 106.47"/>
  <polygon class="cls-4" points="336.67 218.51 336.14 218.81 335.55 219.1 334.97 219.34 334.43 219.57 333.84 219.87 333.32 220.17 332.73 220.4 332.19 220.64 331.61 220.87 331.08 221.17 330.49 221.4 329.9 221.58 329.31 221.87 328.72 222.05 328.13 222.23 327.54 222.52 326.95 222.7 326.36 222.88 325.83 223.05 325.19 223.29 324.6 223.47 324.01 223.59 323.42 223.82 322.77 224 322.18 224.11 321.59 224.29 321 224.53 320.42 224.65 319.76 224.76 319.17 224.88 318.59 225.05 317.7 225.23 316.82 225.41 315.93 225.59 315.11 225.7 314.23 225.94 313.34 226.06 312.52 226.23 311.58 226.29 310.75 226.53 309.87 226.65 308.92 226.76 308.1 226.83 307.22 226.94 306.33 227 305.45 227.12 304.45 227.23 303.68 227.3 303.03 227.35 302.39 227.41 301.74 227.47 301.09 227.47 300.39 227.53 299.8 227.59 299.14 227.65 298.44 227.71 297.79 227.71 297.14 227.77 296.5 227.77 295.85 227.83 295.2 227.83 294.55 227.88 293.9 227.88 289.9 227.88 288.72 227.94 287.6 227.94 286.42 227.94 285.25 227.94 284.12 227.88 282.89 227.88 281.77 227.83 280.65 227.77 279.47 227.65 278.35 227.59 277.18 227.47 276 227.35 274.93 227.23 273.7 227.12 272.58 226.94 271.4 226.83 270.28 226.7 269.1 226.53 268.04 226.23 266.86 226.12 265.69 225.88 264.56 225.65 263.45 225.41 262.27 225.17 261.15 224.88 260.09 224.65 258.97 224.35 257.85 224.06 256.73 223.7 255.56 223.47 254.43 223.05 253.37 222.76 252.78 222.52 252.2 222.34 251.61 222.11 251.08 221.94 250.49 221.64 249.96 221.4 249.37 221.23 248.78 220.87 249.54 221.47 250.37 221.99 251.14 222.52 251.96 223.05 252.73 223.52 253.55 224 254.38 224.41 255.26 224.88 256.08 225.29 256.97 225.7 257.85 226.12 258.68 226.53 259.56 226.83 260.44 227.23 261.33 227.53 262.21 227.83 263.33 228.18 264.45 228.48 265.57 228.83 266.68 229.12 267.81 229.42 268.93 229.71 270.04 229.95 271.22 230.24 272.28 230.42 273.4 230.71 274.58 230.95 275.7 231.13 276.88 231.42 278 231.54 279.12 231.71 280.29 231.95 281.42 232.07 282.59 232.18 283.77 232.31 284.89 232.42 286.07 232.54 287.19 232.66 288.31 232.78 289.48 232.83 290.66 232.89 291.84 232.95 292.96 232.95 294.08 233.01 295.32 233.01 296.44 233.01 297.61 233.01 298.79 232.95 302.8 232.95 303.56 232.95 304.39 232.95 305.16 232.89 305.92 232.89 306.75 232.83 307.51 232.78 308.28 232.71 309.04 232.66 309.81 232.59 310.58 232.54 311.34 232.48 312.11 232.42 312.93 232.36 313.64 232.24 314.4 232.18 315.17 232.07 316 232.07 316.76 231.95 317.53 231.77 318.29 231.71 319.06 231.6 319.83 231.54 320.59 231.42 321.36 231.3 322.12 231.06 322.89 231 323.66 230.89 324.36 230.71 325.19 230.59 325.89 230.42 326.72 230.3 327.42 230.12 328.48 229.89 329.6 229.59 330.72 229.35 331.78 229.01 332.84 228.71 333.91 228.35 334.97 228.06 336.03 227.65 337.14 227.3 338.14 226.88 339.2 226.53 340.26 226.12 341.27 225.65 342.27 225.17 343.33 224.7 344.39 224.17 343.33 223.59 342.33 223 341.39 222.29 340.44 221.58 339.56 220.82 338.73 219.99 338.03 219.17 337.26 218.22 336.67 218.51"/>
  <polygon class="cls-3" points="326.37 91.19 328.9 91.19 329.84 91.19 330.79 91.31 331.73 91.43 332.61 91.66 333.15 91.83 334.09 92.37 333.68 92.07 334.32 92.6 334.85 93.25 335.15 94.02 335.26 94.84 335.26 95.66 335.21 96.44 335.09 97.08 334.97 97.73 332.14 105.63 331.91 106.33 331.61 106.97 331.26 107.63 330.84 108.21 330.32 108.75 329.79 109.22 329.2 109.63 328.55 110.04 327.79 110.33 327.01 110.57 326.25 110.8 325.43 110.92 324.66 110.98 323.89 111.1 323.13 111.16 322.42 111.22 321.65 111.28 320.89 111.28 320.18 111.34 319.36 111.34 295.32 111.34 279.3 164.18 278.94 165.12 278.65 166.07 278.42 167.01 278.12 167.95 277.83 168.89 277.53 169.83 277.29 170.84 277.06 171.78 276.77 172.72 276.53 173.66 276.3 174.66 276.06 175.66 275.83 176.55 275.59 177.55 275.41 178.49 275.18 179.49 275.06 180.14 274.88 180.79 274.82 181.44 274.65 182.09 274.59 182.79 274.47 183.38 274.35 184.09 274.23 184.74 274.18 185.45 274.12 186.03 274.06 186.74 274 187.39 273.94 188.1 273.88 188.68 273.88 189.39 273.82 190.1 273.88 190.87 273.88 191.75 274 192.63 274.18 193.4 274.35 194.28 274.59 195.11 274.82 195.81 275.18 196.63 275.53 197.4 275.94 198.11 276.35 198.82 276.89 199.52 277.36 200.23 277.95 200.82 278.54 201.47 279.18 202.06 278.47 201.77 277.77 201.53 277.12 201.17 276.47 200.88 275.83 200.59 275.12 200.29 274.53 199.94 273.88 199.59 273.29 199.23 272.7 198.88 272.17 198.46 271.58 198.05 271.11 197.7 270.58 197.23 270.05 196.76 269.58 196.28 269.11 195.81 268.69 195.34 268.29 194.81 267.87 194.23 267.46 193.69 267.16 193.1 266.81 192.51 266.46 191.93 266.1 191.1 265.81 190.28 265.58 189.39 265.34 188.51 265.16 187.68 265.04 186.74 264.99 185.86 264.99 184.97 264.99 184.32 265.04 183.61 265.04 183.03 265.1 182.32 265.16 181.62 265.22 180.97 265.28 180.32 265.4 179.67 265.46 178.96 265.58 178.32 265.7 177.73 265.81 177.02 265.93 176.37 266.05 175.73 266.22 175.08 266.34 174.43 266.52 173.43 266.76 172.49 266.99 171.48 267.23 170.54 267.46 169.6 267.63 168.6 267.93 167.65 268.17 166.71 268.4 165.77 268.69 164.82 268.93 163.82 269.23 162.88 269.52 161.94 269.82 160.99 270.11 160.05 270.4 159.11 286.43 106.21 310.52 106.21 311.47 106.27 312.35 106.21 313.23 106.21 314.18 106.1 315.06 106.03 316 105.92 316.88 105.8 317.77 105.63 318.77 105.33 319.71 104.97 320.3 104.62 320.89 104.15 321.48 103.68 321.95 103.14 322.36 102.56 322.71 101.91 323.01 101.26 323.25 100.55 326.07 92.66 326.25 91.96 326.37 91.19"/>
  <polygon class="cls-4" points="317.37 7.34 317.73 8.28 318.02 9.29 318.08 10.35 318.02 10.94 317.96 11.59 317.9 12.18 317.73 12.77 317.61 13.41 317.43 14 317.26 14.71 317.08 15.35 316.84 16 316.67 16.65 316.43 17.24 316.25 17.89 316.02 18.6 315.84 19.18 315.55 19.83 315.31 20.43 315.07 21.07 314.84 21.72 314.6 22.31 314.31 22.95 313.9 23.9 313.54 24.9 313.19 25.84 312.84 26.84 312.42 27.78 312.07 28.85 311.72 29.85 311.31 30.85 292.57 86.1 303.12 86.1 320.26 35.85 320.62 34.91 320.91 33.91 321.32 32.91 321.67 31.91 322.03 30.96 322.38 29.91 322.8 28.96 323.2 27.96 323.44 27.43 323.67 26.78 323.98 26.19 324.15 25.66 324.38 25.08 324.56 24.43 324.8 23.84 325.03 23.19 325.21 22.6 325.44 22.01 325.62 21.42 325.8 20.83 326.03 20.19 326.15 19.6 326.33 18.95 326.5 18.36 326.68 17.65 326.8 16.89 326.86 16.18 326.92 15.42 326.92 14.77 326.8 14.18 326.68 13.53 326.5 12.94 326.21 12.35 325.98 11.76 325.56 11.29 325.15 10.82 324.68 10.23 324.21 9.82 323.74 9.41 323.2 9.05 322.68 8.7 322.09 8.35 321.5 8.05 320.91 7.76 319.91 7.34 318.9 7.05 317.9 6.7 316.9 6.46 317.37 7.34"/>
  <path class="cls-4" d="M236.41,106.33l-.06.42v.47l.06.76.12.71.41,1,.7.71.59.41.76.18.88.17.94.12.83.06h6.54l1.41-5.13-13.2.12ZM236.41,106.33l.12-.47-.12.47Z"/>
  <polygon class="cls-4" points="231.43 208.28 230.78 208.82 230.13 209.34 229.43 209.93 228.78 210.47 228.07 211 227.42 211.47 226.72 212 226.01 212.47 225.3 213 224.65 213.41 223.95 213.94 223.24 214.41 222.54 214.88 221.83 215.36 221.12 215.83 220.35 216.23 219.59 216.65 218.94 217.06 218.18 217.54 217.41 217.94 216.64 218.3 215.88 218.72 215.17 219.12 214.4 219.48 213.64 219.89 212.81 220.19 212.11 220.66 211.28 220.95 210.52 221.3 209.75 221.66 208.93 221.95 208.04 222.31 207.1 222.72 206.16 223.02 205.21 223.42 204.33 223.72 203.39 224.07 202.44 224.37 201.5 224.66 200.51 224.95 199.56 225.25 198.61 225.49 197.67 225.66 196.73 225.96 195.67 226.13 194.79 226.37 193.73 226.6 193.02 226.72 192.37 226.84 191.67 226.96 191.02 227.07 190.37 227.2 189.72 227.25 189.07 227.37 188.36 227.43 187.72 227.55 187.07 227.61 186.36 227.61 185.72 227.67 185.07 227.72 184.36 227.78 183.71 227.9 183.01 227.9 180.12 227.9 179.23 227.96 178.35 227.96 177.47 227.96 176.53 227.96 175.64 227.96 174.82 227.9 173.87 227.9 172.99 227.9 172.17 227.78 171.29 227.72 170.34 227.72 169.52 227.67 168.63 227.61 167.75 227.61 166.87 227.49 165.98 227.43 165.1 227.37 164.21 227.25 163.33 227.07 162.45 227.07 161.56 226.96 160.68 226.84 159.79 226.72 158.97 226.6 158.09 226.43 157.21 226.31 156.38 226.13 155.44 226.02 154.61 225.89 153.73 225.66 152.84 225.49 152.02 225.37 151.02 225.02 150.01 224.84 149.02 224.48 147.96 224.19 148.54 224.66 149.13 225.19 149.66 225.61 150.31 226.02 150.9 226.43 151.54 226.84 152.13 227.2 152.79 227.55 153.55 227.9 154.32 228.2 155.08 228.61 155.85 228.85 156.62 229.14 157.38 229.43 158.09 229.67 158.97 229.9 159.68 230.14 160.5 230.32 161.27 230.61 162.09 230.79 162.86 230.9 163.74 231.03 164.51 231.2 165.33 231.32 166.04 231.44 166.8 231.55 167.51 231.67 168.22 231.73 168.98 231.85 169.69 231.97 170.46 232.02 171.22 232.14 171.93 232.21 172.7 232.26 173.4 232.38 174.17 232.44 174.93 232.44 175.59 232.5 176.35 232.61 177.05 232.68 177.88 232.73 178.59 232.73 179.29 232.79 180.06 232.85 180.83 232.85 181.59 232.91 182.3 232.91 183.01 232.91 183.77 232.91 184.54 232.91 185.25 232.97 186.01 232.97 186.71 232.97 187.48 232.97 188.25 232.97 188.95 232.91 191.9 232.91 192.67 232.91 193.55 232.91 194.37 232.79 195.2 232.73 196.02 232.68 196.85 232.5 197.73 232.44 198.56 232.32 199.38 232.21 200.21 232.08 200.98 231.97 201.8 231.79 202.62 231.67 203.45 231.5 204.27 231.32 205.1 231.14 205.92 230.9 206.75 230.79 207.51 230.49 208.34 230.26 209.11 230.08 209.93 229.79 210.76 229.61 211.58 229.38 212.29 229.08 213.11 228.85 213.87 228.61 214.76 228.25 215.46 228.02 216.29 227.61 217 227.37 217.82 227.02 218.47 226.72 219.18 226.43 219.88 226.13 220.59 225.89 221.24 225.49 221.95 225.25 222.65 224.9 223.3 224.55 224.01 224.19 224.65 223.89 225.3 223.49 225.95 223.19 226.66 222.83 227.31 222.36 227.95 222.07 228.6 221.66 229.25 221.24 229.9 220.89 230.55 220.54 231.14 220.13 231.78 219.66 232.43 219.24 233.08 218.83 233.73 218.41 234.31 218.01 234.9 217.54 235.49 217.12 236.15 216.65 236.73 216.18 237.32 215.76 237.97 215.29 238.56 214.82 237.56 214 236.73 213.23 235.91 212.41 235.02 211.47 234.26 210.64 233.49 209.64 232.79 208.7 232.08 207.75 231.43 208.28"/>
  <polygon class="cls-4" points="205.93 77.22 206.22 77.52 206.64 78.05 206.93 78.58 207.23 79.11 207.46 79.64 207.7 80.29 207.75 80.88 207.87 81.52 207.87 82.17 207.7 83 207.34 83.88 206.99 84.76 206.64 85.59 206.22 86.47 205.87 87.29 205.46 88.12 205.1 89 204.63 89.83 204.28 90.71 203.87 91.53 203.45 92.36 203.04 93.25 202.62 94.07 202.22 94.96 201.75 95.78 201.33 96.61 200.86 97.43 200.45 98.19 200.04 99.02 199.68 99.78 199.27 100.67 198.8 101.43 198.39 102.26 198.03 103.08 197.62 103.91 197.21 104.67 196.79 105.56 196.44 106.32 196.03 107.15 195.62 107.97 195.26 108.79 194.85 109.62 194.5 110.39 194.09 111.28 193.67 112.04 193.32 112.92 192.91 113.69 192.56 114.51 192.2 115.34 191.85 116.16 191.43 116.99 191.03 117.81 190.73 118.69 190.26 119.46 189.9 120.28 189.55 121.11 189.2 121.99 188.84 122.82 188.49 123.64 188.2 124.23 187.9 124.88 187.61 125.59 187.37 126.23 187.08 126.82 186.78 127.53 186.49 128.18 186.19 128.82 185.9 129.48 185.66 130.06 185.37 130.77 185.07 131.42 184.84 132.07 184.48 132.72 184.25 133.36 183.95 134.01 183.72 134.72 183.42 135.31 183.19 136.01 182.83 136.66 182.66 137.31 182.36 137.96 182.13 138.61 181.77 139.31 181.6 139.96 181.3 140.61 181.07 141.26 180.78 141.91 180.54 142.55 180.24 143.2 180.01 143.85 179.72 144.56 179.48 145.2 179.24 145.85 179.01 146.5 178.71 147.21 178.48 147.86 178.24 148.56 178.01 149.21 177.77 149.86 177.54 150.56 177.3 151.22 177 151.86 176.77 152.51 176.53 153.22 176.3 153.86 176.06 154.51 175.82 155.22 175.59 155.87 175.35 156.51 175.12 157.22 174.88 157.87 174.65 158.58 174.41 159.17 174.18 159.87 173.94 160.52 173.76 161.23 173.53 161.87 173.29 162.53 173.05 163.23 172.82 163.88 172.64 164.53 172.35 165.23 172.17 165.94 171.94 166.59 171.76 167.18 171.58 167.82 171.4 168.47 171.17 169.06 171.05 169.71 170.82 170.3 170.64 170.95 170.52 171.6 170.29 172.25 170.17 172.89 169.99 173.48 169.81 174.13 169.58 174.78 169.46 175.43 169.29 176.07 169.05 177.08 168.75 178.14 168.52 179.19 168.28 180.26 168.05 181.31 167.87 182.32 167.64 183.43 167.46 184.44 167.34 185.56 167.22 186.56 167.05 187.68 166.98 188.74 166.87 189.8 166.81 190.92 166.75 191.92 166.7 193.04 166.7 194.1 166.81 195.1 166.98 196.16 167.17 197.1 167.46 197.87 167.69 198.58 168.05 199.28 168.52 199.93 168.99 200.52 169.52 201.11 170.17 201.64 170.76 202.11 170.4 201.81 171.17 202.28 171.52 202.52 172.17 202.7 172.82 202.99 173.47 203.17 174.06 203.35 174.76 203.64 175.41 203.76 176.06 203.88 176.77 204 176.47 203.29 176.24 202.58 176 201.88 175.82 201.11 175.71 200.4 175.59 199.63 175.53 198.92 175.53 198.05 175.59 197.28 175.59 196.45 175.65 195.69 175.71 194.87 175.77 194.1 175.89 193.27 176 192.57 176.06 191.8 176.24 191.04 176.36 190.33 176.47 189.5 176.53 188.79 176.71 188.03 176.83 187.27 177 186.5 177.06 185.73 177.3 185.03 177.42 184.27 177.54 183.56 177.71 182.79 177.95 182.02 178.06 181.31 178.24 180.55 178.48 179.78 178.59 179.02 178.83 178.31 179.06 177.6 179.24 176.84 179.42 176.07 179.65 175.36 179.89 174.66 180.12 173.95 180.3 173.19 180.59 172.48 180.78 171.77 181.01 171.01 181.25 170.3 181.48 169.65 181.72 168.94 181.89 168.29 182.13 167.65 182.36 166.94 182.6 166.29 182.83 165.59 183.07 164.93 183.3 164.29 183.48 163.58 183.78 162.94 183.95 162.29 184.19 161.64 184.43 160.93 184.72 160.22 184.96 159.64 185.13 158.93 185.43 158.28 185.66 157.58 185.9 156.93 186.13 156.28 186.37 155.57 186.61 154.93 186.9 154.28 187.08 153.62 187.37 152.92 187.61 152.28 187.84 151.62 188.14 150.98 188.37 150.28 188.67 149.62 188.84 148.97 189.14 148.33 189.38 147.62 189.67 146.97 189.9 146.32 190.2 145.67 190.44 145.03 190.73 144.32 190.96 143.73 191.26 143.02 191.5 142.38 191.79 141.73 192.02 141.08 192.32 140.43 192.56 139.72 192.85 139.08 193.15 138.49 193.44 137.78 193.67 137.13 193.97 136.48 194.2 135.84 194.5 135.25 194.79 134.54 195.03 133.89 195.32 133.25 195.62 132.6 195.91 131.95 196.21 131.3 196.5 130.6 196.79 130 197.09 129.36 197.33 128.71 197.68 127.83 198.09 127 198.45 126.23 198.8 125.35 199.21 124.59 199.56 123.7 199.92 122.88 200.33 122.05 200.69 121.23 201.04 120.46 201.39 119.58 201.8 118.81 202.22 117.93 202.57 117.16 202.98 116.28 203.33 115.51 203.69 114.63 204.1 113.87 204.51 112.98 204.92 112.22 205.28 111.45 205.69 110.57 206.1 109.8 206.46 108.98 206.87 108.21 207.28 107.32 207.75 106.56 208.11 105.67 208.52 104.91 208.87 104.09 209.4 103.31 209.76 102.49 210.17 101.67 210.52 100.91 210.99 100.14 211.41 99.31 211.76 98.55 212.17 97.72 212.53 96.95 212.94 96.13 213.35 95.37 213.71 94.54 214.12 93.78 214.47 92.95 214.82 92.12 215.24 91.3 215.59 90.54 215.95 89.71 216.18 89.13 216.42 88.53 216.59 87.95 216.77 87.29 216.77 86.47 216.65 85.64 216.23 84.53 215.71 83.52 215.06 82.58 214.23 81.76 213.59 81.23 212.88 80.64 212.17 80.11 211.46 79.58 210.7 79.17 209.93 78.76 209.17 78.34 208.34 78.05 207.7 77.69 206.99 77.46 206.28 77.1 205.63 76.87 205.22 76.51 205.93 77.22"/>
  <polygon class="cls-4" points="42.68 218.51 42.16 218.81 41.62 219.1 41.03 219.34 40.44 219.57 39.91 219.87 39.32 220.17 38.74 220.4 38.21 220.64 37.67 220.87 37.08 221.17 36.49 221.4 35.91 221.58 35.32 221.87 34.73 222.05 34.14 222.23 33.55 222.52 32.96 222.7 32.38 222.88 31.79 223.05 31.25 223.29 30.61 223.47 30.02 223.59 29.43 223.82 28.84 224 28.19 224.11 27.6 224.29 27.01 224.53 26.42 224.65 25.83 224.76 25.19 224.88 24.6 225.05 23.71 225.23 22.83 225.41 22.01 225.59 21.12 225.7 20.24 225.94 19.35 226.06 18.53 226.23 17.59 226.29 16.76 226.53 15.88 226.65 15 226.76 14.11 226.83 13.29 226.94 12.35 227 11.52 227.12 10.58 227.23 8.87 232.95 9.63 232.95 10.4 232.95 11.17 232.89 11.99 232.89 12.75 232.83 13.52 232.78 14.29 232.71 15.05 232.66 15.82 232.59 16.58 232.54 17.41 232.48 18.12 232.42 18.94 232.36 19.65 232.24 20.48 232.18 21.18 232.07 22.01 232.07 22.77 231.95 23.54 231.77 24.3 231.71 25.07 231.6 25.83 231.54 26.6 231.42 27.37 231.3 28.13 231.06 28.9 231 29.66 230.89 30.43 230.71 31.2 230.59 31.91 230.42 32.73 230.3 33.44 230.12 34.55 229.89 35.61 229.59 36.73 229.35 37.79 229.01 38.91 228.71 39.97 228.35 41.03 228.06 42.09 227.65 43.15 227.3 44.16 226.88 45.21 226.53 46.27 226.12 47.33 225.65 48.34 225.17 49.34 224.7 50.34 224.17 49.34 223.59 48.34 223 47.4 222.29 46.51 221.58 45.63 220.82 44.81 219.99 43.98 219.17 43.27 218.22 42.68 218.51"/>
  <polygon class="cls-4" points="141.56 169.32 141.21 169.96 140.85 170.62 140.5 171.2 140.15 171.85 139.74 172.5 139.38 173.15 139.03 173.79 138.68 174.32 138.26 174.97 137.91 175.62 137.5 176.27 137.09 176.85 136.73 177.5 136.38 178.1 136.03 178.74 135.61 179.39 135.26 179.98 134.9 180.63 134.49 181.22 134.14 181.86 133.79 182.4 133.37 183.04 133.02 183.63 132.67 184.28 132.25 184.87 131.84 185.46 131.43 186.04 131.07 186.64 130.67 187.29 130.25 187.82 129.84 188.4 129.43 188.99 129.07 189.64 128.6 190.23 128.19 190.76 127.78 191.35 127.37 191.87 126.95 192.47 126.48 193.05 126.07 193.65 125.66 194.23 125.24 194.82 124.83 195.3 124.36 195.88 123.89 196.48 123.48 197.06 123.01 197.59 122.54 198.18 122.12 198.65 121.65 199.24 121.18 199.77 120.71 200.31 120.24 200.83 119.76 201.36 119.29 201.89 118.82 202.43 118.41 203.01 117.88 203.54 117.41 204.01 116.88 204.54 116.41 205.08 115.94 205.66 115.41 206.14 114.94 206.66 114.47 207.2 113.99 207.72 113.46 208.19 112.99 208.73 112.46 209.26 111.93 209.79 111.46 210.2 110.93 210.73 110.4 211.26 109.93 211.73 109.34 212.2 108.81 212.67 108.34 213.2 107.75 213.67 107.28 214.09 106.74 214.62 106.34 215.03 105.8 215.38 105.28 215.8 104.81 216.21 104.27 216.62 103.8 216.98 103.27 217.33 102.8 217.8 102.27 218.09 101.8 218.51 101.27 218.86 100.68 219.21 100.21 219.5 99.68 219.92 99.15 220.21 98.56 220.51 98.03 220.86 97.5 221.21 96.91 221.51 96.38 221.81 95.85 222.04 95.26 222.33 94.73 222.63 94.14 222.93 93.61 223.22 93.02 223.46 92.49 223.69 91.9 223.98 91.31 224.16 90.73 224.51 90.14 224.69 89.55 224.93 88.96 225.11 88.37 225.34 87.78 225.58 87.19 225.75 86.6 225.98 86.01 226.16 85.37 226.29 84.78 226.52 84.13 226.69 83.54 226.87 82.95 226.93 82.36 227.11 81.71 227.28 81.06 227.34 80.48 227.51 79.82 227.64 79.3 227.75 78.65 227.81 78 227.93 77.35 228.05 76.76 228.11 76.11 228.22 75.52 228.29 74.88 228.34 74.23 228.4 73.58 228.4 72.93 228.4 72.35 228.46 71.69 228.46 71.05 228.58 70.4 228.58 69.4 228.58 68.4 228.58 67.46 228.46 66.45 228.4 65.45 228.4 64.45 228.29 63.45 228.17 62.5 228.05 61.51 227.87 60.57 227.7 59.62 227.46 58.62 227.28 57.62 226.99 56.67 226.76 55.73 226.52 54.79 226.16 55.73 226.93 56.67 227.64 57.62 228.34 58.68 228.93 59.68 229.52 60.74 230.05 61.91 230.59 63.04 230.99 63.98 231.34 64.98 231.64 65.98 232 67.04 232.17 67.98 232.47 69.05 232.7 70.04 232.88 71.05 233.06 72.05 233.18 73.05 233.35 74.11 233.47 75.11 233.53 76.17 233.59 77.17 233.65 78.23 233.65 79.3 233.65 79.89 233.65 80.53 233.59 81.18 233.59 81.83 233.53 82.48 233.53 83.07 233.47 83.72 233.41 84.36 233.35 85.01 233.29 85.65 233.18 86.24 233.12 86.83 232.99 87.49 232.94 88.13 232.82 88.78 232.7 89.31 232.64 89.96 232.47 90.55 232.29 91.2 232.17 91.84 232.05 92.43 231.94 93.02 231.7 93.61 231.58 94.2 231.41 94.85 231.17 95.43 231.06 96.09 230.82 96.68 230.64 97.26 230.4 97.85 230.23 98.38 229.99 98.97 229.76 99.56 229.52 100.15 229.34 100.74 228.99 101.33 228.81 101.92 228.58 102.51 228.29 103.04 227.98 103.63 227.75 104.15 227.46 104.69 227.11 105.21 226.87 105.8 226.57 106.34 226.29 106.93 225.93 107.45 225.63 107.98 225.28 108.51 224.93 109.04 224.64 109.57 224.22 110.1 223.93 110.64 223.57 111.11 223.22 111.63 222.81 112.17 222.51 112.7 222.04 113.17 221.63 113.7 221.28 114.17 220.86 114.7 220.45 115.17 220.04 115.64 219.63 116.12 219.21 116.71 218.68 117.35 218.15 117.94 217.62 118.53 217.09 119.12 216.56 119.71 215.97 120.3 215.38 120.89 214.85 121.48 214.27 122 213.73 122.59 213.14 123.18 212.56 123.71 211.97 124.3 211.44 124.89 210.85 125.36 210.2 125.89 209.67 126.48 209.08 127.01 208.43 127.54 207.84 128.07 207.2 128.6 206.61 129.07 206.02 129.66 205.37 130.2 204.72 130.72 204.07 131.19 203.48 131.73 202.9 132.2 202.25 132.67 201.6 133.14 200.95 133.67 200.31 133.73 199.65 133.79 199 133.9 198.36 133.96 197.71 134.02 197.06 134.14 196.41 134.26 195.77 134.38 195.12 134.43 194.47 134.61 193.88 134.73 193.23 134.85 192.58 134.96 191.94 135.08 191.35 135.26 190.76 135.44 190.11 135.55 189.4 135.73 188.7 135.96 188.05 136.08 187.4 136.32 186.69 136.5 185.98 136.67 185.34 136.85 184.69 137.09 183.98 137.2 183.34 137.44 182.68 137.62 181.98 137.79 181.27 138.03 180.68 138.21 179.98 138.44 179.27 138.68 178.63 138.8 177.98 139.09 177.32 139.21 176.62 139.5 175.91 139.74 175.32 139.86 174.62 140.15 173.97 140.33 173.26 140.56 172.67 140.73 171.97 141.04 171.26 141.27 170.62 141.44 169.96 141.74 169.32 141.91 168.61 141.56 169.32"/>
  <polyline class="cls-3" points="484.94 232.5 481.41 232.97 480.52 233.08 479.52 233.15 478.64 233.2 477.69 233.26 476.69 233.32 475.81 233.32 474.81 233.32 473.86 233.32 472.92 233.26 471.93 233.26 471.04 233.15 470.33 233.15 469.57 233.08 468.92 233.08 468.21 233.03 467.51 232.97 466.74 232.91 466.09 232.85 465.38 232.73 464.68 232.68 464.03 232.55 463.33 232.44 462.62 232.32 461.85 232.2 461.2 232.08 460.5 231.91 459.79 231.79 459.14 231.61 458.44 231.49 457.73 231.32 457.08 231.14 456.43 230.97 455.72 230.78 455.02 230.61 454.37 230.43 453.72 230.2 453.01 230.03 452.3 229.79 451.66 229.55 451.01 229.32 450.3 229.08 449.65 228.85 449.01 228.55 448.42 228.31 447.89 228.14 447.3 227.84 446.83 227.55 446.18 227.2 445.47 226.84 444.88 226.43 444.29 226.02 443.7 225.66 443.11 225.19 442.53 224.66 442 224.19 442.59 224.37 443.18 224.55 443.82 224.72 444.47 224.89 445 225.07 445.65 225.25 446.3 225.37 446.89 225.55 447.48 225.66 448.12 225.78 448.71 225.89 449.36 226.02 449.95 226.13 450.6 226.25 451.25 226.37 451.83 226.49 452.42 226.6 453.08 226.72 453.72 226.78 454.37 226.9 454.96 226.96 455.61 227.07 456.25 227.14 456.84 227.2 457.43 227.25 458.08 227.31 458.73 227.37 459.32 227.43 459.97 227.43 460.61 227.49 461.26 227.55 461.85 227.55 462.67 227.61 463.44 227.67 464.2 227.67 464.91 227.72 465.68 227.72 466.5 227.78 467.21 227.78 467.98 227.84 468.74 227.84 469.51 227.84 470.28 227.9 471.04 227.9 471.75 227.9 472.57 227.9 473.34 227.9 474.05 227.9 477.05 227.9 482.29 209.76 483.35 209.88 484.41 210.05 485.47 210.17 486.48 210.28 487.54 210.4 488.6 210.52 489.66 210.58 490.72 210.7"/>
  <polygon class="cls-3" points="158.5 106.47 157.44 106.11 156.44 105.82 155.38 105.52 154.32 105.35 153.26 105.17 152.2 105.05 151.13 104.99 150.02 104.93 149.07 104.99 148.19 105.05 147.25 105.17 146.31 105.29 145.42 105.41 144.54 105.58 143.6 105.82 142.71 106.05 141.83 106.29 140.95 106.52 140.06 106.82 139.18 107.17 138.35 107.53 137.47 107.88 136.65 108.29 135.82 108.7 134.76 109.18 133.76 109.76 132.76 110.3 131.76 110.83 130.75 111.41 129.75 112.01 128.81 112.65 127.81 113.3 126.98 113.89 126.16 114.48 125.33 115.07 124.45 115.71 123.62 116.3 122.86 116.95 121.98 117.6 121.21 118.25 120.45 118.89 119.62 119.6 118.85 120.25 118.03 120.96 117.26 121.67 116.5 122.37 115.73 123.02 114.97 123.72 114.26 124.5 113.49 125.2 112.79 125.96 112.02 126.67 111.31 127.37 110.6 128.2 109.9 128.91 109.19 129.73 108.48 130.44 107.84 131.27 107.13 132.03 106.48 132.85 105.78 133.62 105.13 134.44 104.48 135.27 103.89 136.04 103.24 136.86 102.59 137.69 102 138.51 101.36 139.34 100.77 140.16 100.18 140.93 99.59 141.81 99 142.64 98.41 143.46 97.82 144.34 97.29 145.17 96.76 146.05 96.17 146.94 95.64 147.76 95.11 148.64 94.58 149.53 94.05 150.41 93.58 151.3 93.05 152.17 92.58 153.06 92.11 153.95 91.58 154.89 91.11 155.77 90.69 156.71 90.22 157.6 89.75 158.54 89.34 159.43 88.93 160.37 88.51 161.31 88.1 162.25 87.69 163.19 87.28 164.14 86.93 164.84 86.63 165.61 86.34 166.32 86.04 167.08 85.75 167.85 85.45 168.55 85.16 169.33 84.92 170.09 84.69 170.8 84.45 171.56 84.22 172.33 83.98 173.09 83.74 173.86 83.51 174.62 83.33 175.39 83.09 176.16 82.92 176.98 82.74 177.68 82.56 178.51 82.39 179.28 82.27 180.1 82.15 180.81 81.98 181.64 81.86 182.46 81.74 183.17 81.62 183.99 81.5 184.82 81.45 185.58 81.33 186.35 81.27 187.17 81.21 187.94 81.15 188.76 81.15 190.06 81.15 191.24 81.15 192.35 81.21 193.53 81.39 194.65 81.56 195.77 81.8 196.89 82.09 198.01 82.39 199.07 82.74 199.89 83.15 200.72 82.39 200.72 81.56 200.6 80.8 200.49 80.03 200.31 79.32 200.01 78.56 199.72 77.85 199.42 77.2 199.01 76.56 198.54 76.02 198.01 75.5 197.48 75.03 196.89 74.61 196.18 74.2 195.48 73.85 194.77 73.55 194 73.32 193.24 73.08 192.48 72.84 191.71 72.73 190.88 72.61 190.12 72.55 189.47 72.43 188.7 72.37 187.94 72.31 187.23 72.31 186.52 72.26 185.76 72.26 184.99 72.31 184.28 72.31 183.46 72.37 182.69 72.43 181.99 72.49 181.17 72.61 180.4 72.67 179.69 72.73 178.86 72.84 178.1 72.96 177.39 73.08 176.63 73.2 175.86 73.38 175.09 73.49 174.33 73.67 173.56 73.85 172.8 73.97 172.09 74.14 171.33 74.37 170.56 74.56 169.85 74.79 169.09 74.96 168.38 75.2 167.61 75.43 166.91 75.67 166.14 75.9 165.43 76.2 164.72 76.44 163.96 76.68 163.25 76.97 162.54 77.26 161.78 77.56 161.13 78.38 159.07 78.79 158.07 79.21 157.18 79.62 156.24 80.03 155.3 80.44 154.36 80.91 153.41 81.33 152.53 81.8 151.65 82.27 150.71 82.74 149.77 83.21 148.88 83.68 148 84.22 147.11 84.69 146.23 85.21 145.34 85.75 144.46 86.22 143.58 86.81 142.69 87.33 141.81 87.87 140.93 88.39 140.11 88.98 139.28 89.57 138.39 90.1 137.57 90.69 136.75 91.28 135.92 91.93 135.03 92.52 134.27 93.11 133.45 93.7 132.62 94.35 131.8 94.99 131.03 95.64 130.2 96.29 129.38 96.94 128.55 97.59 127.73 98.3 126.97 98.94 126.14 99.59 125.37 100.35 124.61 101.01 123.84 101.71 123.08 102.42 122.37 103.18 121.61 103.89 120.84 104.6 120.13 105.36 119.42 106.13 118.72 106.89 117.95 107.6 117.24 108.37 116.53 109.19 115.89 109.96 115.19 110.72 114.53 111.55 113.83 112.31 113.19 113.14 112.53 113.96 111.88 114.79 111.3 115.61 110.65 116.44 110 117.26 109.41 118.09 108.82 118.97 108.18 119.91 107.58 120.85 106.94 121.86 106.35 122.86 105.7 123.86 105.17 124.86 104.64 125.86 104.11 126.92 103.64 127.93 103.17 129.05 102.69 130.11 102.28 131.17 101.86 132.23 101.52 133.35 101.16 134.41 100.81 135.52 100.52 136.23 100.34 136.94 100.28 137.64 100.16 138.35 100.04 139 99.98 139.77 99.93 140.41 99.86 141.18 99.86 142.3 99.93 143.42 99.98 144.54 100.1 145.6 100.34 146.71 100.52 147.78 100.81 148.84 101.11 149.9 101.52 150.49 101.69 151.08 101.99 151.61 102.22 152.2 102.52 152.73 102.81 153.31 103.04 153.85 103.34 154.37 103.69 154.91 103.99 155.43 104.28 155.97 104.64 156.49 104.99 157.03 105.35 157.5 105.7 158.03 106.05 158.5 106.47"/>
  <polyline class="cls-2" points="0 297.67 0 0 510.24 0 510.24 297.67"/>
</svg>