<?xml version="1.0" encoding="UTF-8"?>
<svg id="Layer_1" xmlns="http://www.w3.org/2000/svg" version="1.1" viewBox="0 0 510.2 289.3">
  <!-- Generator: Adobe Illustrator 29.8.4, SVG Export Plug-In . SVG Version: 2.1.1 Build 6)  -->
  <defs>
    <style>
      .st0 {
        fill: #f26727;
      }

      .st1, .st2 {
        fill: #fff;
      }

      .st2 {
        fill-rule: evenodd;
      }

      .st3 {
        isolation: isolate;
      }
    </style>
  </defs>
  <path class="st0" d="M325,87.2h0s.2.1.2.1h-.2q0-.1,0-.1ZM81.3,200.6l-.9-.2-.9-.2-.9-.4-.8-.5-.8-.4-.7-.6-.7-.6-.5-.7-.5-.7-.4-.7-.3-.7-.3-.8-.3-1.1-.2-1.1-.3-1.1-.2-1.1v-1.1c-.1,0-.2-1.1-.2-1.1v-1.2c0,0,0-1.2,0-1.2v-2.1c.1,0,.2-.8.2-.8v-.8c0,0,0-.8,0-.8v-.8c.1,0,.2-.8.2-.8v-.8c.1,0,.2-.8.2-.8v-.8c.1,0,.2-.8.2-.8l.2-.8.2-.8v-.8c.1,0,.3-.8.3-.8l.2-.8.2-.8.2-.8.2-.8.2-.7.2-.8.2-.8.3-.8.2-.8.3-.8.2-.8.4-.7.2-.8.3-.8.3-.7.3-.8.2-.7.3-.8.5-.9.4-.9.4-1,.4-.9.5-.9.5-.9.4-.9.5-.9.5-.9.4-.9.5-.9.5-.9.5-.9.5-.9.5-.9.5-.8.5-.9.6-.8.5-.9.5-.9.5-.8.5-.9.6-.8.6-.8.6-.9.6-.8.6-.9.7-.8.6-.9.6-.8.7-.9.6-.8.7-.8.7-.9.6-.8.7-.8.7-.8.7-.8.7-.8.7-.8.7-.8.7-.8.8-.8.8-.7.7-.8.8-.8.8-.7.7-.7.8-.7.7-.8.8-.7.8-.7.8-.6.8-.7.8-.7.8-.7.8-.7.8-.7.9-.7.8-.7.9-.6.8-.6.8-.7.9-.6.9-.7.9-.6,1-.6,1-.6,1.1-.5,1-.6,1-.5,1-.5.8-.5.9-.4.8-.3.8-.4.9-.3.9-.3.9-.3.9-.2.9-.2.9-.2h.9c0-.1.9-.4.9-.4h.9c0-.1.9-.2.9-.2h.9c0,0,.9-.1.9-.1h1.1c0,0,1.2.1,1.2.1h1.1c0,.1,1.1.3,1.1.3l1.1.2,1.1.3,1.1.3,1.1.4.6.2.6.2.6.2.5.3.6.3.6.3.5.3.5.2.6.4.5.3.5.3.5.3.5.3.5.4.5.4.5.4-1.6,3.7-.5,1.1-.5,1.1-.5,1.2-.5,1.1-.5,1.1-.5,1.1-.5,1.2-.5,1-.5,1.1-.5,1.1-.5,1.1-.5,1.1-.5,1.1-.5,1.1-.5,1.1-.5,1.1-.6,1.1-.5,1.1-.6,1.1-.5,1.1-.6,1.1-.5,1.1-.6,1.1-.6,1.1-.5,1.1-.6,1-.6,1.1-.6,1.1-.6,1.1-.6,1.1-.6,1-.6,1.1-.6,1.1-.6,1-.6,1.1-.6,1-.6,1.1-.6,1.1-.6,1-.6,1.1-.6,1-.6,1.1-.6,1-.6,1-.6,1-.7,1-.6,1-.6,1-.6,1-.7,1.1-.7,1-.7,1-.7.9-.7,1-.7,1-.7,1-.7.9-.7,1-.7,1-.7.9-.7,1-.7.9-.8,1-.7.9-2.3,2.8-.5.6-.5.6-.5.6-.5.6-.5.6-.5.5-.5.5-.5.6-.5.6-.5.6-.6.5-.6.5-.5.5-.6.6-.6.5-.5.5-.7.5-.6.5-.6.5-.6.5-.7.4-.6.5-.6.5-.7.5-.7.5-.6.5-.7.5-.6.4-.7.5-.7.4-.7.5-.7.4-.8.5-.8.4-.8.5-.9.4-.8.4-.9.4-.9.2-.8.4-.9.2-.9.2-.9.2-.9.2h-1c0,.1-.9.2-.9.2h-.9c0,0-2.1,0-2.1,0h-1.1c0-.1,0-.2,0-.2ZM375.4,200.6l-1-.2-.9-.3-.9-.4-.8-.4-.8-.5-.7-.6-.6-.7-.6-.7-.4-.7-.4-.7-.4-.7-.3-.8-.3-1.1-.3-1.1-.2-1.1-.2-1.1v-1.1c-.1,0-.2-1.1-.2-1.1v-4.5c0,0,.1-.8.1-.8v-.8c.1,0,.2-.8.2-.8v-.8c0,0,.2-.8.2-.8v-.8c0,0,.2-.8.2-.8v-.8c.1,0,.3-.8.3-.8v-.8c0,0,.2-.8.2-.8l.2-.8.2-.8.2-.8.2-.8.2-.8.2-.8.2-.7.2-.8.2-.8.2-.8.3-.8.2-.8.3-.8.3-.7.3-.8.2-.8.4-.7.3-.8.3-.7.4-.8.4-.9.4-.9.4-1,.5-.9.4-.9.4-.9.4-.9.5-.9.5-.9.5-.9.4-.9.5-.9.5-.9.5-.9.5-.9.5-.8.5-.9.5-.8.5-.9.6-.9.5-.8.6-.9.6-.8.6-.8.5-.9.6-.8.6-.9.6-.8.6-.9.6-.8.6-.9.6-.8.6-.8.6-.9.7-.8.6-.8.6-.8.7-.8.6-.8.7-.8.7-.8.7-.8.6-.8.8-.7.7-.8.7-.8.8-.7.8-.8.7-.7.8-.8.8-.7.8-.7.8-.6.8-.7.8-.7.8-.7.8-.7.8-.7.8-.7.8-.7.8-.6.9-.6.9-.7.8-.6,1-.7.9-.6,1-.6,1-.6,1-.5,1-.6,1-.5,1.1-.5.9-.5.8-.4.9-.3.9-.4.8-.3.9-.3.8-.3.9-.2,1-.2.8-.2h.9c0-.1.9-.4.9-.4h.9c0-.1.9-.2.9-.2h1c0,0,.9-.1.9-.1h1.1c0,0,1.1.1,1.1.1h1.1c0,.1,1.2.3,1.2.3l1.1.2,1.1.3,1,.3,1.1.4.6.2.6.2.6.2.5.3.6.3.5.3.5.3.6.2.5.4.5.3.6.3.5.3.5.3.5.4.5.4.5.4-1.7,3.7-.5,1.1-.5,1.1-.5,1.2-.4,1.1-.5,1.1-.5,1.1-.5,1.2-.5,1-.5,1.1-.5,1.1-.5,1.1-.5,1.1-.5,1.1-.5,1.1-.6,1.1-.5,1.1-.5,1.1-.6,1.1-.5,1.1-.6,1.1-.5,1.1-.5,1.1-.6,1.1-.6,1.1-.6,1.1-.5,1-.6,1.1-.6,1.1-.5,1.1-.6,1.1-.6,1-.6,1.1-.6,1.1-.6,1-.6,1.1-.6,1-.6,1.1-.6,1.1-.6,1-.6,1.1-.6,1-.6,1.1-.6,1-.6,1-.7,1-.6,1-.6,1-.7,1-.6,1-.6,1.1-.6,1-.7,1-.7.9-.6,1-.6,1-.7,1-.7.9-.7,1-.7,1-.7.9-.6,1-.7.9-.8,1-.6.9-2.4,2.8-.5.6-.5.6-.5.6-.5.6-.5.6-.5.5-.5.5-.6.6-.5.6-.5.6-.6.5-.6.5-.6.5-.5.6-.5.5-.6.5-.6.5-.5.5-.6.5-.6.5-.6.4-.6.5-.6.5-.6.5-.6.5-.6.5-.6.5-.6.4-.7.5-.6.4-.6.5-.7.4-.8.5-.8.4-.9.5-.9.4-.8.4-.8.4-1,.2-.8.4-.9.2-.9.2-.9.2-.9.2h-1c0,.1-.9.2-.9.2h-1.1c0,0-2,0-2,0h-1.1c0,0,0-.2,0-.2ZM294.4,0h-.8c0,0-.9.1-.9.1h-.8c0,.1-.9.3-.9.3l-.8.2-.9.2-.8.3-.8.4-.8.4-.8.5-.7.4-.7.5-.7.6-.6.5-.6.6-.6.6-.6.7-.5.7-.5.7-.5.8-.5.8-.5.8-.4.8-.4.8-.5.8-.4.9-.4.8-.4.9-.3.8-.3.9-.3.9-.2.9-.2.9-.2.9-.2.9-.2.7v.8c-.1,0-.3.8-.3.8l-.2.7v.8c-.1,0-.4.7-.4.7l-.2.8-.2.8-.2.7-.2.8-.2.7-.2.8-.2.7-.3.7-.2.8-.2.8-16,53h-15.7c0,0-.9.1-.9.1h-.8c0,0-.9.2-.9.2l-.9.2h-.6c0,0-.6.2-.6.2l-.5.2-.6.2-.6.4-.6.3-.8.8-.6.9-.5.9-.3,1-2.6,7.9-.4,1.2v-.2c0,0-.1.6-.1.6h0c0,0-.1.3-.1.3v-.2c.1,0,0,.7,0,.7v1.2l.2.7.4.9.7.7.6.4.7.2.9.2h.9c0,.1.9.2.9.2h16.8l-13.7,48.6-.2.8-.2.7-.2.8-.2.7-.2.8-.2.7-.2.7-.2.8-.2.7-.2.8-.2.8-.3.7-.2.7-.2.7-.2.8-.3.8-.2.6-.4.8-.2.8-.3.6-.2.8-.3.7-.2.8-.4.7-.2.6-.3.8-.4.7-.2.7-.4.7-.2.7-.4.7-.3.7-.5,1.1-.5,1-.5,1.1-.5.9-.5,1.1-.6,1-.6.9-.6,1-.6.9-.6,1-.6.9-.7.9-.7.9-.6.9-.8.9-.8.9-.5.4-.4.5-.5.5-.5.4-.4.4-.5.4-.5.4-.5.4-.6.5-.7.5-.7.5-.7.4-.8.5-.7.4-.7.4-.8.4-.7.4-.8.5-.8.4-.7.3-.8.4-.8.3-.8.3-.8.3-.8.2-.8.4-.8.2-.8.2-.8.3-.8.2-.9.2-.8.2h-.9c0,.1-.8.3-.8.3h-.8c0,.1-.8.2-.8.2h-.8c0,.1-.9.2-.9.2h-.8c0,.1-.9.2-.9.2h-1.1c0,0-.9-.1-.9-.1h-.8c0-.1-.9-.2-.9-.2h-.8c0-.1-.8-.2-.8-.2h-.9c0-.1-.8-.2-.8-.2h-.8c0-.1-.9-.3-.9-.3l-.9-.2-.8-.2h-.9c0-.1-.8-.4-.8-.4l-.9-.2-.8-.2-.8-.3-.9-.2-.9-.4-.8-.4-.9-.4-.9-.7-.8-.8-.6-.9-.5-1.1-.3-.6-.2-.7-.2-.7-.2-.6v-.8c0,0-.1-.7-.1-.7v-.7c0,0,0-1.6,0-1.6v-.8c0,0,.1-.8.1-.8v-.9c0,0,0-.7,0-.7v-.8c.1,0,.2-.8.2-.8v-.7c.1,0,.2-.8.2-.8v-.8c0,0,.2-.8.2-.8v-.7c.1,0,.2-.8.2-.8v-.8c.1,0,.3-.7.3-.7v-.8c.1,0,.3-.7.3-.7v-.8c.1,0,.3-.8.3-.8l.2-.8.2-.8.2-.7.2-.8.2-.8.2-.7.2-.8.2-.6.2-.8.2-.8.2-.8.2-.7.2-.7.2-.8.2-.7.3-.7.2-.8.2-.7.3-.6.2-.6.2-.7.2-.7.3-.6.2-.7.2-.7.2-.6.2-.7.2-.7.2-.7.2-.6.2-.6.2-.7.2-.6.2-.6.2-.7.2-.6.2-.7.2-.6.3-.7.2-.6.3-.7.2-.6.2-.7.3-.7.2-.6.3-.6.2-.6.3-.7.2-.6.3-.6.2-.6.3-.7.2-.6.3-.6.2-.6.3-.7.2-.6.4-.6.2-.6.3-.7.2-.6.3-.6.2-.7.3-.6.2-.7.4-.6.2-.6.4-.7.2-.6.3-.6.3-.6.2-.6.3-.6.3-.6.3-.7.2-.7.4-.7.2-.7.4-.7.2-.6.4-.7.4-.9.4-.8.4-.8.4-.9.4-.8.5-.9.4-.8.4-.9.4-.8.4-.8.4-.9.4-.8.4-.8.4-.8.4-.8.4-.8.4-.8.4-.8.4-.8.4-.8.4-.8.4-.8.4-.8.4-.8.5-.8.4-.9.4-.8.4-.8.5-.8.4-.8.4-.8.4-.8.5-.8.4-.8.4-.8.4-.8.4-.8.5-.9.4-.8.4-.8.4-.8.5-.8.4-.8.4-.8.4-.9.4-.8.4-.8.4-.9.5-1,.2-1.1v-.9l-.2-.9-.4-1.1-.5-1-.7-.9-.7-.8-.7-.5-.7-.5-.6-.6-.8-.5-.7-.5-.8-.4-.8-.3-.8-.4-.6-.2-.6-.3-.6-.2-.6-.2-.5-.2-.6-.2-.6-.2-.6-.2-.6-.2-.6-.2h-.6c0-.1-.6-.3-.6-.3l-.6-.2h-.6c0-.1-.6-.2-.6-.2h-.6c0-.1-.6-.3-.6-.3h-.6c0,0-.5-.1-.5-.1h-.6c0-.1-.6-.2-.6-.2h-.6c0,0-.6-.1-.6-.1h-.6c0-.1-1.3-.1-1.3-.1h-.6c0,0-.6,0-.6,0h-.6c0,0-2,0-2,0h-.6c0,0-.6,0-.6,0h-.6c0,0-.6.1-.6.1l-1,.2-1,.3-.9.5-.8.6-.8.9-.7,1-.4.8-.4.8-.4.8-.4.8-.4.8-.3.8-.4.9-.2.9-2.3,7.2-.8-.7-.8-.8-.8-.7-.9-.8-.8-.7-.9-.7-.9-.7-.8-.7-.9-.7-1-.6-.9-.5-.9-.5-1-.5-1-.5-1-.5-1-.4-1.1-.3-1.1-.4-1.1-.4-1.2-.3-1.1-.4-1.1-.2-1.1-.2-1.2-.2-1.2-.2h-1.1c0-.1-1.2-.2-1.2-.2h-1.1c0-.1-1.1-.2-1.1-.2h-1.2c0,0-1.2-.1-1.2-.1h-1.2c0,0-.6,0-.6,0h-.6c0,0-1.4,0-1.4,0h-.6c0,0-.7.1-.7.1h-.7c0,0-.6,0-.6,0h-.6c0,0-.7.1-.7.1h-.7c0,0-.7.1-.7.1h-.7c0,.1-.7.2-.7.2h-.7c0,.1-.7.1-.7.1h-.7c0,.1-.7.3-.7.3h-.7c0,.1-.7.2-.7.2h-.7c0,0-.7.2-.7.2l-.7.2h-.7c0,.1-.7.2-.7.2l-.7.2-.7.2h-.7c0,0-.7.2-.7.2l-.7.2-.7.2-.6.2-.7.2-.7.2-.7.2-.6.2-.7.2-.7.2-.7.2-.7.2-.5.2-.7.3-.7.2-.6.3-.7.2-.6.3-.7.3-.6.2-.7.3-.6.4-.7.2-.5.4-.6.3-.7.3-.6.3-.7.3-.6.3-.6.4-.6.3-.6.4-.5.3-.6.4-.6.4-.7.4-.7.4-.7.5-.7.4-.7.5-.7.5-.7.5-.7.5-.7.5-.7.5-.7.5-.6.5-.7.5-.7.5-.7.5-.6.5-.6.5-.7.5-.7.5-.7.5-.6.5-.6.5-.6.5-.6.5-.7.5-.6.5-.6.5-.6.6-.6.5-.6.5-.6.5-.5.5-.6.6-.5.5-.6.6-.6.6-.5.6-.6.6-.5.6-.5.6-.6.6-.5.6-.6.6-.5.6-.5.7-.5.6-.5.6-.5.7-.5.7-.5.6-.5.7-.5.6-.5.7-.5.7-.5.6-.5.7-.5.7-.4.7-.5.7-.5.6-.5.7-.5.7-.4.7-.5.7-.5.7-.7.9-.6,1-.7.9-.6.9-.7.9-.6.9-.6,1-.5.9-.6.9-.6.9-.5.9-.6,1.1-.5.9-.5,1-.5,1-.5.9-.5,1-.5,1-.5,1-.5,1-.5,1.1-.5,1-.4,1-.5,1.1-.5,1-.4,1-.5,1.1-.4,1-.4,1.1-.4,1.1-.4,1-.4,1.1-.4.9-.3.9-.3.9-.3.9-.3.9-.3.9-.2.9-.3.9-.2.9-.3.9-.2.9-.3.9-.2.9-.2.9-.2.9v.9c-.1,0-.4.9-.4.9v.9c-.1,0-.3.9-.3.9v1c-.1,0-.3.9-.3.9v.9c-.1,0-.2.9-.2.9v.9c-.1,0-.2,1-.2,1v.9s-.1.9-.1.9v.9c-.1,0-.2.9-.2.9v2.9c0,0,0,2,0,2v1c0,0,0,2,0,2v1c0,0,.2,1,.2,1v1c0,0,.2.8.2.8v.9c.1,0,.2.8.2.8v.9c.1,0,.2.9.2.9l.2.9v.9c.1,0,.2.9.2.9l-.7.5-.8.4-.7.4-.8.4-.9.4-.7.3-.8.4-.8.3-.8.4-.8.2-.8.4-.8.2-.8.2-.8.2-.8.2-.9.2-1,.3-.9.2-1,.2-1,.3h-1c0,.1-1,.3-1,.3l-1,.2h-1c0,.1-1.1.2-1.1.2h-1c0,.1-1,.2-1,.2h-1c0,.1-1,.2-1,.2h-1c0,.1-1.1.2-1.1.2h-1c0,0-6.7,22.1-6.7,22.1h0s.8,0,.8,0h.7c0-.1.8-.1.8-.1h.8c0,0,1.5,0,1.5,0h.8c0,0,.8-.1.8-.1h.7c0,0,.8-.1.8-.1h.8c0,0,.8-.1.8-.1h.7c0-.1.8-.2.8-.2h.8c0,0,.8-.2.8-.2h.8c0,0,.8-.2.8-.2h.8c0-.1.7-.2.7-.2h.8c0,0,.8-.2.8-.2h.8c0-.1.8-.2.8-.2h.8c0-.1.8-.2.8-.2l.8-.2.8-.2h.8c0,0,.8-.2.8-.2l.7-.2h.8c0-.1.6-.3.6-.3h.6c0-.1.6-.3.6-.3h.6c0,0,.6-.3.6-.3l.6-.2h.6c0-.1.6-.3.6-.3l.6-.2h.6c0-.1.6-.3.6-.3l.6-.2.6-.2.6-.2.6-.2.6-.2.6-.2.6-.2.6-.3.5-.2.6-.2.6-.3.6-.2.5-.2.6-.2.6-.3.5-.3.6-.2.6-.2.5-.4.5-.2.6-.4.5.7.6.6.5.6.6.6.7.6.7.5.7.5.7.5.7.5.8.5.7.4.8.4.8.4.7.4.8.2.8.4,1,.3,1,.4,1,.2,1,.3,1,.2,1,.2,1,.2,1,.2h1c0,.1,1.1.2,1.1.2h1.1c0,.1,1,.2,1,.2h1.1c0,0,1,.2,1,.2h3.4c0-.1.7-.1.7-.1h.7c0,0,.6,0,.6,0h.7c0,0,.7-.1.7-.1h.7c0,0,.7,0,.7,0h.6c0-.1.6-.2.6-.2h.7c0-.1.7-.3.7-.3h.7c0,0,.6-.1.6-.1h.6c0-.1.6-.3.6-.3h.7c0-.1.7-.2.7-.2l.6-.2.7-.2h.6c0,0,.6-.2.6-.2l.6-.2h.7c0-.1.6-.3.6-.3l.6-.3h.6c0-.1.7-.4.7-.4l.5-.3h.6c0-.1.6-.4.6-.4l.6-.2.6-.3.6-.2.6-.3.6-.2.5-.2.6-.3.6-.3.5-.3.6-.3.5-.2.5-.4.6-.2.5-.4.5-.4.6-.3.5-.4.5-.4.5-.3.6-.4.5-.3.5-.4.5-.4.5-.4.5-.4.5-.4.5-.4.5-.4.5-.4.5-.4.4-.4.5-.5.5-.4.5-.4.5-.5.4-.4.5-.4.5-.4.5-.5.5-.5.6-.5.5-.6.6-.6.5-.6.6-.6.5-.6.6-.6.5-.6.6-.5.5-.6.5-.6.6-.6.5-.6.5-.6.5-.6.5-.6.5-.6.5-.6.5-.7.5-.6.5-.6.5-.6.5-.6.5-.6.5-.6.5-.6.5-.6.5-.6.5-.6.5-.6.5-.7.5-.7.5-.6.5-.6.5-.6.5-.7.4-.6.5-.6.4-.7.5-.7.5-.6.4-.6.4-.7.5-.7.5-.6.4-.7.5-.7.4-.7.4-.6.4-.7.5-.7.5-.6.4-.8.4-.7.5-.6.4-.8.4-.7.4-.6.4-.8.4-.7.4-.6.4-.8.4-.7.4-.8-.2.7-.3.6-.2.7-.2.6-.2.7-.2.6-.2.6-.2.7-.3.6v.6c-.1,0-.4.6-.4.6l-.2.7-.2.6-.3.6v.7c-.1,0-.4.6-.4.6l-.2.7-.2.6-.2.6v.7c-.1,0-.3.6-.3.6l-.2.6v.7c-.1,0-.3.7-.3.7l-.2.6-.2.7-.2.7-.2.7-.2.6-.2.7v.7c-.1,0-.3.7-.3.7l-.2.8-.2.8-.2.9-.2.9v.8c-.1,0-.3.9-.3.9l-.2.9v.8c-.1,0-.2.9-.2.9v.9c-.1,0-.2.8-.2.8v.9c0,0-.2.9-.2.9v.8c0,0,0,3.6,0,3.6v.8c0,0,.2.9.2.9v1.2c.1,0,.4,1.2.4,1.2l.3,1.2.4,1.2.4,1.1.5,1.1.6,1,.6,1,.7.9.7.9.9.9.8.8.9.8,1,.7,1,.5,1.1.6,1,.5,1,.5,1,.4,1,.4,1.1.4,1,.3,1.1.2,1.1.4.9.2h.8c0,.1.8.4.8.4h.9c0,.1.8.2.8.2h.8c0,.1.9.3.9.3h.8c0,.1.9.2.9.2h.9c0,.1.8.2.8.2h.9c0,.1.9.2.9.2h.9c0,0,.9.2.9.2h.9c0,0,.8.2.8.2h.9c0,0,.9.1.9.1h.8c0,0,1.8,0,1.8,0h.9c0,0,.9.2.9.2h2.7c0,0,3.5,0,3.5,0h.9c0,0,2.9,0,2.9,0h.8c0-.1.9-.2.9-.2h1.7c0,0,.8-.1.8-.1h.9c0-.1.8-.2.8-.2h.8c0-.1.8-.2.8-.2h.8c0-.1.8-.2.8-.2l.8-.2h.8c0-.1.8-.4.8-.4l.8-.2h.8c0-.1.8-.3.8-.3l.8-.3h.8c0-.1.8-.4.8-.4l.8-.2.8-.2.8-.2.8-.2.7-.3.9-.3.8-.2.8-.3.8-.3.8-.4.8-.3.8-.4.8-.3.7-.3.8-.4.8-.3.8-.4.8-.4.8-.4.7-.3.8-.5.8-.4.8-.4.8-.4.7-.4.7-.5.8-.4.7-.4.8-.5.7-.5.7-.4.7-.5.6-.6.7-.4.7-.5.7-.5.6-.5.7-.5.7-.5.6-.5.6-.6.7-.5.6-.5.6-.5.6.9.7.9.8.8.7.9.5.5.5.5.5.4.5.5.5.5.5.4.5.5.5.4.5.5.5.4.6.4.5.4.5.5.6.4.6.4.5.4.6.4.6.3.6.4.6.3.6.4.5.3.6.4.6.3.6.2.6.4.6.2.6.3.7.2.6.2.6.2.6.2,1.1.3,1.1.4,1.2.2,1.1.3,1.1.4,1.1.3,1.1.2,1.1.3,1.1.2,1.1.2,1.1.3,1.2.2h1.2c0,.1,1.1.4,1.1.4l1.1.2h1.1c0,.1,1.2.2,1.2.2l1.2.2h1.1c0,.1,1.2.2,1.2.2h1.1c0,.1,1.2.2,1.2.2h1.1c0,0,1.2.1,1.2.1h1.2c0,0,1.2,0,1.2,0h1.1c0,.1,1.1.2,1.1.2h4.7c0,0,4.8,0,4.8,0h.8c0-.1.8-.1.8-.1h.8c0,0,1.6,0,1.6,0h.8c0,0,.7-.1.7-.1h.8c0,0,.8-.1.8-.1h.8c0,0,.8-.1.8-.1h.8c0-.1.7-.2.7-.2h.8c0,0,.8-.2.8-.2h.8c0,0,.8-.2.8-.2h.7c0-.1.8-.2.8-.2h.7c0,0,.8-.2.8-.2h.7c0-.1.8-.2.8-.2h.7c0-.1.8-.2.8-.2l.8-.2.7-.2h.8c0,0,.7-.2.7-.2l.8-.2h.7c0-.1.6-.3.6-.3h.6c0-.1.6-.3.6-.3h.6c0,0,.6-.3.6-.3l.6-.2h.5c0-.1.6-.3.6-.3l.6-.2h.6c0-.1.6-.3.6-.3l.6-.2.6-.2.5-.2.6-.2.6-.2.6-.2.6-.2.6-.3.6-.2.6-.2.5-.3.6-.2.6-.2.5-.2.6-.3.5-.3.5-.2.6-.2.6-.4.5-.2.6-.4.5.7.5.6.6.6.6.6.6.5.6.6.6.5.7.5.7.5.7.5.7.4.7.4.8.4.8.4.7.2.8.4,1,.3.9.4,1,.2,1,.3,1,.2,1,.2,1,.2,1.1.2h1c0,.1,1.1.2,1.1.2h1c0,.1,1.1.2,1.1.2h1c0,0,1.1.2,1.1.2h3.4c0-.1.6-.1.6-.1h.6c0,0,.6,0,.6,0h.6c0,0,.6-.1.6-.1h.6c0,0,.6,0,.6,0h.6c0-.1.6-.2.6-.2h.6c0-.1.5-.3.5-.3h.6c0,0,.6-.1.6-.1h.6c0-.1.6-.3.6-.3h.6c0-.1.6-.2.6-.2l.6-.2.6-.2h.6c0,0,.6-.2.6-.2l.6-.2h.5c0-.1.6-.3.6-.3l.6-.3h.6c0-.1.6-.4.6-.4l.6-.3h.6c0-.1.6-.4.6-.4l.5-.2.6-.3.5-.2.6-.3.6-.2.5-.2.5-.3.6-.3.6-.3.6-.3.5-.2.6-.4.5-.2.6-.4.5-.4.6-.3.5-.4.5-.4.5-.3.5-.4.6-.3.4-.4.5-.4.5-.4.5-.4.5-.4.4-.4.5-.4.5-.4.5-.4.5-.4.5-.5.5-.4.4-.4.5-.5.5-.4.4-.4.5-.4.5-.5.4-.5.6-.5.6-.6.6-.6.6-.6.6-.6.5-.6.5-.6.6-.6.6-.5.5-.6.6-.6.5-.6.6-.6.5-.6.5-.6.6-.6.5-.6.5-.6.5-.7.5-.6.5-.6.5-.6.5-.6.5-.6.5-.6.5-.6.5-.6.5-.6.4-.6.5-.6.5-.7.5-.7.4-.6.5-.6.5-.6.5-.7.5-.6.5-.6.5-.7.4-.7.5-.6.4-.6.5-.7.5-.7.5-.6.4-.7.4-.7.4-.7.5-.6.5-.7.4-.7.5-.6.4-.8.4-.7.4-.6.4-.8.4-.7.4-.6.4-.8.4-.7.3-.6.5-.8.4-.7.4-.8-.2.7-.2.6-.2.7-.2.6-.3.7-.2.6-.2.6-.2.7-.2.6-.2.6-.2.6-.2.7-.2.6-.2.6-.3.7v.6c-.1,0-.4.7-.4.7l-.2.6-.2.6-.2.7-.2.6-.2.6-.2.7-.2.7-.2.6-.2.7v.7c-.1,0-.4.7-.4.7l-.2.6v.7c-.1,0-.3.7-.3.7l-.2.7-.2.8-.2.8-.2.9-.2.9-.2.8-.2.9v.9c0,0-.3.8-.3.8v.9c-.1,0-.2.9-.2.9v.8c0,0-.1.9-.1.9v.9c-.1,0-.2.8-.2.8v1.8c0,0,0,.9,0,.9v.9c0,0,.1.8.1.8v.9c.1,0,.2,1.2.2,1.2l.2,1.2.3,1.2.4,1.2.4,1.1.5,1.1.6,1,.6,1,.6.9.8.9.8.9.9.8,1,.8.9.7,1.1.5,1.1.6,1,.5,1,.5,1.1.4,1,.4,1.1.4,1,.3,1.1.2,1,.4.9.2h.8c0,.1.9.4.9.4h.8c0,.1.9.2.9.2h.9c0,.1.8.3.8.3h1c0,.1.8.2.8.2h.9c0,.1.9.2.9.2h.9c0,.1.8.2.8.2h.9c0,0,.9.2.9.2h.9c0,0,.9.2.9.2h.8c0,0,.9.1.9.1h.9c0,0,1.8,0,1.8,0h.8c0,0,.8.2.8.2h2.6c0,0,3.5,0,3.5,0h.9c0,0,3,0,3,0l6.4-21.9h-1.1c0-.1-1-.2-1-.2h-.8c0,0-.9-.2-.9-.2h-1c0,0-.8-.2-.8-.2h-.8c0-.1-1-.3-1-.3h-.9c0-.1-.8-.3-.8-.3h-.9c0-.1-.9-.3-.9-.3h-.9c0-.1-.8-.4-.8-.4l-.8-.2-.9-.2-.8-.2-.9-.3-1-.4-.8-.4-.8-.4-1-.7-.8-.7-.6-.9-.6-.9-.2-.7-.2-.6-.2-.8-.2-.7v-.7c-.1,0-.2-.8-.2-.8v-.7c0,0,0-1.6,0-1.6v-.8c0,0,0-.8,0-.8v-.9c.1,0,.2-.7.2-.7v-.8c.1,0,.2-.8.2-.8v-.7s.2-.8.2-.8v-.8c.1,0,.2-.8.2-.8v-.7c.1,0,.2-.8.2-.8l.2-.8.2-.7v-.8c0,0,.2-.7.2-.7v-.8c.1,0,.3-.8.3-.8l.2-.8.2-.8.2-.7.2-.8.2-.8.2-.7.2-.8.2-.6.2-.8.3-.8.2-.8.2-.7.2-.7.2-.8.2-.7.2-.7.3-.8.2-.7.2-.6.3-.6.2-.7.3-.7.2-.6.2-.7.2-.7.2-.6.2-.7.2-.7.3-.7.2-.6.3-.6.2-.7.2-.6.3-.6.2-.7.2-.6.2-.7.3-.6.2-.7.3-.6.2-.7.3-.6.3-.7.2-.7.4-.6.2-.6.3-.6.2-.7.2-.6.2-.6.3-.6.2-.7.3-.6.2-.6.2-.6.3-.7.2-.6.3-.6.3-.6.2-.7.4-.6.2-.6.2-.7.3-.6.3-.7.2-.6.3-.6.3-.7.3-.6.2-.6.3-.6.2-.6.4-.6.2-.6.2-.7.4-.7.2-.7.4-.7.2-.7.4-.6.2-.7.4-.9.4-.8.4-.8.3-.9.5-.8.3-.8.4-.8.4-.9.4-.8.4-.8.4-.9.4-.8.4-.8.4-.8.4-.8.4-.8.4-.8.4-.8.4-.8.4-.8.4-.8.4-.8.4-.8.4-.8.4-.8.4-.9.4-.8.4-.8.4-.8.4-.8.5-.8.4-.8.4-.8.4-.8.4-.8.5-.8.4-.8.4-.8.4-.8.4-.8.4-.8.3-.8.5-.8.3-.8.4-.8.4-.8.4-.8.3-.8.3-.6.2-.6.2-.6.2-.7v-.8l-.2-.8-.4-1.1-.5-1-.6-.9-.8-.8-.6-.5-.7-.5-.7-.6-.7-.5-.8-.5-.8-.4-.8-.3-.8-.4-.6-.2-.5-.3-.6-.2-.6-.2-.6-.2-.6-.2-.6-.2-.6-.2-.6-.2-.6-.2h-.6c0-.1-.6-.3-.6-.3l-.6-.2h-.6c0-.1-.6-.2-.6-.2h-.6c0-.1-.6-.3-.6-.3h-.6c0,0-.6-.1-.6-.1h-.6c0-.1-.6-.2-.6-.2h-.6c0,0-.6-.1-.6-.1h-.6c0-.1-1.2-.1-1.2-.1h-.6c0,0-.6,0-.6,0h-.6c0,0-1.9,0-1.9,0h-.6c0,0-.6,0-.6,0h-.6c0,0-.6.1-.6.1l-1,.2-.9.3-1,.5-.8.6-.8.9-.6,1-.5.8-.4.8-.4.8-.4.8-.2.8-.4.8-.2.9-.2.9-2.3,7.2-.8-.7-.8-.8-.8-.7-.9-.8-.9-.7-.8-.7-.8-.7-.9-.7-1-.7-.9-.6-.9-.5-.9-.5-1-.5-1-.5-1.1-.5-1-.4-1.1-.3-1.1-.4-1.1-.4-1.1-.3-1.2-.4-1-.2-1.2-.2-1.2-.2-1.1-.2h-1.1c0-.1-1.2-.2-1.2-.2h-1.2c0-.1-1.1-.2-1.1-.2h-1.2c0,0-1.1-.1-1.1-.1h-1.1c0,0-.7,0-.7,0h-.7c0,0-1.4,0-1.4,0h-.8c0,0-.6.1-.6.1h-.6c0,0-.7,0-.7,0h-.8c0,0-.6.1-.6.1h-.7c0,0-.6.1-.6.1h-.7c0,.1-.7.2-.7.2h-.7c0,.1-.6.1-.6.1h-.7c0,.1-.7.3-.7.3h-.6c0,.1-.7.2-.7.2h-.6c0,0-.7.2-.7.2l-.7.2h-.6c0,.1-.6.2-.6.2l-.6.2-.6.2h-.7c0,0-.6.2-.6.2l-.6.2-.6.2-.6.2-.6.2-.6.2-.6.2-.6.2-.6.2-.6.2-.6.2-.6.2-.6.2-.6.3-.6.2-.6.3-.6.2-.6.3-.6.3-.6.2-.6.3-.6.4-.6.2-.6.4-.6.3-.6.3-.5.3-.5.3-.6.3-.6.4-.6.3-.6.4-.6.3-.6.4-.5.4-.6.4-.6.4-.6.5-.7.4-.7.5-.6.5-.7.5-.6.5-.6.5-.6.5-.7.5-.6.5-.6.5-.6.5-.6.5-.6.5-.6.5-.6.5-.6.5-.5.5-.6.5-.6.5-.6.5-.6.5-.6.5-.6.5-.5.5-.6.6-.6.5-.6.5-.6.5-.6.5-.6.6-.6.5-.5.6-.6.6-.5.6-.5.6-.6.6-.5.6-.5.6-.5.6-.5.6-.5.6-.6.7-.5.6-.5.6-.5.7-.5.7-.5.6-.5.7-.5.6-.5.7-.5.7-.5.6-.5.7-.5.7-.5.7-.4.7-.5.6-.5.7-.5.7-.5.7-.4.7-.4.7-.6.9-.6,1-.6.9-.6.9-.6.9-.6.9-.6,1-.6.9-.6.9-.6.9-.5.9-.6,1.1-.5.9-.5,1-.5,1-.5.9-.5,1-.5,1-.5,1-.5,1-.5,1.1-.5,1-.5,1-.4,1.1-.5,1-.5,1-.4,1.1-.4,1-.5,1.1-.4,1.1-.5,1-.4,1.1-.4.9-.4.9-.3.9-.3.9-.3.9-.3.9-.3.9-.3.9-.2.9-.2.9-.3.9-.2.9-.2.9-.2.9-.2.9-.2.9-.2.9-.2.9-.2.9-.2,1v.9c0,0-.2.9-.2.9v.9c-.1,0-.2.9-.2.9v1c0,0-.1.9-.1.9v.9c-.1,0-.2.9-.2.9v.9c0,0-.1,1-.1,1v.9c0,0,0,3.9,0,3.9v1.1c.1,0,.1.9.1.9v1c0,0,.2,1,.2,1v1c0,0,.1.8.1.8v.9c.1,0,.2.8.2.8v.9c.1,0,.2.9.2.9v.9c.1,0,.3.9.3.9v.9c.1,0-.6.5-.6.5l-.7.4-.8.4-.8.4-.8.4-.8.3-.8.4-.8.3-.8.4-.8.2-.9.4-.8.2-.9.2-.8.2-.8.2-.8.2-1,.3-1,.2-1,.2-1,.3h-1c0,.1-1,.3-1,.3l-1,.2h-1c0,.1-1,.2-1,.2h-1c0,.1-1,.2-1,.2h-1c0,.1-1,.2-1,.2h-1c0,.1-1,.2-1,.2h-1.2c0,0-1,0-1,0h-.7c0,0-.8-.1-.8-.1h-.7c0,0-.8-.1-.8-.1h-.8c0,0-.7-.1-.7-.1h-.7c0-.1-.7-.2-.7-.2h-.8c0-.1-.8-.2-.8-.2h-.7l-.8-.2h-.7c0-.1-.7-.2-.7-.2h-.8c0-.1-1-.2-1-.2l-.9-.2-1-.2-1-.2-.9-.3-.9-.2-.9-.3-1-.3-.8-.3-1-.4-.9-.3-.9-.5-.9-.4-.9-.4-.9-.4-.8-.4-.6-.5-.6-.3-.6-.4-.5-.4-.8-.5-.7-.6-.7-.7-.6-.7-.6-.8-.5-.8-.5-.8-.5-.8-.4-.8-.4-.9-.3-.9-.2-.9-.2-.9v-.9c-.1,0-.2-1-.2-1v-2.3c0,0,.1-.6.1-.6v-.7c0,0,.1-.6.1-.6v-.6c0,0,.1-.7.1-.7v-.6c0,0,.2-.7.2-.7v-.6c0,0,.2-.6.2-.6v-.7c.1,0,.2-.6.2-.6v-.6c.1,0,.3-.6.3-.6v-.6c.1,0,.4-1,.4-1l.2-.9.2-1,.2-1,.2-.9.2-.9.3-.9.2-.9.3-1,.2-.9.3-.9.2-.9.4-.9.2-1,.3-.9.3-.9,16.1-52.8h27.1c0,0,.7-.1.7-.1h.8c0-.1.8-.2.8-.2h.7c0-.1.8-.2.8-.2l.8-.2.8-.3.8-.3.6-.4.6-.4.5-.5.5-.5.4-.6.4-.7.3-.7.2-.7,2.8-7.9.2-.7v-.6c.1,0,.2-.8.2-.8v-1.6c-.1,0-.5-.8-.5-.8l-.5-.7-.4-.4h-.1s0,0,0,0h-.2c0-.1.2,0,.2,0l-.6-.4h-.5c0-.1-1-.4-1-.4h-.9c0-.1-.9-.2-.9-.2h-28.5l18.8-55.3.4-1,.4-1,.4-1,.4-1,.4-1,.4-1,.4-1,.4-1,.3-.6.2-.6.2-.6.2-.5.2-.6.2-.6.2-.6.2-.6.2-.6.2-.6.2-.6.2-.6.2-.6.2-.6v-.6c.1,0,.3-.6.3-.6l.2-.8v-.6c.1,0,.2-.8.2-.8v-.7c0,0,0-.6,0-.6v-.6c-.1,0-.2-.6-.2-.6l-.2-.6-.2-.7-.4-.5-.4-.5-.4-.5-.5-.4-.5-.4-.5-.4-.6-.4-.5-.4-.5-.3-.6-.4-.6-.2-1.1-.5-1.1-.4-.9-.2-.9-.2-.9-.2-.9-.2h-1c0-.1-.9-.3-.9-.3l-.9-.2h-.9c0-.1-.9-.2-.9-.2h-.9c0,0-.9-.1-.9-.1h-.9c0,0-.9-.1-.9-.1h-3.6.6Z"/>
  <polygon class="st1" points="499.9 77.2 500.2 77.5 500.6 78.1 500.9 78.6 501.2 79.1 501.5 79.6 501.6 80.3 501.8 80.9 501.9 81.5 501.9 82.2 501.6 83 501.3 83.9 501 84.8 500.6 85.6 500.2 86.5 499.9 87.3 499.5 88.1 499 89 498.6 89.8 498.2 90.7 497.9 91.5 497.5 92.4 497 93.2 496.6 94.1 496.1 95 495.8 95.8 495.3 96.6 494.9 97.4 494.4 98.2 494 99 493.6 99.8 493.2 100.7 492.8 101.4 492.4 102.3 492 103.1 491.7 103.9 491.2 104.7 490.8 105.6 490.4 106.3 490 107.2 489.6 108 489.2 108.8 488.9 109.6 488.5 110.4 488 111.3 487.7 112 487.3 112.9 486.9 113.7 486.5 114.5 486.1 115.3 485.8 116.2 485.4 117 485 117.8 484.7 118.7 484.3 119.5 483.9 120.3 483.6 121.1 483.2 122 482.8 122.8 482.5 123.6 482.2 124.2 481.9 124.9 481.6 125.6 481.3 126.2 481 126.8 480.7 127.5 480.5 128.2 480.2 128.8 479.9 129.5 479.6 130.1 479.4 130.8 479.1 131.4 478.8 132.1 478.5 132.7 478.2 133.4 478 134 477.7 134.7 477.4 135.3 477.1 136 476.9 136.7 476.6 137.3 476.4 138 476.1 138.6 475.8 139.3 475.6 140 475.2 140.6 475.1 141.3 474.8 141.9 474.5 142.6 474.2 143.2 474 143.9 473.7 144.6 473.5 145.2 473.2 145.9 473 146.5 472.8 147.2 472.5 147.9 472.2 148.6 472 149.2 471.7 149.9 471.5 150.6 471.2 151.2 471 151.9 470.8 152.5 470.5 153.2 470.3 153.9 470 154.5 469.8 155.2 469.6 155.9 469.3 156.5 469.1 157.2 468.8 157.9 468.6 158.6 468.4 159.2 468.2 159.9 467.9 160.5 467.7 161.2 467.5 161.9 467.3 162.5 467 163.2 466.8 163.9 466.6 164.5 466.3 165.2 466.2 165.9 466 166.6 465.7 167.2 465.6 167.8 465.4 168.5 465.2 169.1 465 169.7 464.8 170.3 464.6 170.9 464.5 171.6 464.3 172.2 464.1 172.9 464 173.5 463.8 174.1 463.6 174.8 463.5 175.4 463.3 176.1 463 177.1 462.8 178.1 462.5 179.2 462.3 180.3 462 181.3 461.8 182.3 461.6 183.4 461.5 184.4 461.3 185.6 461.2 186.6 461 187.7 460.9 188.7 460.9 189.8 460.8 190.9 460.7 191.9 460.7 193 460.7 194.1 460.8 195.1 460.9 196.2 461.2 197.1 461.5 197.9 461.7 198.6 462 199.3 462.5 199.9 463 200.5 463.5 201.1 464.1 201.6 464.8 202.1 464.4 201.8 465.1 202.3 465.5 202.5 466.2 202.7 466.8 203 467.4 203.2 468.1 203.4 468.8 203.6 469.4 203.8 470 203.9 470.8 204 470.5 203.3 470.2 202.6 470 201.9 469.8 201.1 469.7 200.4 469.6 199.6 469.5 198.9 469.5 198.1 469.5 197.3 469.6 196.4 469.6 195.7 469.7 194.9 469.8 194.1 469.9 193.3 470 192.6 470.1 191.8 470.2 191 470.3 190.3 470.5 189.5 470.5 188.8 470.7 188 470.8 187.3 471 186.5 471.1 185.7 471.2 185 471.5 184.3 471.5 183.6 471.7 182.8 471.9 182 472.1 181.3 472.2 180.6 472.4 179.8 472.6 179 472.8 178.3 473.1 177.6 473.2 176.8 473.5 176.1 473.6 175.4 473.8 174.7 474.1 173.9 474.3 173.2 474.5 172.5 474.8 171.8 475 171 475.2 170.3 475.5 169.6 475.7 168.9 475.9 168.3 476.2 167.6 476.4 166.9 476.6 166.3 476.8 165.6 477 164.9 477.2 164.3 477.5 163.6 477.8 162.9 478 162.3 478.2 161.6 478.4 160.9 478.6 160.2 479 159.6 479.1 158.9 479.4 158.3 479.7 157.6 479.9 156.9 480.1 156.3 480.4 155.6 480.6 154.9 480.9 154.3 481.1 153.6 481.3 152.9 481.6 152.3 481.8 151.6 482.1 151 482.4 150.3 482.6 149.6 482.9 149 483.1 148.3 483.4 147.6 483.7 147 483.9 146.3 484.1 145.7 484.4 145 484.7 144.3 485 143.7 485.2 143 485.4 142.4 485.8 141.7 486 141.1 486.3 140.4 486.5 139.7 486.8 139.1 487.1 138.5 487.4 137.8 487.7 137.1 488 136.5 488.2 135.8 488.5 135.2 488.7 134.5 489 133.9 489.3 133.2 489.6 132.6 489.9 131.9 490.1 131.3 490.5 130.6 490.7 130 491.1 129.4 491.3 128.7 491.7 127.8 492.1 127 492.4 126.2 492.7 125.3 493.2 124.6 493.5 123.7 493.9 122.9 494.3 122.1 494.7 121.2 495 120.5 495.4 119.6 495.8 118.8 496.1 117.9 496.6 117.2 496.9 116.3 497.3 115.5 497.7 114.6 498 113.9 498.5 113 498.9 112.2 499.3 111.4 499.6 110.6 500.1 109.8 500.5 109 500.9 108.2 501.3 107.3 501.7 106.6 502.1 105.7 502.5 104.9 502.9 104.1 503.3 103.3 503.8 102.5 504.2 101.7 504.6 100.9 504.9 100.1 505.4 99.3 505.8 98.6 506.2 97.7 506.5 96.9 506.9 96.1 507.3 95.4 507.7 94.5 508 93.8 508.5 92.9 508.8 92.1 509.2 91.3 509.6 90.5 509.9 89.7 510.2 89.1 510.4 88.5 510.5 87.9 510.7 87.3 510.7 86.5 510.6 85.6 510.2 84.5 509.7 83.5 509 82.6 508.2 81.8 507.6 81.2 506.9 80.6 506.2 80.1 505.4 79.6 504.7 79.2 503.9 78.8 503.2 78.3 502.3 78.1 501.6 77.7 500.9 77.5 500.2 77.1 499.6 76.9 499.2 76.5 499.9 77.2"/>
  <polygon class="st2" points="427.6 200.3 427.1 201 426.6 201.6 426.2 202.2 425.7 202.9 425.2 203.5 424.6 204.1 424.1 204.7 423.6 205.4 423.1 206.1 422.6 206.6 422 207.2 421.5 207.9 421 208.4 420.5 209 419.9 209.6 419.3 210.2 418.9 210.9 418.3 211.4 417.7 212 417.2 212.6 416.6 213.2 416 213.8 415.5 214.3 414.9 214.9 414.3 215.4 413.7 216 413.1 216.5 412.5 217.1 411.9 217.6 411.3 218.2 410.7 218.6 410.1 219.2 409.6 219.6 409.1 220.1 408.7 220.5 408.1 220.9 407.7 221.2 407.1 221.6 406.7 222.1 406.1 222.5 405.7 222.8 405.1 223.2 404.6 223.6 404.1 223.9 403.5 224.2 403 224.6 402.5 224.9 402 225.3 401.4 225.7 400.9 225.9 400.3 226.2 399.8 226.5 399.2 226.8 398.7 227.1 398.1 227.5 397.5 227.8 397 228 396.5 228.3 395.9 228.5 395.3 228.8 394.7 229 394.2 229.3 393.6 229.5 393 229.8 392.4 230 391.8 230.2 391.2 230.4 390.6 230.7 390 230.8 389.5 231 388.8 231.2 388.2 231.4 387.6 231.6 387 231.7 386.4 231.9 385.8 232 385.2 232.2 384.6 232.3 383.9 232.5 383.4 232.6 382.7 232.7 382.1 232.9 381.5 233 380.8 233 380.2 233.1 379.6 233.2 379 233.3 378.3 233.4 377.7 233.4 377.1 233.4 376.5 233.5 375.8 233.5 375.1 233.6 374.6 233.6 373.9 233.6 373.3 233.6 372.2 233.6 371.2 233.6 370.1 233.6 369.1 233.5 368.1 233.4 367.1 233.4 366 233.2 365 233.1 364 232.9 363 232.7 362 232.5 361 232.2 360 232 359 231.7 358 231.3 357 231 355.9 230.6 354.8 230.1 353.7 229.5 352.6 228.9 351.6 228.4 350.6 227.7 349.7 226.9 348.8 226.1 349.7 226.5 350.6 226.7 351.6 227 352.6 227.2 353.5 227.5 354.5 227.7 355.5 227.9 356.5 228.1 357.5 228.2 358.4 228.3 359.4 228.4 360.4 228.5 361.4 228.5 362.4 228.5 363.4 228.5 364.4 228.5 365 228.5 365.7 228.5 366.3 228.5 366.9 228.5 367.6 228.5 368.2 228.4 368.8 228.4 369.4 228.3 370.1 228.2 370.7 228.1 371.3 228.1 372 228 372.6 227.8 373.2 227.8 373.9 227.7 374.5 227.5 375.1 227.4 375.7 227.2 376.3 227.1 376.9 226.9 377.5 226.8 378.2 226.7 378.8 226.5 379.4 226.3 379.9 226.1 380.5 226 381.2 225.8 381.8 225.6 382.3 225.4 382.9 225.1 383.5 224.9 384.1 224.7 384.7 224.5 385.3 224.2 385.9 223.9 386.5 223.7 387 223.5 387.5 223.2 388.1 222.9 388.7 222.6 389.3 222.4 389.8 222.1 390.4 221.8 390.9 221.5 391.5 221.2 392.1 220.9 392.5 220.5 393.1 220.2 393.6 219.9 394.2 219.5 394.7 219.2 395.2 218.8 395.8 218.5 396.2 218.1 396.8 217.8 397.2 217.4 397.8 217 398.3 216.6 398.8 216.2 399.3 215.8 399.7 215.4 400.2 215 400.7 214.6 401.2 214.1 401.8 213.7 402.3 213.2 402.8 212.7 403.3 212.2 403.9 211.7 404.3 211.3 404.9 210.8 405.4 210.2 405.9 209.8 406.4 209.2 406.9 208.8 407.4 208.2 407.9 207.7 408.4 207.2 409 206.6 409.4 206.2 409.9 205.6 410.4 205.1 410.9 204.6 411.4 204 411.9 203.6 412.3 203 412.8 202.4 413.3 201.9 413.8 201.4 414.2 200.9 414.7 200.3 415.2 199.7 415.6 199.2 416.1 198.7 416.6 198.1 417 197.6 417.4 197 417.9 196.5 418.3 195.9 418.8 195.3 419.2 194.8 419.6 194.2 420 193.7 420.5 193.1 420.9 192.5 421.4 191.9 421.8 191.4 422.2 190.8 422.6 190.2 423 189.6 423.5 189 423.9 188.4 424.2 187.8 424.6 187.2 425 186.7 425.5 186.1 425.8 185.5 426.2 184.8 426.6 184.3 427 183.6 427.4 183.1 427.8 182.4 428.1 181.9 428.5 181.2 428.9 180.6 429.2 179.9 429.6 179.4 429.9 178.8 430.4 178.1 430.8 177.5 431.1 176.9 431.5 176.3 431.8 175.6 432.2 175 432.6 174.4 433 173.8 433.4 173.1 433.8 172.5 434.1 171.9 434.5 171.2 434.8 170.6 435.2 169.9 435.5 169.3 436 168.6 435.7 169.3 435.5 170 435.2 170.6 435 171.3 434.8 172 434.5 172.6 434.3 173.3 434.1 174 433.8 174.6 433.7 175.3 433.5 175.9 433.2 176.6 433 177.3 432.8 177.9 432.6 178.6 432.4 179.3 432.2 179.9 432 180.6 431.8 181.3 431.6 181.9 431.4 182.7 431.2 183.3 431.1 184 430.8 184.7 430.6 185.3 430.5 186 430.3 186.7 430.1 187.4 429.9 188 429.7 188.7 429.5 189.4 429.4 190.1 429.2 190.7 429.1 191.4 428.9 192 428.8 192.6 428.7 193.3 428.6 193.9 428.5 194.5 428.4 195.1 428.2 195.8 428.1 196.4 428.1 197 427.9 197.7 427.8 198.4 427.8 199 427.7 199.6 427.6 200.3"/>
  <polygon class="st2" points="452.5 106.5 451.4 106.1 450.4 105.8 449.3 105.5 448.3 105.3 447.3 105.2 446.2 105.1 445.1 105 444 104.9 443.1 105 442.1 105.1 441.2 105.2 440.3 105.3 439.4 105.4 438.5 105.6 437.6 105.8 436.7 106.1 435.8 106.3 434.9 106.5 434.1 106.8 433.2 107.2 432.3 107.5 431.5 107.9 430.6 108.3 429.8 108.7 428.8 109.2 427.8 109.8 426.8 110.3 425.8 110.8 424.7 111.4 423.8 112 422.8 112.7 421.8 113.3 421 113.9 420.1 114.5 419.3 115.1 418.5 115.7 417.6 116.3 416.9 116.9 416 117.6 415.1 118.2 414.4 118.9 413.6 119.6 412.8 120.2 412 121 411.3 121.7 410.5 122.4 409.7 123 409 123.7 408.2 124.5 407.4 125.2 406.8 126 406 126.7 405.2 127.4 404.6 128.2 403.9 128.9 403.2 129.7 402.5 130.4 401.8 131.3 401.1 132 400.4 132.9 399.8 133.6 399.1 134.4 398.5 135.3 397.8 136 397.2 136.9 396.6 137.7 395.9 138.5 395.4 139.3 394.8 140.2 394.2 140.9 393.5 141.8 392.9 142.6 392.4 143.5 391.8 144.3 391.3 145.2 390.7 146.1 390.1 146.9 389.6 147.8 389.1 148.6 388.6 149.5 388 150.4 387.5 151.3 387 152.2 386.6 153.1 386 153.9 385.6 154.9 385.1 155.8 384.7 156.7 384.2 157.6 383.8 158.5 383.3 159.4 382.9 160.4 382.5 161.3 382.1 162.2 381.6 163.2 381.3 164.1 380.9 164.8 380.6 165.6 380.3 166.3 380 167.1 379.7 167.9 379.5 168.6 379.2 169.3 378.9 170.1 378.6 170.8 378.4 171.6 378.1 172.3 377.9 173.1 377.7 173.9 377.5 174.6 377.3 175.4 377.1 176.2 376.9 177 376.7 177.7 376.6 178.5 376.4 179.3 376.2 180.1 376.1 180.8 376 181.6 375.9 182.5 375.7 183.2 375.6 184 375.5 184.8 375.4 185.6 375.3 186.4 375.2 187.2 375.2 187.9 375.1 188.8 375.1 190.1 375.1 191.2 375.1 192.4 375.2 193.5 375.4 194.6 375.6 195.8 375.8 196.9 376.1 198 376.4 199.1 376.7 199.9 377.2 200.7 376.3 200.7 375.6 200.6 374.7 200.5 374 200.2 373.2 200 372.5 199.7 371.8 199.4 371.1 198.9 370.5 198.5 370 198 369.5 197.4 369 196.9 368.6 196.2 368.2 195.5 367.9 194.8 367.5 194 367.3 193.2 367 192.5 366.8 191.7 366.7 190.9 366.6 190.1 366.5 189.5 366.4 188.7 366.4 187.9 366.3 187.2 366.2 186.5 366.2 185.8 366.2 185 366.2 184.3 366.3 183.5 366.4 182.7 366.4 182 366.5 181.2 366.5 180.4 366.6 179.7 366.7 178.9 366.8 178.1 367 177.4 367.1 176.6 367.2 175.9 367.3 175.1 367.5 174.3 367.7 173.6 367.8 172.8 368 172.1 368.1 171.3 368.3 170.6 368.5 169.9 368.7 169.1 369 168.4 369.1 167.6 369.4 166.9 369.6 166.1 369.9 165.4 370.1 164.7 370.4 164 370.7 163.2 371 162.5 371.3 161.8 371.6 161.1 372.4 159.1 372.8 158.1 373.2 157.2 373.6 156.2 374 155.3 374.4 154.4 374.9 153.4 375.3 152.5 375.8 151.6 376.3 150.7 376.7 149.8 377.2 148.9 377.6 148 378.1 147.1 378.7 146.2 379.2 145.3 379.7 144.5 380.2 143.6 380.8 142.7 381.3 141.9 381.9 140.9 382.4 140.1 382.9 139.3 383.5 138.4 384.1 137.6 384.7 136.8 385.2 135.9 385.9 135 386.5 134.3 387.1 133.4 387.7 132.6 388.4 131.8 389 131 389.6 130.2 390.2 129.4 390.9 128.6 391.6 127.7 392.3 127 392.9 126.1 393.6 125.4 394.3 124.6 395 123.8 395.7 123.1 396.4 122.4 397.2 121.6 397.8 120.8 398.6 120.1 399.4 119.4 400.1 118.7 400.8 117.9 401.6 117.2 402.4 116.5 403.1 115.9 404 115.2 404.7 114.5 405.5 113.8 406.3 113.2 407.1 112.5 407.9 111.9 408.8 111.3 409.5 110.7 410.4 110 411.3 109.4 412.1 108.8 413 108.2 413.9 107.6 414.9 106.9 415.9 106.3 416.9 105.7 417.8 105.2 418.9 104.6 419.9 104.1 420.9 103.6 421.9 103.2 423 102.7 424.1 102.3 425.1 101.9 426.2 101.5 427.3 101.2 428.4 100.8 429.5 100.5 430.2 100.3 430.9 100.3 431.6 100.2 432.3 100 433 100 433.7 99.9 434.4 99.9 435.1 99.9 436.3 99.9 437.4 100 438.5 100.1 439.6 100.3 440.7 100.5 441.8 100.8 442.8 101.1 443.9 101.5 444.5 101.7 445.1 102 445.6 102.2 446.2 102.5 446.7 102.8 447.3 103 447.9 103.3 448.4 103.7 448.8 104 449.4 104.3 450 104.6 450.5 105 451 105.3 451.4 105.7 452 106.1 452.5 106.5"/>
  <polygon class="st1" points="336.7 218.5 336.1 218.8 335.5 219.1 335 219.3 334.4 219.6 333.8 219.9 333.3 220.2 332.7 220.4 332.2 220.6 331.6 220.9 331.1 221.2 330.5 221.4 329.9 221.6 329.3 221.9 328.7 222.1 328.1 222.2 327.5 222.5 327 222.7 326.4 222.9 325.8 223.1 325.2 223.3 324.6 223.5 324 223.6 323.4 223.8 322.8 224 322.2 224.1 321.6 224.3 321 224.5 320.4 224.6 319.8 224.8 319.2 224.9 318.6 225.1 317.7 225.2 316.8 225.4 315.9 225.6 315.1 225.7 314.2 225.9 313.3 226.1 312.5 226.2 311.6 226.3 310.8 226.5 309.9 226.6 308.9 226.8 308.1 226.8 307.2 226.9 306.3 227 305.5 227.1 304.5 227.2 303.7 227.3 303 227.4 302.4 227.4 301.7 227.5 301.1 227.5 300.4 227.5 299.8 227.6 299.1 227.6 298.4 227.7 297.8 227.7 297.1 227.8 296.5 227.8 295.8 227.8 295.2 227.8 294.5 227.9 293.9 227.9 289.9 227.9 288.7 227.9 287.6 227.9 286.4 227.9 285.2 227.9 284.1 227.9 282.9 227.9 281.8 227.8 280.6 227.8 279.5 227.6 278.4 227.6 277.2 227.5 276 227.4 274.9 227.2 273.7 227.1 272.6 226.9 271.4 226.8 270.3 226.7 269.1 226.5 268 226.2 266.9 226.1 265.7 225.9 264.6 225.6 263.5 225.4 262.3 225.2 261.1 224.9 260.1 224.6 259 224.4 257.9 224.1 256.7 223.7 255.6 223.5 254.4 223.1 253.4 222.8 252.8 222.5 252.2 222.3 251.6 222.1 251.1 221.9 250.5 221.6 250 221.4 249.4 221.2 248.8 220.9 249.5 221.5 250.4 222 251.1 222.5 252 223.1 252.7 223.5 253.6 224 254.4 224.4 255.3 224.9 256.1 225.3 257 225.7 257.9 226.1 258.7 226.5 259.6 226.8 260.4 227.2 261.3 227.5 262.2 227.8 263.3 228.2 264.4 228.5 265.6 228.8 266.7 229.1 267.8 229.4 268.9 229.7 270 229.9 271.2 230.2 272.3 230.4 273.4 230.7 274.6 230.9 275.7 231.1 276.9 231.4 278 231.5 279.1 231.7 280.3 231.9 281.4 232.1 282.6 232.2 283.8 232.3 284.9 232.4 286.1 232.5 287.2 232.7 288.3 232.8 289.5 232.8 290.7 232.9 291.8 232.9 293 232.9 294.1 233 295.3 233 296.4 233 297.6 233 298.8 232.9 302.8 232.9 303.6 232.9 304.4 232.9 305.1 232.9 305.9 232.9 306.8 232.8 307.5 232.8 308.3 232.7 309 232.7 309.8 232.6 310.6 232.5 311.3 232.5 312.1 232.4 312.9 232.4 313.6 232.2 314.4 232.2 315.2 232.1 316 232.1 316.8 231.9 317.5 231.8 318.3 231.7 319.1 231.6 319.8 231.5 320.6 231.4 321.4 231.3 322.1 231.1 322.9 231 323.6 230.9 324.4 230.7 325.2 230.6 325.9 230.4 326.7 230.3 327.4 230.1 328.5 229.9 329.6 229.6 330.7 229.4 331.8 229 332.8 228.7 333.9 228.4 335 228.1 336 227.6 337.1 227.3 338.1 226.9 339.2 226.5 340.3 226.1 341.3 225.6 342.3 225.2 343.3 224.7 344.4 224.2 343.3 223.6 342.3 223 341.4 222.3 340.4 221.6 339.6 220.8 338.7 220 338 219.2 337.3 218.2 336.7 218.5"/>
  <polygon class="st2" points="326.4 91.2 328.9 91.2 329.8 91.2 330.8 91.3 331.7 91.4 332.6 91.7 333.1 91.8 334.1 92.4 333.7 92.1 334.3 92.6 334.9 93.2 335.1 94 335.3 94.8 335.3 95.7 335.2 96.4 335.1 97.1 335 97.7 332.1 105.6 331.9 106.3 331.6 107 331.3 107.6 330.8 108.2 330.3 108.8 329.8 109.2 329.2 109.6 328.5 110 327.8 110.3 327 110.6 326.2 110.8 325.4 110.9 324.7 111 323.9 111.1 323.1 111.2 322.4 111.2 321.6 111.3 320.9 111.3 320.2 111.3 319.4 111.3 295.3 111.3 279.3 164.2 278.9 165.1 278.6 166.1 278.4 167 278.1 167.9 277.8 168.9 277.5 169.8 277.3 170.8 277.1 171.8 276.8 172.7 276.5 173.7 276.3 174.7 276.1 175.7 275.8 176.6 275.6 177.6 275.4 178.5 275.2 179.5 275 180.1 274.9 180.8 274.8 181.4 274.6 182.1 274.6 182.8 274.5 183.4 274.4 184.1 274.2 184.7 274.2 185.4 274.1 186 274.1 186.7 274 187.4 273.9 188.1 273.9 188.7 273.9 189.4 273.8 190.1 273.9 190.9 273.9 191.8 274 192.6 274.2 193.4 274.4 194.3 274.6 195.1 274.8 195.8 275.2 196.6 275.5 197.4 275.9 198.1 276.4 198.8 276.9 199.5 277.4 200.2 277.9 200.8 278.5 201.5 279.2 202.1 278.5 201.8 277.8 201.5 277.1 201.2 276.5 200.9 275.8 200.6 275.1 200.3 274.5 199.9 273.9 199.6 273.3 199.2 272.7 198.9 272.2 198.5 271.6 198.1 271.1 197.7 270.6 197.2 270 196.8 269.6 196.3 269.1 195.8 268.7 195.3 268.3 194.8 267.9 194.2 267.5 193.7 267.2 193.1 266.8 192.5 266.5 191.9 266.1 191.1 265.8 190.3 265.6 189.4 265.3 188.5 265.2 187.7 265 186.7 265 185.9 265 185 265 184.3 265 183.6 265 183 265.1 182.3 265.2 181.6 265.2 181 265.3 180.3 265.4 179.7 265.5 179 265.6 178.3 265.7 177.7 265.8 177 265.9 176.4 266 175.7 266.2 175.1 266.3 174.4 266.5 173.4 266.8 172.5 267 171.5 267.2 170.5 267.5 169.6 267.6 168.6 267.9 167.6 268.2 166.7 268.4 165.8 268.7 164.8 268.9 163.8 269.2 162.9 269.5 161.9 269.8 161 270.1 160.1 270.4 159.1 286.4 106.2 310.5 106.2 311.5 106.3 312.4 106.2 313.2 106.2 314.2 106.1 315.1 106 316 105.9 316.9 105.8 317.8 105.6 318.8 105.3 319.7 105 320.3 104.6 320.9 104.2 321.5 103.7 322 103.1 322.4 102.6 322.7 101.9 323 101.3 323.2 100.6 326.1 92.7 326.2 92 326.4 91.2"/>
  <polygon class="st1" points="317.4 7.3 317.7 8.3 318 9.3 318.1 10.4 318 10.9 318 11.6 317.9 12.2 317.7 12.8 317.6 13.4 317.4 14 317.2 14.7 317.1 15.4 316.8 16 316.7 16.6 316.4 17.2 316.2 17.9 316 18.6 315.8 19.2 315.5 19.8 315.3 20.4 315.1 21.1 314.8 21.7 314.6 22.3 314.3 23 313.9 23.9 313.5 24.9 313.2 25.8 312.8 26.8 312.4 27.8 312.1 28.9 311.7 29.9 311.3 30.9 292.6 86.1 303.1 86.1 320.3 35.8 320.6 34.9 320.9 33.9 321.3 32.9 321.7 31.9 322 31 322.4 29.9 322.8 29 323.2 28 323.4 27.4 323.7 26.8 324 26.2 324.1 25.7 324.4 25.1 324.6 24.4 324.8 23.8 325 23.2 325.2 22.6 325.4 22 325.6 21.4 325.8 20.8 326 20.2 326.1 19.6 326.3 19 326.5 18.4 326.7 17.6 326.8 16.9 326.9 16.2 326.9 15.4 326.9 14.8 326.8 14.2 326.7 13.5 326.5 12.9 326.2 12.4 326 11.8 325.6 11.3 325.1 10.8 324.7 10.2 324.2 9.8 323.7 9.4 323.2 9.1 322.7 8.7 322.1 8.4 321.5 8.1 320.9 7.8 319.9 7.3 318.9 7.1 317.9 6.7 316.9 6.5 317.4 7.3"/>
  <path class="st1" d="M236.4,106.3v.4c0,0,0,.5,0,.5v.8c0,0,.2.7.2.7l.4,1,.7.7.6.4.8.2.9.2h.9c0,.1.8.2.8.2h6.5l1.4-5.1h-13.2c0,.1,0,.1,0,.1ZM236.4,106.3v-.5c.1,0,0,.5,0,.5Z"/>
  <polygon class="st1" points="231.4 208.3 230.8 208.8 230.1 209.3 229.4 209.9 228.8 210.5 228.1 211 227.4 211.5 226.7 212 226 212.5 225.3 213 224.6 213.4 223.9 213.9 223.2 214.4 222.5 214.9 221.8 215.4 221.1 215.8 220.4 216.2 219.6 216.6 218.9 217.1 218.2 217.5 217.4 217.9 216.6 218.3 215.9 218.7 215.2 219.1 214.4 219.5 213.6 219.9 212.8 220.2 212.1 220.7 211.3 220.9 210.5 221.3 209.8 221.7 208.9 221.9 208 222.3 207.1 222.7 206.2 223 205.2 223.4 204.3 223.7 203.4 224.1 202.4 224.4 201.5 224.7 200.5 224.9 199.6 225.2 198.6 225.5 197.7 225.7 196.7 226 195.7 226.1 194.8 226.4 193.7 226.6 193 226.7 192.4 226.8 191.7 227 191 227.1 190.4 227.2 189.7 227.2 189.1 227.4 188.4 227.4 187.7 227.6 187.1 227.6 186.4 227.6 185.7 227.7 185.1 227.7 184.4 227.8 183.7 227.9 183 227.9 180.1 227.9 179.2 228 178.4 228 177.5 228 176.5 228 175.6 228 174.8 227.9 173.9 227.9 173 227.9 172.2 227.8 171.3 227.7 170.3 227.7 169.5 227.7 168.6 227.6 167.8 227.6 166.9 227.5 166 227.4 165.1 227.4 164.2 227.2 163.3 227.1 162.4 227.1 161.6 227 160.7 226.8 159.8 226.7 159 226.6 158.1 226.4 157.2 226.3 156.4 226.1 155.4 226 154.6 225.9 153.7 225.7 152.8 225.5 152 225.4 151 225 150 224.8 149 224.5 148 224.2 148.5 224.7 149.1 225.2 149.7 225.6 150.3 226 150.9 226.4 151.5 226.8 152.1 227.2 152.8 227.6 153.6 227.9 154.3 228.2 155.1 228.6 155.9 228.9 156.6 229.1 157.4 229.4 158.1 229.7 159 229.9 159.7 230.1 160.5 230.3 161.3 230.6 162.1 230.8 162.9 230.9 163.7 231 164.5 231.2 165.3 231.3 166 231.4 166.8 231.6 167.5 231.7 168.2 231.7 169 231.9 169.7 232 170.5 232 171.2 232.1 171.9 232.2 172.7 232.3 173.4 232.4 174.2 232.4 174.9 232.4 175.6 232.5 176.4 232.6 177.1 232.7 177.9 232.7 178.6 232.7 179.3 232.8 180.1 232.9 180.8 232.9 181.6 232.9 182.3 232.9 183 232.9 183.8 232.9 184.5 232.9 185.2 233 186 233 186.7 233 187.5 233 188.2 233 188.9 232.9 191.9 232.9 192.7 232.9 193.6 232.9 194.4 232.8 195.2 232.7 196 232.7 196.9 232.5 197.7 232.4 198.6 232.3 199.4 232.2 200.2 232.1 201 232 201.8 231.8 202.6 231.7 203.4 231.5 204.3 231.3 205.1 231.1 205.9 230.9 206.8 230.8 207.5 230.5 208.3 230.3 209.1 230.1 209.9 229.8 210.8 229.6 211.6 229.4 212.3 229.1 213.1 228.9 213.9 228.6 214.8 228.2 215.5 228 216.3 227.6 217 227.4 217.8 227 218.5 226.7 219.2 226.4 219.9 226.1 220.6 225.9 221.2 225.5 221.9 225.2 222.6 224.9 223.3 224.6 224 224.2 224.6 223.9 225.3 223.5 225.9 223.2 226.7 222.8 227.3 222.4 227.9 222.1 228.6 221.7 229.2 221.2 229.9 220.9 230.5 220.5 231.1 220.1 231.8 219.7 232.4 219.2 233.1 218.8 233.7 218.4 234.3 218 234.9 217.5 235.5 217.1 236.1 216.6 236.7 216.2 237.3 215.8 238 215.3 238.6 214.8 237.6 214 236.7 213.2 235.9 212.4 235 211.5 234.3 210.6 233.5 209.6 232.8 208.7 232.1 207.8 231.4 208.3"/>
  <polygon class="st1" points="205.9 77.2 206.2 77.5 206.6 78.1 206.9 78.6 207.2 79.1 207.5 79.6 207.7 80.3 207.8 80.9 207.9 81.5 207.9 82.2 207.7 83 207.3 83.9 207 84.8 206.6 85.6 206.2 86.5 205.9 87.3 205.5 88.1 205.1 89 204.6 89.8 204.3 90.7 203.9 91.5 203.4 92.4 203 93.2 202.6 94.1 202.2 95 201.7 95.8 201.3 96.6 200.9 97.4 200.4 98.2 200 99 199.7 99.8 199.3 100.7 198.8 101.4 198.4 102.3 198 103.1 197.6 103.9 197.2 104.7 196.8 105.6 196.4 106.3 196 107.2 195.6 108 195.3 108.8 194.9 109.6 194.5 110.4 194.1 111.3 193.7 112 193.3 112.9 192.9 113.7 192.6 114.5 192.2 115.3 191.9 116.2 191.4 117 191 117.8 190.7 118.7 190.2 119.5 189.9 120.3 189.5 121.1 189.2 122 188.8 122.8 188.5 123.6 188.2 124.2 187.9 124.9 187.6 125.6 187.4 126.2 187.1 126.8 186.8 127.5 186.5 128.2 186.2 128.8 185.9 129.5 185.7 130.1 185.4 130.8 185.1 131.4 184.8 132.1 184.5 132.7 184.2 133.4 183.9 134 183.7 134.7 183.4 135.3 183.2 136 182.8 136.7 182.6 137.3 182.4 138 182.1 138.6 181.8 139.3 181.6 140 181.3 140.6 181.1 141.3 180.8 141.9 180.5 142.6 180.2 143.2 180 143.9 179.7 144.6 179.5 145.2 179.2 145.9 179 146.5 178.7 147.2 178.5 147.9 178.2 148.6 178 149.2 177.8 149.9 177.5 150.6 177.3 151.2 177 151.9 176.8 152.5 176.5 153.2 176.3 153.9 176.1 154.5 175.8 155.2 175.6 155.9 175.4 156.5 175.1 157.2 174.9 157.9 174.6 158.6 174.4 159.2 174.2 159.9 173.9 160.5 173.8 161.2 173.5 161.9 173.3 162.5 173.1 163.2 172.8 163.9 172.6 164.5 172.4 165.2 172.2 165.9 171.9 166.6 171.8 167.2 171.6 167.8 171.4 168.5 171.2 169.1 171.1 169.7 170.8 170.3 170.6 170.9 170.5 171.6 170.3 172.2 170.2 172.9 170 173.5 169.8 174.1 169.6 174.8 169.5 175.4 169.3 176.1 169.1 177.1 168.8 178.1 168.5 179.2 168.3 180.3 168.1 181.3 167.9 182.3 167.6 183.4 167.5 184.4 167.3 185.6 167.2 186.6 167 187.7 167 188.7 166.9 189.8 166.8 190.9 166.8 191.9 166.7 193 166.7 194.1 166.8 195.1 167 196.2 167.2 197.1 167.5 197.9 167.7 198.6 168.1 199.3 168.5 199.9 169 200.5 169.5 201.1 170.2 201.6 170.8 202.1 170.4 201.8 171.2 202.3 171.5 202.5 172.2 202.7 172.8 203 173.5 203.2 174.1 203.4 174.8 203.6 175.4 203.8 176.1 203.9 176.8 204 176.5 203.3 176.2 202.6 176 201.9 175.8 201.1 175.7 200.4 175.6 199.6 175.5 198.9 175.5 198.1 175.6 197.3 175.6 196.4 175.6 195.7 175.7 194.9 175.8 194.1 175.9 193.3 176 192.6 176.1 191.8 176.2 191 176.4 190.3 176.5 189.5 176.5 188.8 176.7 188 176.8 187.3 177 186.5 177.1 185.7 177.3 185 177.4 184.3 177.5 183.6 177.7 182.8 177.9 182 178.1 181.3 178.2 180.6 178.5 179.8 178.6 179 178.8 178.3 179.1 177.6 179.2 176.8 179.4 176.1 179.6 175.4 179.9 174.7 180.1 173.9 180.3 173.2 180.6 172.5 180.8 171.8 181 171 181.2 170.3 181.5 169.6 181.7 168.9 181.9 168.3 182.1 167.6 182.4 166.9 182.6 166.3 182.8 165.6 183.1 164.9 183.3 164.3 183.5 163.6 183.8 162.9 183.9 162.3 184.2 161.6 184.4 160.9 184.7 160.2 185 159.6 185.1 158.9 185.4 158.3 185.7 157.6 185.9 156.9 186.1 156.3 186.4 155.6 186.6 154.9 186.9 154.3 187.1 153.6 187.4 152.9 187.6 152.3 187.8 151.6 188.1 151 188.4 150.3 188.7 149.6 188.8 149 189.1 148.3 189.4 147.6 189.7 147 189.9 146.3 190.2 145.7 190.4 145 190.7 144.3 191 143.7 191.3 143 191.5 142.4 191.8 141.7 192 141.1 192.3 140.4 192.6 139.7 192.9 139.1 193.1 138.5 193.4 137.8 193.7 137.1 194 136.5 194.2 135.8 194.5 135.2 194.8 134.5 195 133.9 195.3 133.2 195.6 132.6 195.9 131.9 196.2 131.3 196.5 130.6 196.8 130 197.1 129.4 197.3 128.7 197.7 127.8 198.1 127 198.4 126.2 198.8 125.3 199.2 124.6 199.6 123.7 199.9 122.9 200.3 122.1 200.7 121.2 201 120.5 201.4 119.6 201.8 118.8 202.2 117.9 202.6 117.2 203 116.3 203.3 115.5 203.7 114.6 204.1 113.9 204.5 113 204.9 112.2 205.3 111.4 205.7 110.6 206.1 109.8 206.5 109 206.9 108.2 207.3 107.3 207.8 106.6 208.1 105.7 208.5 104.9 208.9 104.1 209.4 103.3 209.8 102.5 210.2 101.7 210.5 100.9 211 100.1 211.4 99.3 211.8 98.6 212.2 97.7 212.5 96.9 212.9 96.1 213.4 95.4 213.7 94.5 214.1 93.8 214.5 92.9 214.8 92.1 215.2 91.3 215.6 90.5 215.9 89.7 216.2 89.1 216.4 88.5 216.6 87.9 216.8 87.3 216.8 86.5 216.6 85.6 216.2 84.5 215.7 83.5 215.1 82.6 214.2 81.8 213.6 81.2 212.9 80.6 212.2 80.1 211.5 79.6 210.7 79.2 209.9 78.8 209.2 78.3 208.3 78.1 207.7 77.7 207 77.5 206.3 77.1 205.6 76.9 205.2 76.5 205.9 77.2"/>
  <polygon class="st1" points="42.7 218.5 42.2 218.8 41.6 219.1 41 219.3 40.4 219.6 39.9 219.9 39.3 220.2 38.7 220.4 38.2 220.6 37.7 220.9 37.1 221.2 36.5 221.4 35.9 221.6 35.3 221.9 34.7 222.1 34.1 222.2 33.5 222.5 33 222.7 32.4 222.9 31.8 223.1 31.2 223.3 30.6 223.5 30 223.6 29.4 223.8 28.8 224 28.2 224.1 27.6 224.3 27 224.5 26.4 224.6 25.8 224.8 25.2 224.9 24.6 225.1 23.7 225.2 22.8 225.4 22 225.6 21.1 225.7 20.2 225.9 19.4 226.1 18.5 226.2 17.6 226.3 16.8 226.5 15.9 226.6 15 226.8 14.1 226.8 13.3 226.9 12.3 227 11.5 227.1 10.6 227.2 8.9 232.9 9.6 232.9 10.4 232.9 11.2 232.9 12 232.9 12.8 232.8 13.5 232.8 14.3 232.7 15.1 232.7 15.8 232.6 16.6 232.5 17.4 232.5 18.1 232.4 18.9 232.4 19.6 232.2 20.5 232.2 21.2 232.1 22 232.1 22.8 231.9 23.5 231.8 24.3 231.7 25.1 231.6 25.8 231.5 26.6 231.4 27.4 231.3 28.1 231.1 28.9 231 29.7 230.9 30.4 230.7 31.2 230.6 31.9 230.4 32.7 230.3 33.4 230.1 34.5 229.9 35.6 229.6 36.7 229.4 37.8 229 38.9 228.7 40 228.4 41 228.1 42.1 227.6 43.2 227.3 44.2 226.9 45.2 226.5 46.3 226.1 47.3 225.6 48.3 225.2 49.3 224.7 50.3 224.2 49.3 223.6 48.3 223 47.4 222.3 46.5 221.6 45.6 220.8 44.8 220 44 219.2 43.3 218.2 42.7 218.5"/>
  <polygon class="st1" points="141.6 169.3 141.2 170 140.9 170.6 140.5 171.2 140.1 171.9 139.7 172.5 139.4 173.1 139 173.8 138.7 174.3 138.3 175 137.9 175.6 137.5 176.3 137.1 176.9 136.7 177.5 136.4 178.1 136 178.7 135.6 179.4 135.3 180 134.9 180.6 134.5 181.2 134.1 181.9 133.8 182.4 133.4 183 133 183.6 132.7 184.3 132.2 184.9 131.8 185.5 131.4 186 131.1 186.6 130.7 187.3 130.2 187.8 129.8 188.4 129.4 189 129.1 189.6 128.6 190.2 128.2 190.8 127.8 191.4 127.4 191.9 126.9 192.5 126.5 193.1 126.1 193.6 125.7 194.2 125.2 194.8 124.8 195.3 124.4 195.9 123.9 196.5 123.5 197.1 123 197.6 122.5 198.2 122.1 198.6 121.7 199.2 121.2 199.8 120.7 200.3 120.2 200.8 119.8 201.4 119.3 201.9 118.8 202.4 118.4 203 117.9 203.5 117.4 204 116.9 204.5 116.4 205.1 115.9 205.7 115.4 206.1 114.9 206.7 114.5 207.2 114 207.7 113.5 208.2 113 208.7 112.5 209.3 111.9 209.8 111.5 210.2 110.9 210.7 110.4 211.3 109.9 211.7 109.3 212.2 108.8 212.7 108.3 213.2 107.7 213.7 107.3 214.1 106.7 214.6 106.3 215 105.8 215.4 105.3 215.8 104.8 216.2 104.3 216.6 103.8 217 103.3 217.3 102.8 217.8 102.3 218.1 101.8 218.5 101.3 218.9 100.7 219.2 100.2 219.5 99.7 219.9 99.1 220.2 98.6 220.5 98 220.9 97.5 221.2 96.9 221.5 96.4 221.8 95.8 222 95.3 222.3 94.7 222.6 94.1 222.9 93.6 223.2 93 223.5 92.5 223.7 91.9 224 91.3 224.2 90.7 224.5 90.1 224.7 89.6 224.9 89 225.1 88.4 225.3 87.8 225.6 87.2 225.8 86.6 226 86 226.2 85.4 226.3 84.8 226.5 84.1 226.7 83.5 226.9 82.9 226.9 82.3 227.1 81.7 227.3 81.1 227.3 80.5 227.5 79.8 227.6 79.3 227.8 78.6 227.8 78 227.9 77.3 228.1 76.8 228.1 76.1 228.2 75.5 228.3 74.9 228.3 74.2 228.4 73.6 228.4 72.9 228.4 72.3 228.5 71.7 228.5 71.1 228.6 70.4 228.6 69.4 228.6 68.4 228.6 67.4 228.5 66.4 228.4 65.4 228.4 64.4 228.3 63.5 228.2 62.5 228.1 61.5 227.9 60.6 227.7 59.6 227.5 58.6 227.3 57.6 227 56.7 226.8 55.7 226.5 54.8 226.2 55.7 226.9 56.7 227.6 57.6 228.3 58.7 228.9 59.7 229.5 60.7 230.1 61.9 230.6 63 231 64 231.3 65 231.6 66 232 67 232.2 68 232.5 69.1 232.7 70 232.9 71.1 233.1 72.1 233.2 73.1 233.4 74.1 233.5 75.1 233.5 76.2 233.6 77.2 233.6 78.2 233.6 79.3 233.6 79.9 233.6 80.5 233.6 81.2 233.6 81.8 233.5 82.5 233.5 83.1 233.5 83.7 233.4 84.4 233.4 85 233.3 85.7 233.2 86.2 233.1 86.8 233 87.5 232.9 88.1 232.8 88.8 232.7 89.3 232.6 90 232.5 90.6 232.3 91.2 232.2 91.8 232.1 92.4 231.9 93 231.7 93.6 231.6 94.2 231.4 94.8 231.2 95.4 231.1 96.1 230.8 96.7 230.6 97.3 230.4 97.8 230.2 98.4 230 99 229.8 99.6 229.5 100.2 229.3 100.7 229 101.3 228.8 101.9 228.6 102.5 228.3 103 228 103.6 227.8 104.2 227.5 104.7 227.1 105.2 226.9 105.8 226.6 106.3 226.3 106.9 225.9 107.4 225.6 108 225.3 108.5 224.9 109 224.6 109.6 224.2 110.1 223.9 110.6 223.6 111.1 223.2 111.6 222.8 112.2 222.5 112.7 222 113.2 221.6 113.7 221.3 114.2 220.9 114.7 220.4 115.2 220 115.6 219.6 116.1 219.2 116.7 218.7 117.3 218.1 117.9 217.6 118.5 217.1 119.1 216.6 119.7 216 120.3 215.4 120.9 214.9 121.5 214.3 122 213.7 122.6 213.1 123.2 212.6 123.7 212 124.3 211.4 124.9 210.9 125.4 210.2 125.9 209.7 126.5 209.1 127 208.4 127.5 207.8 128.1 207.2 128.6 206.6 129.1 206 129.7 205.4 130.2 204.7 130.7 204.1 131.2 203.5 131.7 202.9 132.2 202.2 132.7 201.6 133.1 200.9 133.7 200.3 133.7 199.6 133.8 199 133.9 198.4 134 197.7 134 197.1 134.1 196.4 134.3 195.8 134.4 195.1 134.4 194.5 134.6 193.9 134.7 193.2 134.9 192.6 135 191.9 135.1 191.4 135.3 190.8 135.4 190.1 135.6 189.4 135.7 188.7 136 188.1 136.1 187.4 136.3 186.7 136.5 186 136.7 185.3 136.9 184.7 137.1 184 137.2 183.3 137.4 182.7 137.6 182 137.8 181.3 138 180.7 138.2 180 138.4 179.3 138.7 178.6 138.8 178 139.1 177.3 139.2 176.6 139.5 175.9 139.7 175.3 139.9 174.6 140.1 174 140.3 173.3 140.6 172.7 140.7 172 141 171.3 141.3 170.6 141.4 170 141.7 169.3 141.9 168.6 141.6 169.3"/>
  <polyline class="st2" points="484.9 232.5 481.4 233 480.5 233.1 479.5 233.1 478.6 233.2 477.7 233.3 476.7 233.3 475.8 233.3 474.8 233.3 473.9 233.3 472.9 233.3 471.9 233.3 471 233.1 470.3 233.1 469.6 233.1 468.9 233.1 468.2 233 467.5 233 466.7 232.9 466.1 232.9 465.4 232.7 464.7 232.7 464 232.6 463.3 232.4 462.6 232.3 461.9 232.2 461.2 232.1 460.5 231.9 459.8 231.8 459.1 231.6 458.4 231.5 457.7 231.3 457.1 231.1 456.4 231 455.7 230.8 455 230.6 454.4 230.4 453.7 230.2 453 230 452.3 229.8 451.7 229.6 451 229.3 450.3 229.1 449.6 228.9 449 228.6 448.4 228.3 447.9 228.1 447.3 227.8 446.8 227.6 446.2 227.2 445.5 226.8 444.9 226.4 444.3 226 443.7 225.7 443.1 225.2 442.5 224.7 442 224.2 442.6 224.4 443.2 224.6 443.8 224.7 444.5 224.9 445 225.1 445.6 225.2 446.3 225.4 446.9 225.6 447.5 225.7 448.1 225.8 448.7 225.9 449.4 226 450 226.1 450.6 226.2 451.2 226.4 451.8 226.5 452.4 226.6 453.1 226.7 453.7 226.8 454.4 226.9 455 227 455.6 227.1 456.2 227.1 456.8 227.2 457.4 227.2 458.1 227.3 458.7 227.4 459.3 227.4 460 227.4 460.6 227.5 461.3 227.6 461.9 227.6 462.7 227.6 463.4 227.7 464.2 227.7 464.9 227.7 465.7 227.7 466.5 227.8 467.2 227.8 468 227.8 468.7 227.8 469.5 227.8 470.3 227.9 471 227.9 471.7 227.9 472.6 227.9 473.3 227.9 474 227.9 477 227.9 482.3 209.8 483.4 209.9 484.4 210.1 485.5 210.2 486.5 210.3 487.5 210.4 488.6 210.5 489.6 210.6 490.7 210.7"/>
  <polygon class="st2" points="158.5 106.5 157.4 106.1 156.4 105.8 155.4 105.5 154.3 105.3 153.3 105.2 152.2 105.1 151.1 105 150 104.9 149.1 105 148.2 105.1 147.2 105.2 146.3 105.3 145.4 105.4 144.5 105.6 143.6 105.8 142.7 106.1 141.8 106.3 140.9 106.5 140.1 106.8 139.2 107.2 138.4 107.5 137.5 107.9 136.6 108.3 135.8 108.7 134.8 109.2 133.8 109.8 132.8 110.3 131.8 110.8 130.8 111.4 129.8 112 128.8 112.7 127.8 113.3 127 113.9 126.2 114.5 125.3 115.1 124.4 115.7 123.6 116.3 122.9 116.9 122 117.6 121.2 118.2 120.4 118.9 119.6 119.6 118.8 120.2 118 121 117.3 121.7 116.5 122.4 115.7 123 115 123.7 114.3 124.5 113.5 125.2 112.8 126 112 126.7 111.3 127.4 110.6 128.2 109.9 128.9 109.2 129.7 108.5 130.4 107.8 131.3 107.1 132 106.5 132.9 105.8 133.6 105.1 134.4 104.5 135.3 103.9 136 103.2 136.9 102.6 137.7 102 138.5 101.3 139.3 100.8 140.2 100.2 140.9 99.6 141.8 99 142.6 98.4 143.5 97.8 144.3 97.3 145.2 96.8 146.1 96.2 146.9 95.6 147.8 95.1 148.6 94.6 149.5 94.1 150.4 93.6 151.3 93.1 152.2 92.6 153.1 92.1 153.9 91.6 154.9 91.1 155.8 90.7 156.7 90.2 157.6 89.8 158.5 89.3 159.4 88.9 160.4 88.5 161.3 88.1 162.2 87.7 163.2 87.3 164.1 86.9 164.8 86.6 165.6 86.3 166.3 86 167.1 85.7 167.9 85.4 168.6 85.2 169.3 84.9 170.1 84.7 170.8 84.4 171.6 84.2 172.3 84 173.1 83.7 173.9 83.5 174.6 83.3 175.4 83.1 176.2 82.9 177 82.7 177.7 82.6 178.5 82.4 179.3 82.3 180.1 82.2 180.8 82 181.6 81.9 182.5 81.7 183.2 81.6 184 81.5 184.8 81.4 185.6 81.3 186.4 81.3 187.2 81.2 187.9 81.2 188.8 81.2 190.1 81.2 191.2 81.2 192.4 81.2 193.5 81.4 194.6 81.6 195.8 81.8 196.9 82.1 198 82.4 199.1 82.7 199.9 83.2 200.7 82.4 200.7 81.6 200.6 80.8 200.5 80 200.3 79.3 200 78.6 199.7 77.8 199.4 77.2 199 76.6 198.5 76 198 75.5 197.5 75 196.9 74.6 196.2 74.2 195.5 73.8 194.8 73.6 194 73.3 193.2 73.1 192.5 72.8 191.7 72.7 190.9 72.6 190.1 72.6 189.5 72.4 188.7 72.4 187.9 72.3 187.2 72.3 186.5 72.2 185.8 72.2 185 72.3 184.3 72.3 183.5 72.4 182.7 72.4 182 72.5 181.2 72.6 180.4 72.7 179.7 72.7 178.9 72.8 178.1 73 177.4 73.1 176.6 73.2 175.9 73.4 175.1 73.5 174.3 73.7 173.6 73.8 172.8 74 172.1 74.1 171.3 74.4 170.6 74.6 169.9 74.8 169.1 75 168.4 75.2 167.6 75.4 166.9 75.7 166.1 75.9 165.4 76.2 164.7 76.4 164 76.7 163.2 77 162.5 77.3 161.8 77.6 161.1 78.4 159.1 78.8 158.1 79.2 157.2 79.6 156.2 80 155.3 80.4 154.4 80.9 153.4 81.3 152.5 81.8 151.6 82.3 150.7 82.7 149.8 83.2 148.9 83.7 148 84.2 147.1 84.7 146.2 85.2 145.3 85.7 144.5 86.2 143.6 86.8 142.7 87.3 141.8 87.9 140.9 88.4 140.1 89 139.3 89.6 138.4 90.1 137.6 90.7 136.8 91.3 135.9 91.9 135 92.5 134.3 93.1 133.4 93.7 132.6 94.3 131.8 95 131 95.6 130.2 96.3 129.4 96.9 128.6 97.6 127.7 98.3 127 98.9 126.1 99.6 125.4 100.3 124.6 101 123.8 101.7 123.1 102.4 122.4 103.2 121.6 103.9 120.8 104.6 120.1 105.4 119.4 106.1 118.7 106.9 117.9 107.6 117.2 108.4 116.5 109.2 115.9 110 115.2 110.7 114.5 111.6 113.8 112.3 113.2 113.1 112.5 114 111.9 114.8 111.3 115.6 110.7 116.4 110 117.3 109.4 118.1 108.8 119 108.2 119.9 107.6 120.8 106.9 121.8 106.3 122.9 105.7 123.9 105.2 124.9 104.6 125.9 104.1 126.9 103.6 127.9 103.2 129 102.7 130.1 102.3 131.2 101.9 132.2 101.5 133.4 101.2 134.4 100.8 135.5 100.5 136.2 100.3 136.9 100.3 137.6 100.2 138.4 100 139 100 139.8 99.9 140.4 99.9 141.2 99.9 142.3 99.9 143.4 100 144.5 100.1 145.6 100.3 146.7 100.5 147.8 100.8 148.8 101.1 149.9 101.5 150.5 101.7 151.1 102 151.6 102.2 152.2 102.5 152.7 102.8 153.3 103 153.9 103.3 154.4 103.7 154.9 104 155.4 104.3 156 104.6 156.5 105 157 105.3 157.5 105.7 158 106.1 158.5 106.5"/>
  <g class="st3">
    <g class="st3">
      <path class="st1" d="M103.7,240.2v37.7h-5v-37.7h5ZM108.9,277.9h-7.9v-4.1h7.9c2.7,0,4.9-.6,6.7-1.7,1.8-1.1,3.1-2.7,4.1-4.8.9-2,1.4-4.4,1.4-7.2v-2.3c0-2.2-.3-4.1-.8-5.8-.5-1.7-1.3-3.1-2.3-4.3-1-1.2-2.2-2-3.7-2.7-1.4-.6-3.1-.9-5-.9h-8.5v-4.1h8.5c2.5,0,4.7.4,6.8,1.2,2,.8,3.8,2,5.3,3.5,1.5,1.5,2.6,3.4,3.4,5.6.8,2.2,1.2,4.6,1.2,7.4v2.3c0,2.7-.4,5.2-1.2,7.4-.8,2.2-1.9,4-3.4,5.6-1.5,1.5-3.3,2.7-5.4,3.5-2.1.8-4.5,1.2-7.1,1.2Z"/>
      <path class="st1" d="M169.8,242.5c0-.8.2-1.4.7-2,.5-.5,1.2-.8,2.1-.8s1.6.3,2.1.8c.5.5.7,1.2.7,2s-.2,1.4-.7,1.9c-.5.5-1.2.8-2.1.8s-1.6-.3-2.1-.8c-.5-.5-.7-1.2-.7-1.9ZM175,249.9v28h-4.8v-28h4.8Z"/>
      <path class="st1" d="M239.9,253.3l-18.5,24.6h-2.9v-3.5l18.4-24.5h3.1v3.4ZM237.8,249.9v4h-19.1v-4h19.1ZM240.7,274v3.9h-20.4v-3.9h20.4Z"/>
    </g>
    <g class="st3">
      <path class="st1" d="M302.7,261v3.4c0,0-4.8,0-4.8,0-1.4,0-2.6.1-3.6.3-1.1.2-2,.5-2.7,1-.7.4-1.3,1-1.7,1.6-.4.6-.6,1.4-.6,2.3s.2,1.7.6,2.4c.4.7,1,1.3,1.8,1.7.8.4,1.8.6,3,.6s2.8-.3,3.9-.9,2-1.4,2.7-2.3c.7-.9,1-1.8,1.1-2.6l2,2.3c-.1.7-.4,1.5-1,2.4-.5.9-1.2,1.7-2.1,2.5-.9.8-1.9,1.5-3.2,2-1.2.5-2.6.8-4.1.8s-3.6-.4-5-1.1c-1.4-.7-2.5-1.7-3.3-3s-1.2-2.7-1.2-4.2.3-2.8.9-4c.6-1.1,1.4-2.1,2.5-2.9,1.1-.8,2.4-1.3,4-1.7,1.6-.4,3.3-.6,5.2-.6h5.6ZM301.9,273.1v-14.4c0-1.1-.2-2.1-.7-2.9-.4-.8-1.1-1.5-2-1.9-.9-.4-2-.7-3.3-.7s-2.3.2-3.2.6c-.9.4-1.6,1-2.1,1.6s-.8,1.4-.8,2.2h-4.8c0-1,.3-2,.8-3,.5-1,1.3-1.9,2.2-2.7,1-.8,2.1-1.4,3.5-1.9,1.4-.5,2.9-.7,4.6-.7s3.8.3,5.4,1c1.6.7,2.8,1.7,3.7,3.1.9,1.4,1.3,3.1,1.3,5.2v13c0,.9,0,1.9.2,3,.2,1.1.4,2,.7,2.7v.4h-5c-.2-.6-.4-1.3-.6-2.2-.1-.9-.2-1.8-.2-2.6Z"/>
    </g>
    <g class="st3">
      <path class="st1" d="M352.4,249.9l7.3,21.7,1.2,5-3.4,1.8-10.3-28.5h5.2ZM358.1,275l7.8-25.1h5.1l-11.2,32.3c-.3.7-.6,1.4-1,2.2-.4.8-1,1.6-1.6,2.3-.7.7-1.4,1.3-2.4,1.8s-2,.7-3.3.7-.9,0-1.4-.2-1-.2-1.2-.3v-3.9c.1,0,.3,0,.6,0,.3,0,.5,0,.6,0,1.1,0,2-.1,2.8-.4.8-.3,1.4-.8,1.9-1.4.5-.7,1-1.6,1.4-2.7l2-5.4Z"/>
      <path class="st1" d="M417.2,255.9v22h-4.8v-28h4.5l.3,6ZM416.1,262.9h-2c0-2,.3-3.8.9-5.4.6-1.6,1.3-3,2.3-4.3,1-1.2,2.2-2.1,3.6-2.8,1.4-.7,2.9-1,4.6-1s2.6.2,3.7.6,2,1,2.8,1.8c.8.8,1.4,1.9,1.8,3.1s.6,2.9.6,4.7v18.3h-4.8v-18.4c0-1.5-.2-2.6-.6-3.5-.4-.9-1.1-1.5-1.9-1.9s-1.8-.6-3.1-.6-2.3.2-3.2.8c-1,.5-1.8,1.2-2.5,2.1-.7.9-1.2,1.9-1.6,3-.4,1.1-.6,2.3-.6,3.6Z"/>
    </g>
  </g>
</svg>