<?xml version="1.0" encoding="UTF-8"?>
<svg id="Layer_2" data-name="Layer 2" xmlns="http://www.w3.org/2000/svg" viewBox="0 0 67.61 76.38">
  <g id="Layer_1-2" data-name="Layer 1" fill="#00677f">
    <g>
      <path d="M12.87,76.38H0V0h12.87v76.38ZM3.1,73.27h6.67V3.1H3.1v70.17Z"/>
      <path d="M31.91,71.66H9.77V4.72h22.14v22.05l-5.23,2.37v18.09l5.23,2.37v22.06ZM12.87,68.56h15.94v-16.95l-5.23-2.37v-22.1l5.23-2.37V7.82h-15.94v60.73Z"/>
      <path d="M67.61,76.38h-12.87V0h12.87v76.38ZM57.84,73.27h6.67V3.1h-6.67v70.17Z"/>
      <path d="M57.84,71.66h-18.82v-20.05l-5.23-2.37v-22.1l5.23-2.37V4.72h18.82v66.94ZM42.13,68.56h12.61V7.82h-12.61v18.95l-5.23,2.37v18.09l5.23,2.37v18.95Z"/>
    </g>
  </g>
</svg>